<mxfile host="app.diagrams.net" modified="2023-05-29T03:40:56.020Z" agent="Mozilla/5.0 (Windows NT 10.0; Win64; x64) AppleWebKit/537.36 (KHTML, like Gecko) Chrome/113.0.0.0 Safari/537.36" etag="unOqIjfSiFmF_IoCUtYw" version="21.3.3" type="device">
  <diagram name="Page-1" id="UvB6vgvwvDsM27UVaf61">
    <mxGraphModel dx="1725" dy="1568" grid="1" gridSize="10" guides="1" tooltips="1" connect="1" arrows="1" fold="1" page="1" pageScale="1" pageWidth="850" pageHeight="1100" math="0" shadow="0">
      <root>
        <mxCell id="0" />
        <mxCell id="1" parent="0" />
        <mxCell id="Rb8oramXEoIXRpVr2t3h-1" value="&lt;b&gt;Program&lt;/b&gt;" style="html=1;whiteSpace=wrap;" vertex="1" parent="1">
          <mxGeometry x="-830" y="237" width="80" height="45" as="geometry" />
        </mxCell>
        <mxCell id="Rb8oramXEoIXRpVr2t3h-2" value="&lt;span style=&quot;font-weight: normal;&quot;&gt;&amp;lt;&amp;lt;singleton&amp;gt;&amp;gt;&lt;/span&gt;&lt;br&gt;GameExecuter" style="swimlane;fontStyle=1;align=center;verticalAlign=top;childLayout=stackLayout;horizontal=1;startSize=45;horizontalStack=0;resizeParent=1;resizeParentMax=0;resizeLast=0;collapsible=1;marginBottom=0;whiteSpace=wrap;html=1;" vertex="1" parent="1">
          <mxGeometry x="-706" y="-251" width="310" height="1021" as="geometry">
            <mxRectangle x="-637" y="-264" width="120" height="45" as="alternateBounds" />
          </mxGeometry>
        </mxCell>
        <mxCell id="Rb8oramXEoIXRpVr2t3h-3" value="- _instance: GameExecuter" style="text;strokeColor=none;fillColor=none;align=left;verticalAlign=top;spacingLeft=4;spacingRight=4;overflow=hidden;rotatable=0;points=[[0,0.5],[1,0.5]];portConstraint=eastwest;whiteSpace=wrap;html=1;" vertex="1" parent="Rb8oramXEoIXRpVr2t3h-2">
          <mxGeometry y="45" width="310" height="36" as="geometry" />
        </mxCell>
        <mxCell id="Rb8oramXEoIXRpVr2t3h-4" value="- _gameWindow: Window" style="text;strokeColor=none;fillColor=none;align=left;verticalAlign=top;spacingLeft=4;spacingRight=4;overflow=hidden;rotatable=0;points=[[0,0.5],[1,0.5]];portConstraint=eastwest;whiteSpace=wrap;html=1;" vertex="1" parent="Rb8oramXEoIXRpVr2t3h-2">
          <mxGeometry y="81" width="310" height="26" as="geometry" />
        </mxCell>
        <mxCell id="Rb8oramXEoIXRpVr2t3h-16" value="- _sceneFactory: SceneFactory" style="text;strokeColor=none;fillColor=none;align=left;verticalAlign=top;spacingLeft=4;spacingRight=4;overflow=hidden;rotatable=0;points=[[0,0.5],[1,0.5]];portConstraint=eastwest;whiteSpace=wrap;html=1;" vertex="1" parent="Rb8oramXEoIXRpVr2t3h-2">
          <mxGeometry y="107" width="310" height="26" as="geometry" />
        </mxCell>
        <mxCell id="Rb8oramXEoIXRpVr2t3h-5" value="- _currentScene: Scene" style="text;strokeColor=none;fillColor=none;align=left;verticalAlign=top;spacingLeft=4;spacingRight=4;overflow=hidden;rotatable=0;points=[[0,0.5],[1,0.5]];portConstraint=eastwest;whiteSpace=wrap;html=1;" vertex="1" parent="Rb8oramXEoIXRpVr2t3h-2">
          <mxGeometry y="133" width="310" height="36" as="geometry" />
        </mxCell>
        <mxCell id="Rb8oramXEoIXRpVr2t3h-14" value="- _levelType: LevelType" style="text;strokeColor=none;fillColor=none;align=left;verticalAlign=top;spacingLeft=4;spacingRight=4;overflow=hidden;rotatable=0;points=[[0,0.5],[1,0.5]];portConstraint=eastwest;whiteSpace=wrap;html=1;" vertex="1" parent="Rb8oramXEoIXRpVr2t3h-2">
          <mxGeometry y="169" width="310" height="26" as="geometry" />
        </mxCell>
        <mxCell id="Rb8oramXEoIXRpVr2t3h-15" value="- _totalGameplayTime: int" style="text;strokeColor=none;fillColor=none;align=left;verticalAlign=top;spacingLeft=4;spacingRight=4;overflow=hidden;rotatable=0;points=[[0,0.5],[1,0.5]];portConstraint=eastwest;whiteSpace=wrap;html=1;" vertex="1" parent="Rb8oramXEoIXRpVr2t3h-2">
          <mxGeometry y="195" width="310" height="36" as="geometry" />
        </mxCell>
        <mxCell id="Rb8oramXEoIXRpVr2t3h-17" value="- _rotate: KeyCode" style="text;strokeColor=none;fillColor=none;align=left;verticalAlign=top;spacingLeft=4;spacingRight=4;overflow=hidden;rotatable=0;points=[[0,0.5],[1,0.5]];portConstraint=eastwest;whiteSpace=wrap;html=1;" vertex="1" parent="Rb8oramXEoIXRpVr2t3h-2">
          <mxGeometry y="231" width="310" height="26" as="geometry" />
        </mxCell>
        <mxCell id="Rb8oramXEoIXRpVr2t3h-19" value="- _moveLeft: KeyCode" style="text;strokeColor=none;fillColor=none;align=left;verticalAlign=top;spacingLeft=4;spacingRight=4;overflow=hidden;rotatable=0;points=[[0,0.5],[1,0.5]];portConstraint=eastwest;whiteSpace=wrap;html=1;" vertex="1" parent="Rb8oramXEoIXRpVr2t3h-2">
          <mxGeometry y="257" width="310" height="26" as="geometry" />
        </mxCell>
        <mxCell id="Rb8oramXEoIXRpVr2t3h-20" value="- _moveRight: KeyCode" style="text;strokeColor=none;fillColor=none;align=left;verticalAlign=top;spacingLeft=4;spacingRight=4;overflow=hidden;rotatable=0;points=[[0,0.5],[1,0.5]];portConstraint=eastwest;whiteSpace=wrap;html=1;" vertex="1" parent="Rb8oramXEoIXRpVr2t3h-2">
          <mxGeometry y="283" width="310" height="26" as="geometry" />
        </mxCell>
        <mxCell id="Rb8oramXEoIXRpVr2t3h-18" value="- _moveDown: KeyCode" style="text;strokeColor=none;fillColor=none;align=left;verticalAlign=top;spacingLeft=4;spacingRight=4;overflow=hidden;rotatable=0;points=[[0,0.5],[1,0.5]];portConstraint=eastwest;whiteSpace=wrap;html=1;" vertex="1" parent="Rb8oramXEoIXRpVr2t3h-2">
          <mxGeometry y="309" width="310" height="26" as="geometry" />
        </mxCell>
        <mxCell id="Rb8oramXEoIXRpVr2t3h-21" value="- _moveToBottom: KeyCode" style="text;strokeColor=none;fillColor=none;align=left;verticalAlign=top;spacingLeft=4;spacingRight=4;overflow=hidden;rotatable=0;points=[[0,0.5],[1,0.5]];portConstraint=eastwest;whiteSpace=wrap;html=1;" vertex="1" parent="Rb8oramXEoIXRpVr2t3h-2">
          <mxGeometry y="335" width="310" height="36" as="geometry" />
        </mxCell>
        <mxCell id="Rb8oramXEoIXRpVr2t3h-29" value="- _results: List&amp;lt;Result&amp;gt;" style="text;strokeColor=none;fillColor=none;align=left;verticalAlign=top;spacingLeft=4;spacingRight=4;overflow=hidden;rotatable=0;points=[[0,0.5],[1,0.5]];portConstraint=eastwest;whiteSpace=wrap;html=1;" vertex="1" parent="Rb8oramXEoIXRpVr2t3h-2">
          <mxGeometry y="371" width="310" height="26" as="geometry" />
        </mxCell>
        <mxCell id="Rb8oramXEoIXRpVr2t3h-6" value="" style="line;strokeWidth=1;fillColor=none;align=left;verticalAlign=middle;spacingTop=-1;spacingLeft=3;spacingRight=3;rotatable=0;labelPosition=right;points=[];portConstraint=eastwest;strokeColor=inherit;" vertex="1" parent="Rb8oramXEoIXRpVr2t3h-2">
          <mxGeometry y="397" width="310" height="8" as="geometry" />
        </mxCell>
        <mxCell id="Rb8oramXEoIXRpVr2t3h-7" value="- GameExecuter()" style="text;strokeColor=none;fillColor=none;align=left;verticalAlign=top;spacingLeft=4;spacingRight=4;overflow=hidden;rotatable=0;points=[[0,0.5],[1,0.5]];portConstraint=eastwest;whiteSpace=wrap;html=1;" vertex="1" parent="Rb8oramXEoIXRpVr2t3h-2">
          <mxGeometry y="405" width="310" height="36" as="geometry" />
        </mxCell>
        <mxCell id="Rb8oramXEoIXRpVr2t3h-8" value="+ Instance: GameExecuter &amp;lt;&amp;lt; property &amp;gt;&amp;gt;" style="text;strokeColor=none;fillColor=none;align=left;verticalAlign=top;spacingLeft=4;spacingRight=4;overflow=hidden;rotatable=0;points=[[0,0.5],[1,0.5]];portConstraint=eastwest;whiteSpace=wrap;html=1;" vertex="1" parent="Rb8oramXEoIXRpVr2t3h-2">
          <mxGeometry y="441" width="310" height="36" as="geometry" />
        </mxCell>
        <mxCell id="Rb8oramXEoIXRpVr2t3h-9" value="+ Level: LevelType &amp;lt;&amp;lt;property&amp;gt;&amp;gt;" style="text;strokeColor=none;fillColor=none;align=left;verticalAlign=top;spacingLeft=4;spacingRight=4;overflow=hidden;rotatable=0;points=[[0,0.5],[1,0.5]];portConstraint=eastwest;whiteSpace=wrap;html=1;" vertex="1" parent="Rb8oramXEoIXRpVr2t3h-2">
          <mxGeometry y="477" width="310" height="26" as="geometry" />
        </mxCell>
        <mxCell id="Rb8oramXEoIXRpVr2t3h-22" value="+ TotalGamplayTime: int &amp;lt;&amp;lt;property&amp;gt;&amp;gt;" style="text;strokeColor=none;fillColor=none;align=left;verticalAlign=top;spacingLeft=4;spacingRight=4;overflow=hidden;rotatable=0;points=[[0,0.5],[1,0.5]];portConstraint=eastwest;whiteSpace=wrap;html=1;" vertex="1" parent="Rb8oramXEoIXRpVr2t3h-2">
          <mxGeometry y="503" width="310" height="36" as="geometry" />
        </mxCell>
        <mxCell id="Rb8oramXEoIXRpVr2t3h-28" value="+ RotateKey: KeyCode &amp;lt;&amp;lt;readonly, property&amp;gt;&amp;gt;" style="text;strokeColor=none;fillColor=none;align=left;verticalAlign=top;spacingLeft=4;spacingRight=4;overflow=hidden;rotatable=0;points=[[0,0.5],[1,0.5]];portConstraint=eastwest;whiteSpace=wrap;html=1;" vertex="1" parent="Rb8oramXEoIXRpVr2t3h-2">
          <mxGeometry y="539" width="310" height="26" as="geometry" />
        </mxCell>
        <mxCell id="Rb8oramXEoIXRpVr2t3h-27" value="+ MoveLeftKey: KeyCode &amp;lt;&amp;lt;readonly, property&amp;gt;&amp;gt;" style="text;strokeColor=none;fillColor=none;align=left;verticalAlign=top;spacingLeft=4;spacingRight=4;overflow=hidden;rotatable=0;points=[[0,0.5],[1,0.5]];portConstraint=eastwest;whiteSpace=wrap;html=1;" vertex="1" parent="Rb8oramXEoIXRpVr2t3h-2">
          <mxGeometry y="565" width="310" height="26" as="geometry" />
        </mxCell>
        <mxCell id="Rb8oramXEoIXRpVr2t3h-26" value="+ MoveRightKey: KeyCode &amp;lt;&amp;lt;readonly, property&amp;gt;&amp;gt;" style="text;strokeColor=none;fillColor=none;align=left;verticalAlign=top;spacingLeft=4;spacingRight=4;overflow=hidden;rotatable=0;points=[[0,0.5],[1,0.5]];portConstraint=eastwest;whiteSpace=wrap;html=1;" vertex="1" parent="Rb8oramXEoIXRpVr2t3h-2">
          <mxGeometry y="591" width="310" height="26" as="geometry" />
        </mxCell>
        <mxCell id="Rb8oramXEoIXRpVr2t3h-25" value="+ MoveDownKey: KeyCode &amp;lt;&amp;lt;readonly, property&amp;gt;&amp;gt;" style="text;strokeColor=none;fillColor=none;align=left;verticalAlign=top;spacingLeft=4;spacingRight=4;overflow=hidden;rotatable=0;points=[[0,0.5],[1,0.5]];portConstraint=eastwest;whiteSpace=wrap;html=1;" vertex="1" parent="Rb8oramXEoIXRpVr2t3h-2">
          <mxGeometry y="617" width="310" height="26" as="geometry" />
        </mxCell>
        <mxCell id="Rb8oramXEoIXRpVr2t3h-24" value="+ MoveToBottomKey: KeyCode &amp;lt;&amp;lt;readonly, property&amp;gt;&amp;gt;" style="text;strokeColor=none;fillColor=none;align=left;verticalAlign=top;spacingLeft=4;spacingRight=4;overflow=hidden;rotatable=0;points=[[0,0.5],[1,0.5]];portConstraint=eastwest;whiteSpace=wrap;html=1;" vertex="1" parent="Rb8oramXEoIXRpVr2t3h-2">
          <mxGeometry y="643" width="310" height="36" as="geometry" />
        </mxCell>
        <mxCell id="Rb8oramXEoIXRpVr2t3h-30" value="+ Results: List&amp;lt;Result&amp;gt; &amp;lt;&amp;lt;readonly, property&amp;gt;&amp;gt;" style="text;strokeColor=none;fillColor=none;align=left;verticalAlign=top;spacingLeft=4;spacingRight=4;overflow=hidden;rotatable=0;points=[[0,0.5],[1,0.5]];portConstraint=eastwest;whiteSpace=wrap;html=1;" vertex="1" parent="Rb8oramXEoIXRpVr2t3h-2">
          <mxGeometry y="679" width="310" height="36" as="geometry" />
        </mxCell>
        <mxCell id="Rb8oramXEoIXRpVr2t3h-10" value="+ Execute()" style="text;strokeColor=none;fillColor=none;align=left;verticalAlign=top;spacingLeft=4;spacingRight=4;overflow=hidden;rotatable=0;points=[[0,0.5],[1,0.5]];portConstraint=eastwest;whiteSpace=wrap;html=1;" vertex="1" parent="Rb8oramXEoIXRpVr2t3h-2">
          <mxGeometry y="715" width="310" height="26" as="geometry" />
        </mxCell>
        <mxCell id="Rb8oramXEoIXRpVr2t3h-11" value="- Update()" style="text;strokeColor=none;fillColor=none;align=left;verticalAlign=top;spacingLeft=4;spacingRight=4;overflow=hidden;rotatable=0;points=[[0,0.5],[1,0.5]];portConstraint=eastwest;whiteSpace=wrap;html=1;" vertex="1" parent="Rb8oramXEoIXRpVr2t3h-2">
          <mxGeometry y="741" width="310" height="26" as="geometry" />
        </mxCell>
        <mxCell id="Rb8oramXEoIXRpVr2t3h-12" value="- Draw()" style="text;strokeColor=none;fillColor=none;align=left;verticalAlign=top;spacingLeft=4;spacingRight=4;overflow=hidden;rotatable=0;points=[[0,0.5],[1,0.5]];portConstraint=eastwest;whiteSpace=wrap;html=1;" vertex="1" parent="Rb8oramXEoIXRpVr2t3h-2">
          <mxGeometry y="767" width="310" height="26" as="geometry" />
        </mxCell>
        <mxCell id="Rb8oramXEoIXRpVr2t3h-31" value="+ ChangeScene(int sceneID)" style="text;strokeColor=none;fillColor=none;align=left;verticalAlign=top;spacingLeft=4;spacingRight=4;overflow=hidden;rotatable=0;points=[[0,0.5],[1,0.5]];portConstraint=eastwest;whiteSpace=wrap;html=1;" vertex="1" parent="Rb8oramXEoIXRpVr2t3h-2">
          <mxGeometry y="793" width="310" height="26" as="geometry" />
        </mxCell>
        <mxCell id="Rb8oramXEoIXRpVr2t3h-13" value="+ End(uint playedTime, uint score)" style="text;strokeColor=none;fillColor=none;align=left;verticalAlign=top;spacingLeft=4;spacingRight=4;overflow=hidden;rotatable=0;points=[[0,0.5],[1,0.5]];portConstraint=eastwest;whiteSpace=wrap;html=1;" vertex="1" parent="Rb8oramXEoIXRpVr2t3h-2">
          <mxGeometry y="819" width="310" height="36" as="geometry" />
        </mxCell>
        <mxCell id="Rb8oramXEoIXRpVr2t3h-32" value="+ ListenToChangeKey(SettingScene settingScene)" style="text;strokeColor=none;fillColor=none;align=left;verticalAlign=top;spacingLeft=4;spacingRight=4;overflow=hidden;rotatable=0;points=[[0,0.5],[1,0.5]];portConstraint=eastwest;whiteSpace=wrap;html=1;" vertex="1" parent="Rb8oramXEoIXRpVr2t3h-2">
          <mxGeometry y="855" width="310" height="26" as="geometry" />
        </mxCell>
        <mxCell id="Rb8oramXEoIXRpVr2t3h-33" value="- SaveKeysTo()" style="text;strokeColor=none;fillColor=none;align=left;verticalAlign=top;spacingLeft=4;spacingRight=4;overflow=hidden;rotatable=0;points=[[0,0.5],[1,0.5]];portConstraint=eastwest;whiteSpace=wrap;html=1;" vertex="1" parent="Rb8oramXEoIXRpVr2t3h-2">
          <mxGeometry y="881" width="310" height="26" as="geometry" />
        </mxCell>
        <mxCell id="Rb8oramXEoIXRpVr2t3h-35" value="- LoadKeysFrom()" style="text;strokeColor=none;fillColor=none;align=left;verticalAlign=top;spacingLeft=4;spacingRight=4;overflow=hidden;rotatable=0;points=[[0,0.5],[1,0.5]];portConstraint=eastwest;whiteSpace=wrap;html=1;" vertex="1" parent="Rb8oramXEoIXRpVr2t3h-2">
          <mxGeometry y="907" width="310" height="36" as="geometry" />
        </mxCell>
        <mxCell id="Rb8oramXEoIXRpVr2t3h-36" value="+ AddResult(uint playedTime, uint Score)" style="text;strokeColor=none;fillColor=none;align=left;verticalAlign=top;spacingLeft=4;spacingRight=4;overflow=hidden;rotatable=0;points=[[0,0.5],[1,0.5]];portConstraint=eastwest;whiteSpace=wrap;html=1;" vertex="1" parent="Rb8oramXEoIXRpVr2t3h-2">
          <mxGeometry y="943" width="310" height="26" as="geometry" />
        </mxCell>
        <mxCell id="Rb8oramXEoIXRpVr2t3h-37" value="+ SaveResults()" style="text;strokeColor=none;fillColor=none;align=left;verticalAlign=top;spacingLeft=4;spacingRight=4;overflow=hidden;rotatable=0;points=[[0,0.5],[1,0.5]];portConstraint=eastwest;whiteSpace=wrap;html=1;" vertex="1" parent="Rb8oramXEoIXRpVr2t3h-2">
          <mxGeometry y="969" width="310" height="26" as="geometry" />
        </mxCell>
        <mxCell id="Rb8oramXEoIXRpVr2t3h-38" value="+ LoadResults()" style="text;strokeColor=none;fillColor=none;align=left;verticalAlign=top;spacingLeft=4;spacingRight=4;overflow=hidden;rotatable=0;points=[[0,0.5],[1,0.5]];portConstraint=eastwest;whiteSpace=wrap;html=1;" vertex="1" parent="Rb8oramXEoIXRpVr2t3h-2">
          <mxGeometry y="995" width="310" height="26" as="geometry" />
        </mxCell>
        <mxCell id="Rb8oramXEoIXRpVr2t3h-39" value="&amp;lt;&amp;lt;static&amp;gt;&amp;gt;&lt;br&gt;&lt;b&gt;Constants&lt;/b&gt;" style="swimlane;fontStyle=0;childLayout=stackLayout;horizontal=1;startSize=48;fillColor=none;horizontalStack=0;resizeParent=1;resizeParentMax=0;resizeLast=0;collapsible=1;marginBottom=0;whiteSpace=wrap;html=1;" vertex="1" parent="1">
          <mxGeometry x="1374" y="140" width="310" height="930" as="geometry">
            <mxRectangle x="1985" y="-70" width="80" height="45" as="alternateBounds" />
          </mxGeometry>
        </mxCell>
        <mxCell id="Rb8oramXEoIXRpVr2t3h-63" value="+&amp;nbsp;PROJECT_LOCATION: STRING &amp;lt;&amp;lt;const&amp;gt;&amp;gt;" style="text;strokeColor=none;fillColor=none;align=left;verticalAlign=top;spacingLeft=4;spacingRight=4;overflow=hidden;rotatable=0;points=[[0,0.5],[1,0.5]];portConstraint=eastwest;whiteSpace=wrap;html=1;" vertex="1" parent="Rb8oramXEoIXRpVr2t3h-39">
          <mxGeometry y="48" width="310" height="26" as="geometry" />
        </mxCell>
        <mxCell id="Rb8oramXEoIXRpVr2t3h-40" value="+&amp;nbsp;MEDIA_FOLDER_LOCATION: string &amp;lt;&amp;lt;const&amp;gt;&amp;gt;" style="text;strokeColor=none;fillColor=none;align=left;verticalAlign=top;spacingLeft=4;spacingRight=4;overflow=hidden;rotatable=0;points=[[0,0.5],[1,0.5]];portConstraint=eastwest;whiteSpace=wrap;html=1;" vertex="1" parent="Rb8oramXEoIXRpVr2t3h-39">
          <mxGeometry y="74" width="310" height="26" as="geometry" />
        </mxCell>
        <mxCell id="Rb8oramXEoIXRpVr2t3h-64" value="+ FONT_FOLDER_LOCATION: string &amp;lt;&amp;lt;const&amp;gt;&amp;gt;" style="text;strokeColor=none;fillColor=none;align=left;verticalAlign=top;spacingLeft=4;spacingRight=4;overflow=hidden;rotatable=0;points=[[0,0.5],[1,0.5]];portConstraint=eastwest;whiteSpace=wrap;html=1;" vertex="1" parent="Rb8oramXEoIXRpVr2t3h-39">
          <mxGeometry y="100" width="310" height="26" as="geometry" />
        </mxCell>
        <mxCell id="Rb8oramXEoIXRpVr2t3h-65" value="+ AUDIO_FOLDER_LOCATION: string &amp;lt;&amp;lt;const&amp;gt;&amp;gt;" style="text;strokeColor=none;fillColor=none;align=left;verticalAlign=top;spacingLeft=4;spacingRight=4;overflow=hidden;rotatable=0;points=[[0,0.5],[1,0.5]];portConstraint=eastwest;whiteSpace=wrap;html=1;" vertex="1" parent="Rb8oramXEoIXRpVr2t3h-39">
          <mxGeometry y="126" width="310" height="26" as="geometry" />
        </mxCell>
        <mxCell id="Rb8oramXEoIXRpVr2t3h-66" value="+ KEYS_FOLDER_LOCATION: string &amp;lt;&amp;lt;const&amp;gt;&amp;gt;" style="text;strokeColor=none;fillColor=none;align=left;verticalAlign=top;spacingLeft=4;spacingRight=4;overflow=hidden;rotatable=0;points=[[0,0.5],[1,0.5]];portConstraint=eastwest;whiteSpace=wrap;html=1;" vertex="1" parent="Rb8oramXEoIXRpVr2t3h-39">
          <mxGeometry y="152" width="310" height="26" as="geometry" />
        </mxCell>
        <mxCell id="Rb8oramXEoIXRpVr2t3h-67" value="+ GAMEPLAY_FOLDER_LOCATION: string &amp;lt;&amp;lt;const&amp;gt;&amp;gt;" style="text;strokeColor=none;fillColor=none;align=left;verticalAlign=top;spacingLeft=4;spacingRight=4;overflow=hidden;rotatable=0;points=[[0,0.5],[1,0.5]];portConstraint=eastwest;whiteSpace=wrap;html=1;" vertex="1" parent="Rb8oramXEoIXRpVr2t3h-39">
          <mxGeometry y="178" width="310" height="26" as="geometry" />
        </mxCell>
        <mxCell id="Rb8oramXEoIXRpVr2t3h-68" value="+ RESULT_FOLDER_LOCATION: string &amp;lt;&amp;lt;const&amp;gt;&amp;gt;" style="text;strokeColor=none;fillColor=none;align=left;verticalAlign=top;spacingLeft=4;spacingRight=4;overflow=hidden;rotatable=0;points=[[0,0.5],[1,0.5]];portConstraint=eastwest;whiteSpace=wrap;html=1;" vertex="1" parent="Rb8oramXEoIXRpVr2t3h-39">
          <mxGeometry y="204" width="310" height="36" as="geometry" />
        </mxCell>
        <mxCell id="Rb8oramXEoIXRpVr2t3h-69" value="+ LEGEND_BOLD: Font &amp;lt;&amp;lt;static&amp;gt;&amp;gt;" style="text;strokeColor=none;fillColor=none;align=left;verticalAlign=top;spacingLeft=4;spacingRight=4;overflow=hidden;rotatable=0;points=[[0,0.5],[1,0.5]];portConstraint=eastwest;whiteSpace=wrap;html=1;" vertex="1" parent="Rb8oramXEoIXRpVr2t3h-39">
          <mxGeometry y="240" width="310" height="26" as="geometry" />
        </mxCell>
        <mxCell id="Rb8oramXEoIXRpVr2t3h-70" value="+ SPANISH_FAITH: Font &amp;lt;&amp;lt;static&amp;gt;&amp;gt;" style="text;strokeColor=none;fillColor=none;align=left;verticalAlign=top;spacingLeft=4;spacingRight=4;overflow=hidden;rotatable=0;points=[[0,0.5],[1,0.5]];portConstraint=eastwest;whiteSpace=wrap;html=1;" vertex="1" parent="Rb8oramXEoIXRpVr2t3h-39">
          <mxGeometry y="266" width="310" height="26" as="geometry" />
        </mxCell>
        <mxCell id="Rb8oramXEoIXRpVr2t3h-71" value="+ BROWN_SUGAR: Font &amp;lt;&amp;lt;static&amp;gt;&amp;gt;" style="text;strokeColor=none;fillColor=none;align=left;verticalAlign=top;spacingLeft=4;spacingRight=4;overflow=hidden;rotatable=0;points=[[0,0.5],[1,0.5]];portConstraint=eastwest;whiteSpace=wrap;html=1;" vertex="1" parent="Rb8oramXEoIXRpVr2t3h-39">
          <mxGeometry y="292" width="310" height="26" as="geometry" />
        </mxCell>
        <mxCell id="Rb8oramXEoIXRpVr2t3h-72" value="+ MOTHERCODE: Font &amp;lt;&amp;lt;static&amp;gt;&amp;gt;" style="text;strokeColor=none;fillColor=none;align=left;verticalAlign=top;spacingLeft=4;spacingRight=4;overflow=hidden;rotatable=0;points=[[0,0.5],[1,0.5]];portConstraint=eastwest;whiteSpace=wrap;html=1;" vertex="1" parent="Rb8oramXEoIXRpVr2t3h-39">
          <mxGeometry y="318" width="310" height="26" as="geometry" />
        </mxCell>
        <mxCell id="Rb8oramXEoIXRpVr2t3h-73" value="+ GERALD: Font &amp;lt;&amp;lt;static&amp;gt;&amp;gt;" style="text;strokeColor=none;fillColor=none;align=left;verticalAlign=top;spacingLeft=4;spacingRight=4;overflow=hidden;rotatable=0;points=[[0,0.5],[1,0.5]];portConstraint=eastwest;whiteSpace=wrap;html=1;" vertex="1" parent="Rb8oramXEoIXRpVr2t3h-39">
          <mxGeometry y="344" width="310" height="26" as="geometry" />
        </mxCell>
        <mxCell id="Rb8oramXEoIXRpVr2t3h-74" value="+ GALACTIC_ADVENTURE: Font &amp;lt;&amp;lt;static&amp;gt;&amp;gt;" style="text;strokeColor=none;fillColor=none;align=left;verticalAlign=top;spacingLeft=4;spacingRight=4;overflow=hidden;rotatable=0;points=[[0,0.5],[1,0.5]];portConstraint=eastwest;whiteSpace=wrap;html=1;" vertex="1" parent="Rb8oramXEoIXRpVr2t3h-39">
          <mxGeometry y="370" width="310" height="36" as="geometry" />
        </mxCell>
        <mxCell id="Rb8oramXEoIXRpVr2t3h-41" value="+&amp;nbsp;WINDOW_WIDTH: int &amp;lt;&amp;lt;const&amp;gt;&amp;gt;" style="text;strokeColor=none;fillColor=none;align=left;verticalAlign=top;spacingLeft=4;spacingRight=4;overflow=hidden;rotatable=0;points=[[0,0.5],[1,0.5]];portConstraint=eastwest;whiteSpace=wrap;html=1;" vertex="1" parent="Rb8oramXEoIXRpVr2t3h-39">
          <mxGeometry y="406" width="310" height="26" as="geometry" />
        </mxCell>
        <mxCell id="Rb8oramXEoIXRpVr2t3h-42" value="+&amp;nbsp;WINDOW_HEIGHT: int &amp;lt;&amp;lt;const&amp;gt;&amp;gt;" style="text;strokeColor=none;fillColor=none;align=left;verticalAlign=top;spacingLeft=4;spacingRight=4;overflow=hidden;rotatable=0;points=[[0,0.5],[1,0.5]];portConstraint=eastwest;whiteSpace=wrap;html=1;" vertex="1" parent="Rb8oramXEoIXRpVr2t3h-39">
          <mxGeometry y="432" width="310" height="36" as="geometry" />
        </mxCell>
        <mxCell id="Rb8oramXEoIXRpVr2t3h-48" value="+&amp;nbsp;SIZE_OF_BLOCK: double &amp;lt;&amp;lt;const&amp;gt;&amp;gt;" style="text;strokeColor=none;fillColor=none;align=left;verticalAlign=top;spacingLeft=4;spacingRight=4;overflow=hidden;rotatable=0;points=[[0,0.5],[1,0.5]];portConstraint=eastwest;whiteSpace=wrap;html=1;" vertex="1" parent="Rb8oramXEoIXRpVr2t3h-39">
          <mxGeometry y="468" width="310" height="26" as="geometry" />
        </mxCell>
        <mxCell id="Rb8oramXEoIXRpVr2t3h-75" value="+&amp;nbsp;GAME_BACKGROUND_COLORS: Color[] &amp;lt;&amp;lt;static&amp;gt;&amp;gt;" style="text;strokeColor=none;fillColor=none;align=left;verticalAlign=top;spacingLeft=4;spacingRight=4;overflow=hidden;rotatable=0;points=[[0,0.5],[1,0.5]];portConstraint=eastwest;whiteSpace=wrap;html=1;" vertex="1" parent="Rb8oramXEoIXRpVr2t3h-39">
          <mxGeometry y="494" width="310" height="26" as="geometry" />
        </mxCell>
        <mxCell id="Rb8oramXEoIXRpVr2t3h-77" value="+&amp;nbsp;GameBackgroundColor(Color color): Color &amp;lt;&amp;lt;static&amp;gt;&amp;gt;" style="text;strokeColor=none;fillColor=none;align=left;verticalAlign=top;spacingLeft=4;spacingRight=4;overflow=hidden;rotatable=0;points=[[0,0.5],[1,0.5]];portConstraint=eastwest;whiteSpace=wrap;html=1;" vertex="1" parent="Rb8oramXEoIXRpVr2t3h-39">
          <mxGeometry y="520" width="310" height="36" as="geometry" />
        </mxCell>
        <mxCell id="Rb8oramXEoIXRpVr2t3h-51" value="+&amp;nbsp;HOME_SCENE: int &amp;lt;&amp;lt;const&amp;gt;&amp;gt;" style="text;strokeColor=none;fillColor=none;align=left;verticalAlign=top;spacingLeft=4;spacingRight=4;overflow=hidden;rotatable=0;points=[[0,0.5],[1,0.5]];portConstraint=eastwest;whiteSpace=wrap;html=1;" vertex="1" parent="Rb8oramXEoIXRpVr2t3h-39">
          <mxGeometry y="556" width="310" height="26" as="geometry" />
        </mxCell>
        <mxCell id="Rb8oramXEoIXRpVr2t3h-52" value="+&amp;nbsp;SETTING_SCENE: int &amp;lt;&amp;lt;const&amp;gt;&amp;gt;" style="text;strokeColor=none;fillColor=none;align=left;verticalAlign=top;spacingLeft=4;spacingRight=4;overflow=hidden;rotatable=0;points=[[0,0.5],[1,0.5]];portConstraint=eastwest;whiteSpace=wrap;html=1;" vertex="1" parent="Rb8oramXEoIXRpVr2t3h-39">
          <mxGeometry y="582" width="310" height="26" as="geometry" />
        </mxCell>
        <mxCell id="Rb8oramXEoIXRpVr2t3h-53" value="+ INSTRUCTION_SCENE: int &amp;lt;&amp;lt;const&amp;gt;&amp;gt;" style="text;strokeColor=none;fillColor=none;align=left;verticalAlign=top;spacingLeft=4;spacingRight=4;overflow=hidden;rotatable=0;points=[[0,0.5],[1,0.5]];portConstraint=eastwest;whiteSpace=wrap;html=1;" vertex="1" parent="Rb8oramXEoIXRpVr2t3h-39">
          <mxGeometry y="608" width="310" height="26" as="geometry" />
        </mxCell>
        <mxCell id="Rb8oramXEoIXRpVr2t3h-54" value="+ GAME_SCENE: int &amp;lt;&amp;lt;const&amp;gt;&amp;gt;" style="text;strokeColor=none;fillColor=none;align=left;verticalAlign=top;spacingLeft=4;spacingRight=4;overflow=hidden;rotatable=0;points=[[0,0.5],[1,0.5]];portConstraint=eastwest;whiteSpace=wrap;html=1;" vertex="1" parent="Rb8oramXEoIXRpVr2t3h-39">
          <mxGeometry y="634" width="310" height="26" as="geometry" />
        </mxCell>
        <mxCell id="Rb8oramXEoIXRpVr2t3h-55" value="+ ENDING_SCENE: int &amp;lt;&amp;lt;const&amp;gt;&amp;gt;" style="text;strokeColor=none;fillColor=none;align=left;verticalAlign=top;spacingLeft=4;spacingRight=4;overflow=hidden;rotatable=0;points=[[0,0.5],[1,0.5]];portConstraint=eastwest;whiteSpace=wrap;html=1;" vertex="1" parent="Rb8oramXEoIXRpVr2t3h-39">
          <mxGeometry y="660" width="310" height="36" as="geometry" />
        </mxCell>
        <mxCell id="Rb8oramXEoIXRpVr2t3h-56" value="+ TETROMINO_TYPE_I: int &amp;lt;&amp;lt;const&amp;gt;&amp;gt;" style="text;strokeColor=none;fillColor=none;align=left;verticalAlign=top;spacingLeft=4;spacingRight=4;overflow=hidden;rotatable=0;points=[[0,0.5],[1,0.5]];portConstraint=eastwest;whiteSpace=wrap;html=1;" vertex="1" parent="Rb8oramXEoIXRpVr2t3h-39">
          <mxGeometry y="696" width="310" height="26" as="geometry" />
        </mxCell>
        <mxCell id="Rb8oramXEoIXRpVr2t3h-57" value="+ TETROMINO_TYPE_J: int &amp;lt;&amp;lt;const&amp;gt;&amp;gt;" style="text;strokeColor=none;fillColor=none;align=left;verticalAlign=top;spacingLeft=4;spacingRight=4;overflow=hidden;rotatable=0;points=[[0,0.5],[1,0.5]];portConstraint=eastwest;whiteSpace=wrap;html=1;" vertex="1" parent="Rb8oramXEoIXRpVr2t3h-39">
          <mxGeometry y="722" width="310" height="26" as="geometry" />
        </mxCell>
        <mxCell id="Rb8oramXEoIXRpVr2t3h-58" value="+ TETROMINO_TYPE_L: int &amp;lt;&amp;lt;const&amp;gt;&amp;gt;" style="text;strokeColor=none;fillColor=none;align=left;verticalAlign=top;spacingLeft=4;spacingRight=4;overflow=hidden;rotatable=0;points=[[0,0.5],[1,0.5]];portConstraint=eastwest;whiteSpace=wrap;html=1;" vertex="1" parent="Rb8oramXEoIXRpVr2t3h-39">
          <mxGeometry y="748" width="310" height="26" as="geometry" />
        </mxCell>
        <mxCell id="Rb8oramXEoIXRpVr2t3h-59" value="+ TETROMINO_TYPE_O: int &amp;lt;&amp;lt;const&amp;gt;&amp;gt;" style="text;strokeColor=none;fillColor=none;align=left;verticalAlign=top;spacingLeft=4;spacingRight=4;overflow=hidden;rotatable=0;points=[[0,0.5],[1,0.5]];portConstraint=eastwest;whiteSpace=wrap;html=1;" vertex="1" parent="Rb8oramXEoIXRpVr2t3h-39">
          <mxGeometry y="774" width="310" height="26" as="geometry" />
        </mxCell>
        <mxCell id="Rb8oramXEoIXRpVr2t3h-60" value="+ TETROMINO_TYPE_S: int &amp;lt;&amp;lt;const&amp;gt;&amp;gt;" style="text;strokeColor=none;fillColor=none;align=left;verticalAlign=top;spacingLeft=4;spacingRight=4;overflow=hidden;rotatable=0;points=[[0,0.5],[1,0.5]];portConstraint=eastwest;whiteSpace=wrap;html=1;" vertex="1" parent="Rb8oramXEoIXRpVr2t3h-39">
          <mxGeometry y="800" width="310" height="26" as="geometry" />
        </mxCell>
        <mxCell id="Rb8oramXEoIXRpVr2t3h-61" value="+ TETROMINO_TYPE_T: int &amp;lt;&amp;lt;const&amp;gt;&amp;gt;" style="text;strokeColor=none;fillColor=none;align=left;verticalAlign=top;spacingLeft=4;spacingRight=4;overflow=hidden;rotatable=0;points=[[0,0.5],[1,0.5]];portConstraint=eastwest;whiteSpace=wrap;html=1;" vertex="1" parent="Rb8oramXEoIXRpVr2t3h-39">
          <mxGeometry y="826" width="310" height="26" as="geometry" />
        </mxCell>
        <mxCell id="Rb8oramXEoIXRpVr2t3h-62" value="+ TETROMINO_TYPE_Z: int &amp;lt;&amp;lt;const&amp;gt;&amp;gt;" style="text;strokeColor=none;fillColor=none;align=left;verticalAlign=top;spacingLeft=4;spacingRight=4;overflow=hidden;rotatable=0;points=[[0,0.5],[1,0.5]];portConstraint=eastwest;whiteSpace=wrap;html=1;" vertex="1" parent="Rb8oramXEoIXRpVr2t3h-39">
          <mxGeometry y="852" width="310" height="26" as="geometry" />
        </mxCell>
        <mxCell id="Rb8oramXEoIXRpVr2t3h-78" value="+ TETROMINO_COLORS: Color[] &amp;lt;&amp;lt;static&amp;gt;&amp;gt;" style="text;strokeColor=none;fillColor=none;align=left;verticalAlign=top;spacingLeft=4;spacingRight=4;overflow=hidden;rotatable=0;points=[[0,0.5],[1,0.5]];portConstraint=eastwest;whiteSpace=wrap;html=1;" vertex="1" parent="Rb8oramXEoIXRpVr2t3h-39">
          <mxGeometry y="878" width="310" height="26" as="geometry" />
        </mxCell>
        <mxCell id="Rb8oramXEoIXRpVr2t3h-79" value="+ TETROMINO_ANGLES: Tetromino.Angle[] &amp;lt;&amp;lt;static&amp;gt;&amp;gt;" style="text;strokeColor=none;fillColor=none;align=left;verticalAlign=top;spacingLeft=4;spacingRight=4;overflow=hidden;rotatable=0;points=[[0,0.5],[1,0.5]];portConstraint=eastwest;whiteSpace=wrap;html=1;" vertex="1" parent="Rb8oramXEoIXRpVr2t3h-39">
          <mxGeometry y="904" width="310" height="26" as="geometry" />
        </mxCell>
        <mxCell id="Rb8oramXEoIXRpVr2t3h-80" value="GameBoard" style="swimlane;fontStyle=1;align=center;verticalAlign=top;childLayout=stackLayout;horizontal=1;startSize=29;horizontalStack=0;resizeParent=1;resizeParentMax=0;resizeLast=0;collapsible=1;marginBottom=0;whiteSpace=wrap;html=1;" vertex="1" parent="1">
          <mxGeometry x="640" y="-969" width="340" height="304" as="geometry">
            <mxRectangle x="790" y="-665" width="100" height="30" as="alternateBounds" />
          </mxGeometry>
        </mxCell>
        <mxCell id="Rb8oramXEoIXRpVr2t3h-81" value="- _borderColor: Color" style="text;strokeColor=none;fillColor=none;align=left;verticalAlign=top;spacingLeft=4;spacingRight=4;overflow=hidden;rotatable=0;points=[[0,0.5],[1,0.5]];portConstraint=eastwest;whiteSpace=wrap;html=1;" vertex="1" parent="Rb8oramXEoIXRpVr2t3h-80">
          <mxGeometry y="29" width="340" height="26" as="geometry" />
        </mxCell>
        <mxCell id="Rb8oramXEoIXRpVr2t3h-82" value="- _backgroundColor: Color" style="text;strokeColor=none;fillColor=none;align=left;verticalAlign=top;spacingLeft=4;spacingRight=4;overflow=hidden;rotatable=0;points=[[0,0.5],[1,0.5]];portConstraint=eastwest;whiteSpace=wrap;html=1;" vertex="1" parent="Rb8oramXEoIXRpVr2t3h-80">
          <mxGeometry y="55" width="340" height="26" as="geometry" />
        </mxCell>
        <mxCell id="Rb8oramXEoIXRpVr2t3h-83" value="- _decoratedColor: Color" style="text;strokeColor=none;fillColor=none;align=left;verticalAlign=top;spacingLeft=4;spacingRight=4;overflow=hidden;rotatable=0;points=[[0,0.5],[1,0.5]];portConstraint=eastwest;whiteSpace=wrap;html=1;" vertex="1" parent="Rb8oramXEoIXRpVr2t3h-80">
          <mxGeometry y="81" width="340" height="36" as="geometry" />
        </mxCell>
        <mxCell id="Rb8oramXEoIXRpVr2t3h-88" value="- _boardPos: Point2D" style="text;strokeColor=none;fillColor=none;align=left;verticalAlign=top;spacingLeft=4;spacingRight=4;overflow=hidden;rotatable=0;points=[[0,0.5],[1,0.5]];portConstraint=eastwest;whiteSpace=wrap;html=1;" vertex="1" parent="Rb8oramXEoIXRpVr2t3h-80">
          <mxGeometry y="117" width="340" height="26" as="geometry" />
        </mxCell>
        <mxCell id="Rb8oramXEoIXRpVr2t3h-89" value="- _numsOfCells: Point2DIndex" style="text;strokeColor=none;fillColor=none;align=left;verticalAlign=top;spacingLeft=4;spacingRight=4;overflow=hidden;rotatable=0;points=[[0,0.5],[1,0.5]];portConstraint=eastwest;whiteSpace=wrap;html=1;" vertex="1" parent="Rb8oramXEoIXRpVr2t3h-80">
          <mxGeometry y="143" width="340" height="26" as="geometry" />
        </mxCell>
        <mxCell id="Rb8oramXEoIXRpVr2t3h-84" value="" style="line;strokeWidth=1;fillColor=none;align=left;verticalAlign=middle;spacingTop=-1;spacingLeft=3;spacingRight=3;rotatable=0;labelPosition=right;points=[];portConstraint=eastwest;strokeColor=inherit;" vertex="1" parent="Rb8oramXEoIXRpVr2t3h-80">
          <mxGeometry y="169" width="340" height="8" as="geometry" />
        </mxCell>
        <mxCell id="Rb8oramXEoIXRpVr2t3h-85" value="- GameBoard()" style="text;strokeColor=none;fillColor=none;align=left;verticalAlign=top;spacingLeft=4;spacingRight=4;overflow=hidden;rotatable=0;points=[[0,0.5],[1,0.5]];portConstraint=eastwest;whiteSpace=wrap;html=1;" vertex="1" parent="Rb8oramXEoIXRpVr2t3h-80">
          <mxGeometry y="177" width="340" height="26" as="geometry" />
        </mxCell>
        <mxCell id="Rb8oramXEoIXRpVr2t3h-90" value="- GameBoard(Point2D boardPos, Point2DIndex numsOfCells)" style="text;strokeColor=none;fillColor=none;align=left;verticalAlign=top;spacingLeft=4;spacingRight=4;overflow=hidden;rotatable=0;points=[[0,0.5],[1,0.5]];portConstraint=eastwest;whiteSpace=wrap;html=1;" vertex="1" parent="Rb8oramXEoIXRpVr2t3h-80">
          <mxGeometry y="203" width="340" height="26" as="geometry" />
        </mxCell>
        <mxCell id="Rb8oramXEoIXRpVr2t3h-86" value="-&amp;nbsp;GameBoard(Color borderColor, Color backgroudColor, Color boardColor, Point2D boardPos, Point2DIndex numsOfCells)" style="text;strokeColor=none;fillColor=none;align=left;verticalAlign=top;spacingLeft=4;spacingRight=4;overflow=hidden;rotatable=0;points=[[0,0.5],[1,0.5]];portConstraint=eastwest;whiteSpace=wrap;html=1;" vertex="1" parent="Rb8oramXEoIXRpVr2t3h-80">
          <mxGeometry y="229" width="340" height="49" as="geometry" />
        </mxCell>
        <mxCell id="Rb8oramXEoIXRpVr2t3h-87" value="+ Draw()" style="text;strokeColor=none;fillColor=none;align=left;verticalAlign=top;spacingLeft=4;spacingRight=4;overflow=hidden;rotatable=0;points=[[0,0.5],[1,0.5]];portConstraint=eastwest;whiteSpace=wrap;html=1;" vertex="1" parent="Rb8oramXEoIXRpVr2t3h-80">
          <mxGeometry y="278" width="340" height="26" as="geometry" />
        </mxCell>
        <mxCell id="Rb8oramXEoIXRpVr2t3h-91" value="&amp;lt;&amp;lt;static&amp;gt;&amp;gt;&lt;br&gt;&lt;b&gt;ExtensionMethods&lt;/b&gt;" style="swimlane;fontStyle=0;childLayout=stackLayout;horizontal=1;startSize=48;fillColor=none;horizontalStack=0;resizeParent=1;resizeParentMax=0;resizeLast=0;collapsible=1;marginBottom=0;whiteSpace=wrap;html=1;" vertex="1" parent="1">
          <mxGeometry x="320" y="530" width="340" height="178" as="geometry">
            <mxRectangle x="415" y="516.5" width="120" height="45" as="alternateBounds" />
          </mxGeometry>
        </mxCell>
        <mxCell id="Rb8oramXEoIXRpVr2t3h-99" value="+ ReadInteger(this StreamReader reader): int &amp;lt;&amp;lt;static&amp;gt;&amp;gt;" style="text;strokeColor=none;fillColor=none;align=left;verticalAlign=top;spacingLeft=4;spacingRight=4;overflow=hidden;rotatable=0;points=[[0,0.5],[1,0.5]];portConstraint=eastwest;whiteSpace=wrap;html=1;" vertex="1" parent="Rb8oramXEoIXRpVr2t3h-91">
          <mxGeometry y="48" width="340" height="26" as="geometry" />
        </mxCell>
        <mxCell id="Rb8oramXEoIXRpVr2t3h-101" value="+ ReadFloat(this StreamReader reader): float &amp;lt;&amp;lt;static&amp;gt;&amp;gt;" style="text;strokeColor=none;fillColor=none;align=left;verticalAlign=top;spacingLeft=4;spacingRight=4;overflow=hidden;rotatable=0;points=[[0,0.5],[1,0.5]];portConstraint=eastwest;whiteSpace=wrap;html=1;" vertex="1" parent="Rb8oramXEoIXRpVr2t3h-91">
          <mxGeometry y="74" width="340" height="26" as="geometry" />
        </mxCell>
        <mxCell id="Rb8oramXEoIXRpVr2t3h-102" value="+ ReadDouble(this StreamReader reader): double &amp;lt;&amp;lt;static&amp;gt;&amp;gt;" style="text;strokeColor=none;fillColor=none;align=left;verticalAlign=top;spacingLeft=4;spacingRight=4;overflow=hidden;rotatable=0;points=[[0,0.5],[1,0.5]];portConstraint=eastwest;whiteSpace=wrap;html=1;" vertex="1" parent="Rb8oramXEoIXRpVr2t3h-91">
          <mxGeometry y="100" width="340" height="26" as="geometry" />
        </mxCell>
        <mxCell id="Rb8oramXEoIXRpVr2t3h-103" value="+ ReadColor(this StreamReader reader): Color &amp;lt;&amp;lt;static&amp;gt;&amp;gt;" style="text;strokeColor=none;fillColor=none;align=left;verticalAlign=top;spacingLeft=4;spacingRight=4;overflow=hidden;rotatable=0;points=[[0,0.5],[1,0.5]];portConstraint=eastwest;whiteSpace=wrap;html=1;" vertex="1" parent="Rb8oramXEoIXRpVr2t3h-91">
          <mxGeometry y="126" width="340" height="26" as="geometry" />
        </mxCell>
        <mxCell id="Rb8oramXEoIXRpVr2t3h-124" value="+ WriteColor(this StreamWriter writer, Color clr) &amp;lt;&amp;lt;static&amp;gt;&amp;gt;" style="text;strokeColor=none;fillColor=none;align=left;verticalAlign=top;spacingLeft=4;spacingRight=4;overflow=hidden;rotatable=0;points=[[0,0.5],[1,0.5]];portConstraint=eastwest;whiteSpace=wrap;html=1;" vertex="1" parent="Rb8oramXEoIXRpVr2t3h-91">
          <mxGeometry y="152" width="340" height="26" as="geometry" />
        </mxCell>
        <mxCell id="Rb8oramXEoIXRpVr2t3h-125" value="Tetromino" style="swimlane;fontStyle=1;align=center;verticalAlign=top;childLayout=stackLayout;horizontal=1;startSize=30;horizontalStack=0;resizeParent=1;resizeParentMax=0;resizeLast=0;collapsible=1;marginBottom=0;whiteSpace=wrap;html=1;" vertex="1" parent="1">
          <mxGeometry x="704" y="48" width="352" height="982" as="geometry">
            <mxRectangle x="775" y="-269" width="100" height="30" as="alternateBounds" />
          </mxGeometry>
        </mxCell>
        <mxCell id="Rb8oramXEoIXRpVr2t3h-173" value="- _updateTetrominoSE: SoundEffect" style="text;strokeColor=none;fillColor=none;align=left;verticalAlign=top;spacingLeft=4;spacingRight=4;overflow=hidden;rotatable=0;points=[[0,0.5],[1,0.5]];portConstraint=eastwest;whiteSpace=wrap;html=1;" vertex="1" parent="Rb8oramXEoIXRpVr2t3h-125">
          <mxGeometry y="30" width="352" height="36" as="geometry" />
        </mxCell>
        <mxCell id="Rb8oramXEoIXRpVr2t3h-128" value="- _id: int" style="text;strokeColor=none;fillColor=none;align=left;verticalAlign=top;spacingLeft=4;spacingRight=4;overflow=hidden;rotatable=0;points=[[0,0.5],[1,0.5]];portConstraint=eastwest;whiteSpace=wrap;html=1;" vertex="1" parent="Rb8oramXEoIXRpVr2t3h-125">
          <mxGeometry y="66" width="352" height="26" as="geometry" />
        </mxCell>
        <mxCell id="Rb8oramXEoIXRpVr2t3h-127" value="- _tetrominoAngle: Angle" style="text;strokeColor=none;fillColor=none;align=left;verticalAlign=top;spacingLeft=4;spacingRight=4;overflow=hidden;rotatable=0;points=[[0,0.5],[1,0.5]];portConstraint=eastwest;whiteSpace=wrap;html=1;" vertex="1" parent="Rb8oramXEoIXRpVr2t3h-125">
          <mxGeometry y="92" width="352" height="26" as="geometry" />
        </mxCell>
        <mxCell id="Rb8oramXEoIXRpVr2t3h-129" value="- _pointIndexes: Point2DIndex" style="text;strokeColor=none;fillColor=none;align=left;verticalAlign=top;spacingLeft=4;spacingRight=4;overflow=hidden;rotatable=0;points=[[0,0.5],[1,0.5]];portConstraint=eastwest;whiteSpace=wrap;html=1;" vertex="1" parent="Rb8oramXEoIXRpVr2t3h-125">
          <mxGeometry y="118" width="352" height="26" as="geometry" />
        </mxCell>
        <mxCell id="Rb8oramXEoIXRpVr2t3h-130" value="- _theTetromino: List&amp;lt;Block&amp;gt;" style="text;strokeColor=none;fillColor=none;align=left;verticalAlign=top;spacingLeft=4;spacingRight=4;overflow=hidden;rotatable=0;points=[[0,0.5],[1,0.5]];portConstraint=eastwest;whiteSpace=wrap;html=1;" vertex="1" parent="Rb8oramXEoIXRpVr2t3h-125">
          <mxGeometry y="144" width="352" height="26" as="geometry" />
        </mxCell>
        <mxCell id="Rb8oramXEoIXRpVr2t3h-174" value="- _blocksCtrl:&amp;nbsp;BlocksController" style="text;strokeColor=none;fillColor=none;align=left;verticalAlign=top;spacingLeft=4;spacingRight=4;overflow=hidden;rotatable=0;points=[[0,0.5],[1,0.5]];portConstraint=eastwest;whiteSpace=wrap;html=1;" vertex="1" parent="Rb8oramXEoIXRpVr2t3h-125">
          <mxGeometry y="170" width="352" height="26" as="geometry" />
        </mxCell>
        <mxCell id="Rb8oramXEoIXRpVr2t3h-131" value="" style="line;strokeWidth=1;fillColor=none;align=left;verticalAlign=middle;spacingTop=-1;spacingLeft=3;spacingRight=3;rotatable=0;labelPosition=right;points=[];portConstraint=eastwest;strokeColor=inherit;" vertex="1" parent="Rb8oramXEoIXRpVr2t3h-125">
          <mxGeometry y="196" width="352" height="8" as="geometry" />
        </mxCell>
        <mxCell id="Rb8oramXEoIXRpVr2t3h-177" value="+&amp;nbsp;Tetromino(BlocksController blocksCtrl)" style="text;strokeColor=none;fillColor=none;align=left;verticalAlign=top;spacingLeft=4;spacingRight=4;overflow=hidden;rotatable=0;points=[[0,0.5],[1,0.5]];portConstraint=eastwest;whiteSpace=wrap;html=1;" vertex="1" parent="Rb8oramXEoIXRpVr2t3h-125">
          <mxGeometry y="204" width="352" height="26" as="geometry" />
        </mxCell>
        <mxCell id="Rb8oramXEoIXRpVr2t3h-176" value="+&amp;nbsp;Tetromino(BlocksController blocksCtrl, int xIndex, int yIndex)" style="text;strokeColor=none;fillColor=none;align=left;verticalAlign=top;spacingLeft=4;spacingRight=4;overflow=hidden;rotatable=0;points=[[0,0.5],[1,0.5]];portConstraint=eastwest;whiteSpace=wrap;html=1;" vertex="1" parent="Rb8oramXEoIXRpVr2t3h-125">
          <mxGeometry y="230" width="352" height="39" as="geometry" />
        </mxCell>
        <mxCell id="Rb8oramXEoIXRpVr2t3h-175" value="+&amp;nbsp;Tetromino(BlocksController blocksCtrl, int id, int xIndex, int yIndex)" style="text;strokeColor=none;fillColor=none;align=left;verticalAlign=top;spacingLeft=4;spacingRight=4;overflow=hidden;rotatable=0;points=[[0,0.5],[1,0.5]];portConstraint=eastwest;whiteSpace=wrap;html=1;" vertex="1" parent="Rb8oramXEoIXRpVr2t3h-125">
          <mxGeometry y="269" width="352" height="39" as="geometry" />
        </mxCell>
        <mxCell id="Rb8oramXEoIXRpVr2t3h-132" value="+&amp;nbsp;Tetromino(BlocksController blocksCtrl, int id, Angle tetrominoAngle, int xIndex, int yIndex)" style="text;strokeColor=none;fillColor=none;align=left;verticalAlign=top;spacingLeft=4;spacingRight=4;overflow=hidden;rotatable=0;points=[[0,0.5],[1,0.5]];portConstraint=eastwest;whiteSpace=wrap;html=1;" vertex="1" parent="Rb8oramXEoIXRpVr2t3h-125">
          <mxGeometry y="308" width="352" height="49" as="geometry" />
        </mxCell>
        <mxCell id="Rb8oramXEoIXRpVr2t3h-136" value="+ TheTetromino: List&amp;lt;Block&amp;gt; &amp;lt;&amp;lt;readonly, property&amp;gt;&amp;gt;" style="text;strokeColor=none;fillColor=none;align=left;verticalAlign=top;spacingLeft=4;spacingRight=4;overflow=hidden;rotatable=0;points=[[0,0.5],[1,0.5]];portConstraint=eastwest;whiteSpace=wrap;html=1;" vertex="1" parent="Rb8oramXEoIXRpVr2t3h-125">
          <mxGeometry y="357" width="352" height="26" as="geometry" />
        </mxCell>
        <mxCell id="Rb8oramXEoIXRpVr2t3h-178" value="# TetrominoColor: Color &amp;lt;&amp;lt;property&amp;gt;&amp;gt;" style="text;strokeColor=none;fillColor=none;align=left;verticalAlign=top;spacingLeft=4;spacingRight=4;overflow=hidden;rotatable=0;points=[[0,0.5],[1,0.5]];portConstraint=eastwest;whiteSpace=wrap;html=1;" vertex="1" parent="Rb8oramXEoIXRpVr2t3h-125">
          <mxGeometry y="383" width="352" height="26" as="geometry" />
        </mxCell>
        <mxCell id="Rb8oramXEoIXRpVr2t3h-137" value="- CanMoveLeft: bool &amp;lt;&amp;lt; readonly, property &amp;gt;&amp;gt;" style="text;strokeColor=none;fillColor=none;align=left;verticalAlign=top;spacingLeft=4;spacingRight=4;overflow=hidden;rotatable=0;points=[[0,0.5],[1,0.5]];portConstraint=eastwest;whiteSpace=wrap;html=1;" vertex="1" parent="Rb8oramXEoIXRpVr2t3h-125">
          <mxGeometry y="409" width="352" height="26" as="geometry" />
        </mxCell>
        <mxCell id="Rb8oramXEoIXRpVr2t3h-138" value="- CanMoveRight: bool &amp;lt;&amp;lt; readonly, property &amp;gt;&amp;gt;" style="text;strokeColor=none;fillColor=none;align=left;verticalAlign=top;spacingLeft=4;spacingRight=4;overflow=hidden;rotatable=0;points=[[0,0.5],[1,0.5]];portConstraint=eastwest;whiteSpace=wrap;html=1;" vertex="1" parent="Rb8oramXEoIXRpVr2t3h-125">
          <mxGeometry y="435" width="352" height="26" as="geometry" />
        </mxCell>
        <mxCell id="Rb8oramXEoIXRpVr2t3h-139" value="+ CanMoveDown: bool &amp;lt;&amp;lt; readonly, property &amp;gt;&amp;gt;" style="text;strokeColor=none;fillColor=none;align=left;verticalAlign=top;spacingLeft=4;spacingRight=4;overflow=hidden;rotatable=0;points=[[0,0.5],[1,0.5]];portConstraint=eastwest;whiteSpace=wrap;html=1;" vertex="1" parent="Rb8oramXEoIXRpVr2t3h-125">
          <mxGeometry y="461" width="352" height="36" as="geometry" />
        </mxCell>
        <mxCell id="Rb8oramXEoIXRpVr2t3h-140" value="+ SetPosition(Point2DIndex pointIndexes)" style="text;strokeColor=none;fillColor=none;align=left;verticalAlign=top;spacingLeft=4;spacingRight=4;overflow=hidden;rotatable=0;points=[[0,0.5],[1,0.5]];portConstraint=eastwest;whiteSpace=wrap;html=1;" vertex="1" parent="Rb8oramXEoIXRpVr2t3h-125">
          <mxGeometry y="497" width="352" height="26" as="geometry" />
        </mxCell>
        <mxCell id="Rb8oramXEoIXRpVr2t3h-142" value="+ Update()" style="text;strokeColor=none;fillColor=none;align=left;verticalAlign=top;spacingLeft=4;spacingRight=4;overflow=hidden;rotatable=0;points=[[0,0.5],[1,0.5]];portConstraint=eastwest;whiteSpace=wrap;html=1;" vertex="1" parent="Rb8oramXEoIXRpVr2t3h-125">
          <mxGeometry y="523" width="352" height="26" as="geometry" />
        </mxCell>
        <mxCell id="Rb8oramXEoIXRpVr2t3h-143" value="+ Draw()" style="text;strokeColor=none;fillColor=none;align=left;verticalAlign=top;spacingLeft=4;spacingRight=4;overflow=hidden;rotatable=0;points=[[0,0.5],[1,0.5]];portConstraint=eastwest;whiteSpace=wrap;html=1;" vertex="1" parent="Rb8oramXEoIXRpVr2t3h-125">
          <mxGeometry y="549" width="352" height="26" as="geometry" />
        </mxCell>
        <mxCell id="Rb8oramXEoIXRpVr2t3h-144" value="+ Rotate()" style="text;strokeColor=none;fillColor=none;align=left;verticalAlign=top;spacingLeft=4;spacingRight=4;overflow=hidden;rotatable=0;points=[[0,0.5],[1,0.5]];portConstraint=eastwest;whiteSpace=wrap;html=1;" vertex="1" parent="Rb8oramXEoIXRpVr2t3h-125">
          <mxGeometry y="575" width="352" height="26" as="geometry" />
        </mxCell>
        <mxCell id="Rb8oramXEoIXRpVr2t3h-145" value="+ MoveLeft()" style="text;strokeColor=none;fillColor=none;align=left;verticalAlign=top;spacingLeft=4;spacingRight=4;overflow=hidden;rotatable=0;points=[[0,0.5],[1,0.5]];portConstraint=eastwest;whiteSpace=wrap;html=1;" vertex="1" parent="Rb8oramXEoIXRpVr2t3h-125">
          <mxGeometry y="601" width="352" height="26" as="geometry" />
        </mxCell>
        <mxCell id="Rb8oramXEoIXRpVr2t3h-146" value="+ MoveRight()" style="text;strokeColor=none;fillColor=none;align=left;verticalAlign=top;spacingLeft=4;spacingRight=4;overflow=hidden;rotatable=0;points=[[0,0.5],[1,0.5]];portConstraint=eastwest;whiteSpace=wrap;html=1;" vertex="1" parent="Rb8oramXEoIXRpVr2t3h-125">
          <mxGeometry y="627" width="352" height="26" as="geometry" />
        </mxCell>
        <mxCell id="Rb8oramXEoIXRpVr2t3h-147" value="+ MoveDown()" style="text;strokeColor=none;fillColor=none;align=left;verticalAlign=top;spacingLeft=4;spacingRight=4;overflow=hidden;rotatable=0;points=[[0,0.5],[1,0.5]];portConstraint=eastwest;whiteSpace=wrap;html=1;" vertex="1" parent="Rb8oramXEoIXRpVr2t3h-125">
          <mxGeometry y="653" width="352" height="26" as="geometry" />
        </mxCell>
        <mxCell id="Rb8oramXEoIXRpVr2t3h-148" value="+ MoveToBottom()" style="text;strokeColor=none;fillColor=none;align=left;verticalAlign=top;spacingLeft=4;spacingRight=4;overflow=hidden;rotatable=0;points=[[0,0.5],[1,0.5]];portConstraint=eastwest;whiteSpace=wrap;html=1;" vertex="1" parent="Rb8oramXEoIXRpVr2t3h-125">
          <mxGeometry y="679" width="352" height="36" as="geometry" />
        </mxCell>
        <mxCell id="Rb8oramXEoIXRpVr2t3h-179" value="-&amp;nbsp;RotateIndexesClockwise(Point2DIndex indexOffset, Angle tetrominoAngle): Point2DIndex" style="text;strokeColor=none;fillColor=none;align=left;verticalAlign=top;spacingLeft=4;spacingRight=4;overflow=hidden;rotatable=0;points=[[0,0.5],[1,0.5]];portConstraint=eastwest;whiteSpace=wrap;html=1;" vertex="1" parent="Rb8oramXEoIXRpVr2t3h-125">
          <mxGeometry y="715" width="352" height="39" as="geometry" />
        </mxCell>
        <mxCell id="Rb8oramXEoIXRpVr2t3h-180" value="-&amp;nbsp;GetIndexOffsets(Point2DIndex secondBlockOffset, Point2DIndex thirdBlockOffset, Point2DIndex fourthBlockOffset, Angle tetrominoAngle): Point2DIndex[]" style="text;strokeColor=none;fillColor=none;align=left;verticalAlign=top;spacingLeft=4;spacingRight=4;overflow=hidden;rotatable=0;points=[[0,0.5],[1,0.5]];portConstraint=eastwest;whiteSpace=wrap;html=1;" vertex="1" parent="Rb8oramXEoIXRpVr2t3h-125">
          <mxGeometry y="754" width="352" height="52" as="geometry" />
        </mxCell>
        <mxCell id="Rb8oramXEoIXRpVr2t3h-181" value="-&amp;nbsp;TetrominoOffsets(Angle tetrominoAngle): Point2DIndex[]" style="text;strokeColor=none;fillColor=none;align=left;verticalAlign=top;spacingLeft=4;spacingRight=4;overflow=hidden;rotatable=0;points=[[0,0.5],[1,0.5]];portConstraint=eastwest;whiteSpace=wrap;html=1;" vertex="1" parent="Rb8oramXEoIXRpVr2t3h-125">
          <mxGeometry y="806" width="352" height="26" as="geometry" />
        </mxCell>
        <mxCell id="Rb8oramXEoIXRpVr2t3h-183" value="-&amp;nbsp;TetrominoIndexPoints(Angle tetrominoAngle): Point2DIndex[]" style="text;strokeColor=none;fillColor=none;align=left;verticalAlign=top;spacingLeft=4;spacingRight=4;overflow=hidden;rotatable=0;points=[[0,0.5],[1,0.5]];portConstraint=eastwest;whiteSpace=wrap;html=1;" vertex="1" parent="Rb8oramXEoIXRpVr2t3h-125">
          <mxGeometry y="832" width="352" height="36" as="geometry" />
        </mxCell>
        <mxCell id="Rb8oramXEoIXRpVr2t3h-184" value="+&amp;nbsp;CheckIfEmpty(Angle tetrominoAngle): bool" style="text;strokeColor=none;fillColor=none;align=left;verticalAlign=top;spacingLeft=4;spacingRight=4;overflow=hidden;rotatable=0;points=[[0,0.5],[1,0.5]];portConstraint=eastwest;whiteSpace=wrap;html=1;" vertex="1" parent="Rb8oramXEoIXRpVr2t3h-125">
          <mxGeometry y="868" width="352" height="26" as="geometry" />
        </mxCell>
        <mxCell id="Rb8oramXEoIXRpVr2t3h-185" value="+&amp;nbsp;CheckIfEmpty(): bool" style="text;strokeColor=none;fillColor=none;align=left;verticalAlign=top;spacingLeft=4;spacingRight=4;overflow=hidden;rotatable=0;points=[[0,0.5],[1,0.5]];portConstraint=eastwest;whiteSpace=wrap;html=1;" vertex="1" parent="Rb8oramXEoIXRpVr2t3h-125">
          <mxGeometry y="894" width="352" height="36" as="geometry" />
        </mxCell>
        <mxCell id="Rb8oramXEoIXRpVr2t3h-186" value="+&amp;nbsp;Save(StreamWriter writer)" style="text;strokeColor=none;fillColor=none;align=left;verticalAlign=top;spacingLeft=4;spacingRight=4;overflow=hidden;rotatable=0;points=[[0,0.5],[1,0.5]];portConstraint=eastwest;whiteSpace=wrap;html=1;" vertex="1" parent="Rb8oramXEoIXRpVr2t3h-125">
          <mxGeometry y="930" width="352" height="26" as="geometry" />
        </mxCell>
        <mxCell id="Rb8oramXEoIXRpVr2t3h-187" value="+ Load(StreamReader reader)" style="text;strokeColor=none;fillColor=none;align=left;verticalAlign=top;spacingLeft=4;spacingRight=4;overflow=hidden;rotatable=0;points=[[0,0.5],[1,0.5]];portConstraint=eastwest;whiteSpace=wrap;html=1;" vertex="1" parent="Rb8oramXEoIXRpVr2t3h-125">
          <mxGeometry y="956" width="352" height="26" as="geometry" />
        </mxCell>
        <mxCell id="Rb8oramXEoIXRpVr2t3h-222" value="&amp;lt;&amp;lt;struct&amp;gt;&amp;gt;&lt;br&gt;&lt;b&gt;Point2DIndex&lt;/b&gt;" style="swimlane;fontStyle=0;childLayout=stackLayout;horizontal=1;startSize=48;fillColor=none;horizontalStack=0;resizeParent=1;resizeParentMax=0;resizeLast=0;collapsible=1;marginBottom=0;whiteSpace=wrap;html=1;" vertex="1" parent="1">
          <mxGeometry x="1245" y="489" width="100" height="100" as="geometry">
            <mxRectangle x="1245" y="489" width="100" height="45" as="alternateBounds" />
          </mxGeometry>
        </mxCell>
        <mxCell id="Rb8oramXEoIXRpVr2t3h-223" value="+ XIndex: int" style="text;strokeColor=none;fillColor=none;align=left;verticalAlign=top;spacingLeft=4;spacingRight=4;overflow=hidden;rotatable=0;points=[[0,0.5],[1,0.5]];portConstraint=eastwest;whiteSpace=wrap;html=1;" vertex="1" parent="Rb8oramXEoIXRpVr2t3h-222">
          <mxGeometry y="48" width="100" height="26" as="geometry" />
        </mxCell>
        <mxCell id="Rb8oramXEoIXRpVr2t3h-224" value="+ YIndex: int" style="text;strokeColor=none;fillColor=none;align=left;verticalAlign=top;spacingLeft=4;spacingRight=4;overflow=hidden;rotatable=0;points=[[0,0.5],[1,0.5]];portConstraint=eastwest;whiteSpace=wrap;html=1;" vertex="1" parent="Rb8oramXEoIXRpVr2t3h-222">
          <mxGeometry y="74" width="100" height="26" as="geometry" />
        </mxCell>
        <mxCell id="Rb8oramXEoIXRpVr2t3h-228" value="BlockController" style="swimlane;fontStyle=1;align=center;verticalAlign=top;childLayout=stackLayout;horizontal=1;startSize=30;horizontalStack=0;resizeParent=1;resizeParentMax=0;resizeLast=0;collapsible=1;marginBottom=0;whiteSpace=wrap;html=1;" vertex="1" parent="1">
          <mxGeometry x="780" y="-450" width="250" height="465" as="geometry">
            <mxRectangle x="1510" y="-583.5" width="120" height="30" as="alternateBounds" />
          </mxGeometry>
        </mxCell>
        <mxCell id="Rb8oramXEoIXRpVr2t3h-244" value="- _collectingSE:&amp;nbsp;SoundEffect" style="text;strokeColor=none;fillColor=none;align=left;verticalAlign=top;spacingLeft=4;spacingRight=4;overflow=hidden;rotatable=0;points=[[0,0.5],[1,0.5]];portConstraint=eastwest;whiteSpace=wrap;html=1;" vertex="1" parent="Rb8oramXEoIXRpVr2t3h-228">
          <mxGeometry y="30" width="250" height="36" as="geometry" />
        </mxCell>
        <mxCell id="Rb8oramXEoIXRpVr2t3h-231" value="- _terminatedBlocks: List&amp;lt;Block&amp;gt;" style="text;strokeColor=none;fillColor=none;align=left;verticalAlign=top;spacingLeft=4;spacingRight=4;overflow=hidden;rotatable=0;points=[[0,0.5],[1,0.5]];portConstraint=eastwest;whiteSpace=wrap;html=1;" vertex="1" parent="Rb8oramXEoIXRpVr2t3h-228">
          <mxGeometry y="66" width="250" height="26" as="geometry" />
        </mxCell>
        <mxCell id="Rb8oramXEoIXRpVr2t3h-245" value="- _numOfRows: int" style="text;strokeColor=none;fillColor=none;align=left;verticalAlign=top;spacingLeft=4;spacingRight=4;overflow=hidden;rotatable=0;points=[[0,0.5],[1,0.5]];portConstraint=eastwest;whiteSpace=wrap;html=1;" vertex="1" parent="Rb8oramXEoIXRpVr2t3h-228">
          <mxGeometry y="92" width="250" height="26" as="geometry" />
        </mxCell>
        <mxCell id="Rb8oramXEoIXRpVr2t3h-246" value="- _numOfCols: int" style="text;strokeColor=none;fillColor=none;align=left;verticalAlign=top;spacingLeft=4;spacingRight=4;overflow=hidden;rotatable=0;points=[[0,0.5],[1,0.5]];portConstraint=eastwest;whiteSpace=wrap;html=1;" vertex="1" parent="Rb8oramXEoIXRpVr2t3h-228">
          <mxGeometry y="118" width="250" height="26" as="geometry" />
        </mxCell>
        <mxCell id="Rb8oramXEoIXRpVr2t3h-232" value="- _scoreIndex: uint" style="text;strokeColor=none;fillColor=none;align=left;verticalAlign=top;spacingLeft=4;spacingRight=4;overflow=hidden;rotatable=0;points=[[0,0.5],[1,0.5]];portConstraint=eastwest;whiteSpace=wrap;html=1;" vertex="1" parent="Rb8oramXEoIXRpVr2t3h-228">
          <mxGeometry y="144" width="250" height="26" as="geometry" />
        </mxCell>
        <mxCell id="Rb8oramXEoIXRpVr2t3h-233" value="" style="line;strokeWidth=1;fillColor=none;align=left;verticalAlign=middle;spacingTop=-1;spacingLeft=3;spacingRight=3;rotatable=0;labelPosition=right;points=[];portConstraint=eastwest;strokeColor=inherit;" vertex="1" parent="Rb8oramXEoIXRpVr2t3h-228">
          <mxGeometry y="170" width="250" height="8" as="geometry" />
        </mxCell>
        <mxCell id="Rb8oramXEoIXRpVr2t3h-234" value="+ BlockController()" style="text;strokeColor=none;fillColor=none;align=left;verticalAlign=top;spacingLeft=4;spacingRight=4;overflow=hidden;rotatable=0;points=[[0,0.5],[1,0.5]];portConstraint=eastwest;whiteSpace=wrap;html=1;" vertex="1" parent="Rb8oramXEoIXRpVr2t3h-228">
          <mxGeometry y="178" width="250" height="26" as="geometry" />
        </mxCell>
        <mxCell id="Rb8oramXEoIXRpVr2t3h-235" value="+ BlockController(int numOfXBlocks, int numOfYBlocks)" style="text;strokeColor=none;fillColor=none;align=left;verticalAlign=top;spacingLeft=4;spacingRight=4;overflow=hidden;rotatable=0;points=[[0,0.5],[1,0.5]];portConstraint=eastwest;whiteSpace=wrap;html=1;" vertex="1" parent="Rb8oramXEoIXRpVr2t3h-228">
          <mxGeometry y="204" width="250" height="49" as="geometry" />
        </mxCell>
        <mxCell id="Rb8oramXEoIXRpVr2t3h-238" value="+ BlocksIndex: int[, ] &amp;lt;&amp;lt;readonly, property&amp;gt;&amp;gt;" style="text;strokeColor=none;fillColor=none;align=left;verticalAlign=top;spacingLeft=4;spacingRight=4;overflow=hidden;rotatable=0;points=[[0,0.5],[1,0.5]];portConstraint=eastwest;whiteSpace=wrap;html=1;" vertex="1" parent="Rb8oramXEoIXRpVr2t3h-228">
          <mxGeometry y="253" width="250" height="26" as="geometry" />
        </mxCell>
        <mxCell id="Rb8oramXEoIXRpVr2t3h-237" value="+ ScoreIndex: uint &amp;lt;&amp;lt;readonly,property&amp;gt;&amp;gt;" style="text;strokeColor=none;fillColor=none;align=left;verticalAlign=top;spacingLeft=4;spacingRight=4;overflow=hidden;rotatable=0;points=[[0,0.5],[1,0.5]];portConstraint=eastwest;whiteSpace=wrap;html=1;" vertex="1" parent="Rb8oramXEoIXRpVr2t3h-228">
          <mxGeometry y="279" width="250" height="36" as="geometry" />
        </mxCell>
        <mxCell id="Rb8oramXEoIXRpVr2t3h-240" value="+&amp;nbsp;TerminateTetromino(List&amp;lt;Block&amp;gt; tetromino)" style="text;strokeColor=none;fillColor=none;align=left;verticalAlign=top;spacingLeft=4;spacingRight=4;overflow=hidden;rotatable=0;points=[[0,0.5],[1,0.5]];portConstraint=eastwest;whiteSpace=wrap;html=1;" vertex="1" parent="Rb8oramXEoIXRpVr2t3h-228">
          <mxGeometry y="315" width="250" height="36" as="geometry" />
        </mxCell>
        <mxCell id="Rb8oramXEoIXRpVr2t3h-241" value="+ Update()" style="text;strokeColor=none;fillColor=none;align=left;verticalAlign=top;spacingLeft=4;spacingRight=4;overflow=hidden;rotatable=0;points=[[0,0.5],[1,0.5]];portConstraint=eastwest;whiteSpace=wrap;html=1;" vertex="1" parent="Rb8oramXEoIXRpVr2t3h-228">
          <mxGeometry y="351" width="250" height="26" as="geometry" />
        </mxCell>
        <mxCell id="Rb8oramXEoIXRpVr2t3h-242" value="+ Draw()" style="text;strokeColor=none;fillColor=none;align=left;verticalAlign=top;spacingLeft=4;spacingRight=4;overflow=hidden;rotatable=0;points=[[0,0.5],[1,0.5]];portConstraint=eastwest;whiteSpace=wrap;html=1;" vertex="1" parent="Rb8oramXEoIXRpVr2t3h-228">
          <mxGeometry y="377" width="250" height="36" as="geometry" />
        </mxCell>
        <mxCell id="Rb8oramXEoIXRpVr2t3h-243" value="+ Save(StreamWriter writer)" style="text;strokeColor=none;fillColor=none;align=left;verticalAlign=top;spacingLeft=4;spacingRight=4;overflow=hidden;rotatable=0;points=[[0,0.5],[1,0.5]];portConstraint=eastwest;whiteSpace=wrap;html=1;" vertex="1" parent="Rb8oramXEoIXRpVr2t3h-228">
          <mxGeometry y="413" width="250" height="26" as="geometry" />
        </mxCell>
        <mxCell id="Rb8oramXEoIXRpVr2t3h-247" value="+ Load(StreamReader reader)" style="text;strokeColor=none;fillColor=none;align=left;verticalAlign=top;spacingLeft=4;spacingRight=4;overflow=hidden;rotatable=0;points=[[0,0.5],[1,0.5]];portConstraint=eastwest;whiteSpace=wrap;html=1;" vertex="1" parent="Rb8oramXEoIXRpVr2t3h-228">
          <mxGeometry y="439" width="250" height="26" as="geometry" />
        </mxCell>
        <mxCell id="Rb8oramXEoIXRpVr2t3h-248" value="Block" style="swimlane;fontStyle=1;align=center;verticalAlign=top;childLayout=stackLayout;horizontal=1;startSize=30;horizontalStack=0;resizeParent=1;resizeParentMax=0;resizeLast=0;collapsible=1;marginBottom=0;whiteSpace=wrap;html=1;" vertex="1" parent="1">
          <mxGeometry x="1146" y="-482" width="300" height="530" as="geometry">
            <mxRectangle x="402" y="440" width="70" height="30" as="alternateBounds" />
          </mxGeometry>
        </mxCell>
        <mxCell id="Rb8oramXEoIXRpVr2t3h-269" value="- _blocksCtrl:&amp;nbsp;BlocksController" style="text;strokeColor=none;fillColor=none;align=left;verticalAlign=top;spacingLeft=4;spacingRight=4;overflow=hidden;rotatable=0;points=[[0,0.5],[1,0.5]];portConstraint=eastwest;whiteSpace=wrap;html=1;" vertex="1" parent="Rb8oramXEoIXRpVr2t3h-248">
          <mxGeometry y="30" width="300" height="26" as="geometry" />
        </mxCell>
        <mxCell id="Rb8oramXEoIXRpVr2t3h-250" value="- _color: Color" style="text;strokeColor=none;fillColor=none;align=left;verticalAlign=top;spacingLeft=4;spacingRight=4;overflow=hidden;rotatable=0;points=[[0,0.5],[1,0.5]];portConstraint=eastwest;whiteSpace=wrap;html=1;" vertex="1" parent="Rb8oramXEoIXRpVr2t3h-248">
          <mxGeometry y="56" width="300" height="26" as="geometry" />
        </mxCell>
        <mxCell id="Rb8oramXEoIXRpVr2t3h-252" value="-&amp;nbsp;_pointIndexes: Point2DIndex" style="text;strokeColor=none;fillColor=none;align=left;verticalAlign=top;spacingLeft=4;spacingRight=4;overflow=hidden;rotatable=0;points=[[0,0.5],[1,0.5]];portConstraint=eastwest;whiteSpace=wrap;html=1;" vertex="1" parent="Rb8oramXEoIXRpVr2t3h-248">
          <mxGeometry y="82" width="300" height="26" as="geometry" />
        </mxCell>
        <mxCell id="Rb8oramXEoIXRpVr2t3h-253" value="" style="line;strokeWidth=1;fillColor=none;align=left;verticalAlign=middle;spacingTop=-1;spacingLeft=3;spacingRight=3;rotatable=0;labelPosition=right;points=[];portConstraint=eastwest;strokeColor=inherit;" vertex="1" parent="Rb8oramXEoIXRpVr2t3h-248">
          <mxGeometry y="108" width="300" height="8" as="geometry" />
        </mxCell>
        <mxCell id="Rb8oramXEoIXRpVr2t3h-254" value="+ Block(BlocksController blocksCtrl)" style="text;strokeColor=none;fillColor=none;align=left;verticalAlign=top;spacingLeft=4;spacingRight=4;overflow=hidden;rotatable=0;points=[[0,0.5],[1,0.5]];portConstraint=eastwest;whiteSpace=wrap;html=1;" vertex="1" parent="Rb8oramXEoIXRpVr2t3h-248">
          <mxGeometry y="116" width="300" height="26" as="geometry" />
        </mxCell>
        <mxCell id="Rb8oramXEoIXRpVr2t3h-255" value="+ Block(BlocksController blocksCtrl, Color blockColor, Point2DIndex pointIndexes)" style="text;strokeColor=none;fillColor=none;align=left;verticalAlign=top;spacingLeft=4;spacingRight=4;overflow=hidden;rotatable=0;points=[[0,0.5],[1,0.5]];portConstraint=eastwest;whiteSpace=wrap;html=1;" vertex="1" parent="Rb8oramXEoIXRpVr2t3h-248">
          <mxGeometry y="142" width="300" height="46" as="geometry" />
        </mxCell>
        <mxCell id="Rb8oramXEoIXRpVr2t3h-257" value="- BorderRectangle: Rectangle &amp;lt;&amp;lt;read-only, property&amp;gt;&amp;gt;" style="text;strokeColor=none;fillColor=none;align=left;verticalAlign=top;spacingLeft=4;spacingRight=4;overflow=hidden;rotatable=0;points=[[0,0.5],[1,0.5]];portConstraint=eastwest;whiteSpace=wrap;html=1;" vertex="1" parent="Rb8oramXEoIXRpVr2t3h-248">
          <mxGeometry y="188" width="300" height="26" as="geometry" />
        </mxCell>
        <mxCell id="Rb8oramXEoIXRpVr2t3h-258" value="- InnerRectangle: Rectangle &amp;lt;&amp;lt;read-only, property&amp;gt;&amp;gt;" style="text;strokeColor=none;fillColor=none;align=left;verticalAlign=top;spacingLeft=4;spacingRight=4;overflow=hidden;rotatable=0;points=[[0,0.5],[1,0.5]];portConstraint=eastwest;whiteSpace=wrap;html=1;" vertex="1" parent="Rb8oramXEoIXRpVr2t3h-248">
          <mxGeometry y="214" width="300" height="36" as="geometry" />
        </mxCell>
        <mxCell id="Rb8oramXEoIXRpVr2t3h-259" value="+ Point: Point2D &amp;lt;&amp;lt; readonly, property&amp;gt;&amp;gt;" style="text;strokeColor=none;fillColor=none;align=left;verticalAlign=top;spacingLeft=4;spacingRight=4;overflow=hidden;rotatable=0;points=[[0,0.5],[1,0.5]];portConstraint=eastwest;whiteSpace=wrap;html=1;" vertex="1" parent="Rb8oramXEoIXRpVr2t3h-248">
          <mxGeometry y="250" width="300" height="26" as="geometry" />
        </mxCell>
        <mxCell id="Rb8oramXEoIXRpVr2t3h-261" value="+ PointIndexes: Point2DIndex &amp;lt;&amp;lt;readonly, property&amp;gt;&amp;gt;" style="text;strokeColor=none;fillColor=none;align=left;verticalAlign=top;spacingLeft=4;spacingRight=4;overflow=hidden;rotatable=0;points=[[0,0.5],[1,0.5]];portConstraint=eastwest;whiteSpace=wrap;html=1;" vertex="1" parent="Rb8oramXEoIXRpVr2t3h-248">
          <mxGeometry y="276" width="300" height="26" as="geometry" />
        </mxCell>
        <mxCell id="Rb8oramXEoIXRpVr2t3h-263" value="+ CanMoveLeft: bool &amp;lt;&amp;lt;readonly, property&amp;gt;&amp;gt;" style="text;strokeColor=none;fillColor=none;align=left;verticalAlign=top;spacingLeft=4;spacingRight=4;overflow=hidden;rotatable=0;points=[[0,0.5],[1,0.5]];portConstraint=eastwest;whiteSpace=wrap;html=1;" vertex="1" parent="Rb8oramXEoIXRpVr2t3h-248">
          <mxGeometry y="302" width="300" height="26" as="geometry" />
        </mxCell>
        <mxCell id="Rb8oramXEoIXRpVr2t3h-264" value="+ CanMoveRight: bool &amp;lt;&amp;lt;readonly, property&amp;gt;&amp;gt;" style="text;strokeColor=none;fillColor=none;align=left;verticalAlign=top;spacingLeft=4;spacingRight=4;overflow=hidden;rotatable=0;points=[[0,0.5],[1,0.5]];portConstraint=eastwest;whiteSpace=wrap;html=1;" vertex="1" parent="Rb8oramXEoIXRpVr2t3h-248">
          <mxGeometry y="328" width="300" height="26" as="geometry" />
        </mxCell>
        <mxCell id="Rb8oramXEoIXRpVr2t3h-265" value="+ CanMoveDown: bool &amp;lt;&amp;lt;readonly, property&amp;gt;&amp;gt;" style="text;strokeColor=none;fillColor=none;align=left;verticalAlign=top;spacingLeft=4;spacingRight=4;overflow=hidden;rotatable=0;points=[[0,0.5],[1,0.5]];portConstraint=eastwest;whiteSpace=wrap;html=1;" vertex="1" parent="Rb8oramXEoIXRpVr2t3h-248">
          <mxGeometry y="354" width="300" height="36" as="geometry" />
        </mxCell>
        <mxCell id="Rb8oramXEoIXRpVr2t3h-266" value="+ Draw()" style="text;strokeColor=none;fillColor=none;align=left;verticalAlign=top;spacingLeft=4;spacingRight=4;overflow=hidden;rotatable=0;points=[[0,0.5],[1,0.5]];portConstraint=eastwest;whiteSpace=wrap;html=1;" vertex="1" parent="Rb8oramXEoIXRpVr2t3h-248">
          <mxGeometry y="390" width="300" height="26" as="geometry" />
        </mxCell>
        <mxCell id="Rb8oramXEoIXRpVr2t3h-267" value="+ GetIndexes(int xIndex, int yIndex)" style="text;strokeColor=none;fillColor=none;align=left;verticalAlign=top;spacingLeft=4;spacingRight=4;overflow=hidden;rotatable=0;points=[[0,0.5],[1,0.5]];portConstraint=eastwest;whiteSpace=wrap;html=1;" vertex="1" parent="Rb8oramXEoIXRpVr2t3h-248">
          <mxGeometry y="416" width="300" height="26" as="geometry" />
        </mxCell>
        <mxCell id="Rb8oramXEoIXRpVr2t3h-268" value="+ MoveDown()" style="text;strokeColor=none;fillColor=none;align=left;verticalAlign=top;spacingLeft=4;spacingRight=4;overflow=hidden;rotatable=0;points=[[0,0.5],[1,0.5]];portConstraint=eastwest;whiteSpace=wrap;html=1;" vertex="1" parent="Rb8oramXEoIXRpVr2t3h-248">
          <mxGeometry y="442" width="300" height="36" as="geometry" />
        </mxCell>
        <mxCell id="Rb8oramXEoIXRpVr2t3h-270" value="+ Save(StreamWriter writer)" style="text;strokeColor=none;fillColor=none;align=left;verticalAlign=top;spacingLeft=4;spacingRight=4;overflow=hidden;rotatable=0;points=[[0,0.5],[1,0.5]];portConstraint=eastwest;whiteSpace=wrap;html=1;" vertex="1" parent="Rb8oramXEoIXRpVr2t3h-248">
          <mxGeometry y="478" width="300" height="26" as="geometry" />
        </mxCell>
        <mxCell id="Rb8oramXEoIXRpVr2t3h-271" value="+ Load(StreamReader reader)" style="text;strokeColor=none;fillColor=none;align=left;verticalAlign=top;spacingLeft=4;spacingRight=4;overflow=hidden;rotatable=0;points=[[0,0.5],[1,0.5]];portConstraint=eastwest;whiteSpace=wrap;html=1;" vertex="1" parent="Rb8oramXEoIXRpVr2t3h-248">
          <mxGeometry y="504" width="300" height="26" as="geometry" />
        </mxCell>
        <mxCell id="Rb8oramXEoIXRpVr2t3h-272" value="&lt;span style=&quot;font-weight: normal;&quot;&gt;&amp;lt;&amp;lt;abstract&amp;gt;&amp;gt;&lt;/span&gt;&lt;br&gt;Scene" style="swimlane;fontStyle=1;align=center;verticalAlign=top;childLayout=stackLayout;horizontal=1;startSize=40;horizontalStack=0;resizeParent=1;resizeParentMax=0;resizeLast=0;collapsible=1;marginBottom=0;whiteSpace=wrap;html=1;" vertex="1" parent="1">
          <mxGeometry x="-100" y="-268" width="160" height="250" as="geometry">
            <mxRectangle x="-118" y="-297" width="110" height="40" as="alternateBounds" />
          </mxGeometry>
        </mxCell>
        <mxCell id="Rb8oramXEoIXRpVr2t3h-273" value="-&amp;nbsp;_buttons: List&amp;lt;Button&amp;gt;" style="text;strokeColor=none;fillColor=none;align=left;verticalAlign=top;spacingLeft=4;spacingRight=4;overflow=hidden;rotatable=0;points=[[0,0.5],[1,0.5]];portConstraint=eastwest;whiteSpace=wrap;html=1;" vertex="1" parent="Rb8oramXEoIXRpVr2t3h-272">
          <mxGeometry y="40" width="160" height="26" as="geometry" />
        </mxCell>
        <mxCell id="Rb8oramXEoIXRpVr2t3h-274" value="" style="line;strokeWidth=1;fillColor=none;align=left;verticalAlign=middle;spacingTop=-1;spacingLeft=3;spacingRight=3;rotatable=0;labelPosition=right;points=[];portConstraint=eastwest;strokeColor=inherit;" vertex="1" parent="Rb8oramXEoIXRpVr2t3h-272">
          <mxGeometry y="66" width="160" height="8" as="geometry" />
        </mxCell>
        <mxCell id="Rb8oramXEoIXRpVr2t3h-275" value="+ Scene()" style="text;strokeColor=none;fillColor=none;align=left;verticalAlign=top;spacingLeft=4;spacingRight=4;overflow=hidden;rotatable=0;points=[[0,0.5],[1,0.5]];portConstraint=eastwest;whiteSpace=wrap;html=1;" vertex="1" parent="Rb8oramXEoIXRpVr2t3h-272">
          <mxGeometry y="74" width="160" height="36" as="geometry" />
        </mxCell>
        <mxCell id="Rb8oramXEoIXRpVr2t3h-279" value="+ Button: List&amp;lt;Button&amp;gt; &amp;lt;&amp;lt;readonly, property&amp;gt;&amp;gt;" style="text;strokeColor=none;fillColor=none;align=left;verticalAlign=top;spacingLeft=4;spacingRight=4;overflow=hidden;rotatable=0;points=[[0,0.5],[1,0.5]];portConstraint=eastwest;whiteSpace=wrap;html=1;" vertex="1" parent="Rb8oramXEoIXRpVr2t3h-272">
          <mxGeometry y="110" width="160" height="49" as="geometry" />
        </mxCell>
        <mxCell id="Rb8oramXEoIXRpVr2t3h-276" value="+ Update() &amp;lt;&amp;lt;virtual&amp;gt;&amp;gt;" style="text;strokeColor=none;fillColor=none;align=left;verticalAlign=top;spacingLeft=4;spacingRight=4;overflow=hidden;rotatable=0;points=[[0,0.5],[1,0.5]];portConstraint=eastwest;whiteSpace=wrap;html=1;" vertex="1" parent="Rb8oramXEoIXRpVr2t3h-272">
          <mxGeometry y="159" width="160" height="26" as="geometry" />
        </mxCell>
        <mxCell id="Rb8oramXEoIXRpVr2t3h-277" value="+ Draw() &amp;lt;&amp;lt;virtual&amp;gt;&amp;gt;" style="text;strokeColor=none;fillColor=none;align=left;verticalAlign=top;spacingLeft=4;spacingRight=4;overflow=hidden;rotatable=0;points=[[0,0.5],[1,0.5]];portConstraint=eastwest;whiteSpace=wrap;html=1;" vertex="1" parent="Rb8oramXEoIXRpVr2t3h-272">
          <mxGeometry y="185" width="160" height="26" as="geometry" />
        </mxCell>
        <mxCell id="Rb8oramXEoIXRpVr2t3h-280" value="#&amp;nbsp;FetchButton(string name): Button" style="text;strokeColor=none;fillColor=none;align=left;verticalAlign=top;spacingLeft=4;spacingRight=4;overflow=hidden;rotatable=0;points=[[0,0.5],[1,0.5]];portConstraint=eastwest;whiteSpace=wrap;html=1;" vertex="1" parent="Rb8oramXEoIXRpVr2t3h-272">
          <mxGeometry y="211" width="160" height="39" as="geometry" />
        </mxCell>
        <mxCell id="Rb8oramXEoIXRpVr2t3h-281" value="&lt;b&gt;SceneFactory&lt;/b&gt;" style="swimlane;fontStyle=0;childLayout=stackLayout;horizontal=1;startSize=40;fillColor=none;horizontalStack=0;resizeParent=1;resizeParentMax=0;resizeLast=0;collapsible=1;marginBottom=0;whiteSpace=wrap;html=1;" vertex="1" parent="1">
          <mxGeometry x="-120" y="194.5" width="200" height="130" as="geometry">
            <mxRectangle x="-330" y="-140" width="100" height="30" as="alternateBounds" />
          </mxGeometry>
        </mxCell>
        <mxCell id="Rb8oramXEoIXRpVr2t3h-282" value="+ CreateScene(): Scene" style="text;strokeColor=none;fillColor=none;align=left;verticalAlign=top;spacingLeft=4;spacingRight=4;overflow=hidden;rotatable=0;points=[[0,0.5],[1,0.5]];portConstraint=eastwest;whiteSpace=wrap;html=1;" vertex="1" parent="Rb8oramXEoIXRpVr2t3h-281">
          <mxGeometry y="40" width="200" height="26" as="geometry" />
        </mxCell>
        <mxCell id="Rb8oramXEoIXRpVr2t3h-284" value="+ CreateScene(int sceneID): Scene" style="text;strokeColor=none;fillColor=none;align=left;verticalAlign=top;spacingLeft=4;spacingRight=4;overflow=hidden;rotatable=0;points=[[0,0.5],[1,0.5]];portConstraint=eastwest;whiteSpace=wrap;html=1;" vertex="1" parent="Rb8oramXEoIXRpVr2t3h-281">
          <mxGeometry y="66" width="200" height="26" as="geometry" />
        </mxCell>
        <mxCell id="Rb8oramXEoIXRpVr2t3h-285" value="+ CreateEndScene(uint playedTime, uint score): Scene" style="text;strokeColor=none;fillColor=none;align=left;verticalAlign=top;spacingLeft=4;spacingRight=4;overflow=hidden;rotatable=0;points=[[0,0.5],[1,0.5]];portConstraint=eastwest;whiteSpace=wrap;html=1;" vertex="1" parent="Rb8oramXEoIXRpVr2t3h-281">
          <mxGeometry y="92" width="200" height="38" as="geometry" />
        </mxCell>
        <mxCell id="Rb8oramXEoIXRpVr2t3h-286" value="HomeScene" style="swimlane;fontStyle=1;align=center;verticalAlign=top;childLayout=stackLayout;horizontal=1;startSize=30;horizontalStack=0;resizeParent=1;resizeParentMax=0;resizeLast=0;collapsible=1;marginBottom=0;whiteSpace=wrap;html=1;" vertex="1" parent="1">
          <mxGeometry x="113" y="-895" width="160" height="230" as="geometry">
            <mxRectangle x="-120" y="-850" width="100" height="30" as="alternateBounds" />
          </mxGeometry>
        </mxCell>
        <mxCell id="Rb8oramXEoIXRpVr2t3h-293" value="- _downSprite1: Sprite" style="text;strokeColor=none;fillColor=none;align=left;verticalAlign=top;spacingLeft=4;spacingRight=4;overflow=hidden;rotatable=0;points=[[0,0.5],[1,0.5]];portConstraint=eastwest;whiteSpace=wrap;html=1;" vertex="1" parent="Rb8oramXEoIXRpVr2t3h-286">
          <mxGeometry y="30" width="160" height="26" as="geometry" />
        </mxCell>
        <mxCell id="Rb8oramXEoIXRpVr2t3h-288" value="- _homeBackground: Sprite" style="text;strokeColor=none;fillColor=none;align=left;verticalAlign=top;spacingLeft=4;spacingRight=4;overflow=hidden;rotatable=0;points=[[0,0.5],[1,0.5]];portConstraint=eastwest;whiteSpace=wrap;html=1;" vertex="1" parent="Rb8oramXEoIXRpVr2t3h-286">
          <mxGeometry y="56" width="160" height="26" as="geometry" />
        </mxCell>
        <mxCell id="Rb8oramXEoIXRpVr2t3h-294" value="- _downSprite2: Sprite" style="text;strokeColor=none;fillColor=none;align=left;verticalAlign=top;spacingLeft=4;spacingRight=4;overflow=hidden;rotatable=0;points=[[0,0.5],[1,0.5]];portConstraint=eastwest;whiteSpace=wrap;html=1;" vertex="1" parent="Rb8oramXEoIXRpVr2t3h-286">
          <mxGeometry y="82" width="160" height="26" as="geometry" />
        </mxCell>
        <mxCell id="Rb8oramXEoIXRpVr2t3h-295" value="- _handPoint: Sprite" style="text;strokeColor=none;fillColor=none;align=left;verticalAlign=top;spacingLeft=4;spacingRight=4;overflow=hidden;rotatable=0;points=[[0,0.5],[1,0.5]];portConstraint=eastwest;whiteSpace=wrap;html=1;" vertex="1" parent="Rb8oramXEoIXRpVr2t3h-286">
          <mxGeometry y="108" width="160" height="26" as="geometry" />
        </mxCell>
        <mxCell id="Rb8oramXEoIXRpVr2t3h-289" value="" style="line;strokeWidth=1;fillColor=none;align=left;verticalAlign=middle;spacingTop=-1;spacingLeft=3;spacingRight=3;rotatable=0;labelPosition=right;points=[];portConstraint=eastwest;strokeColor=inherit;" vertex="1" parent="Rb8oramXEoIXRpVr2t3h-286">
          <mxGeometry y="134" width="160" height="8" as="geometry" />
        </mxCell>
        <mxCell id="Rb8oramXEoIXRpVr2t3h-290" value="+ HomeScene()" style="text;strokeColor=none;fillColor=none;align=left;verticalAlign=top;spacingLeft=4;spacingRight=4;overflow=hidden;rotatable=0;points=[[0,0.5],[1,0.5]];portConstraint=eastwest;whiteSpace=wrap;html=1;" vertex="1" parent="Rb8oramXEoIXRpVr2t3h-286">
          <mxGeometry y="142" width="160" height="36" as="geometry" />
        </mxCell>
        <mxCell id="Rb8oramXEoIXRpVr2t3h-291" value="+ Update() &amp;lt;&amp;lt; override &amp;gt;&amp;gt;" style="text;strokeColor=none;fillColor=none;align=left;verticalAlign=top;spacingLeft=4;spacingRight=4;overflow=hidden;rotatable=0;points=[[0,0.5],[1,0.5]];portConstraint=eastwest;whiteSpace=wrap;html=1;" vertex="1" parent="Rb8oramXEoIXRpVr2t3h-286">
          <mxGeometry y="178" width="160" height="26" as="geometry" />
        </mxCell>
        <mxCell id="Rb8oramXEoIXRpVr2t3h-292" value="+ Draw() &amp;lt;&amp;lt; override &amp;gt;&amp;gt;" style="text;strokeColor=none;fillColor=none;align=left;verticalAlign=top;spacingLeft=4;spacingRight=4;overflow=hidden;rotatable=0;points=[[0,0.5],[1,0.5]];portConstraint=eastwest;whiteSpace=wrap;html=1;" vertex="1" parent="Rb8oramXEoIXRpVr2t3h-286">
          <mxGeometry y="204" width="160" height="26" as="geometry" />
        </mxCell>
        <mxCell id="Rb8oramXEoIXRpVr2t3h-296" value="SettingScene" style="swimlane;fontStyle=1;align=center;verticalAlign=top;childLayout=stackLayout;horizontal=1;startSize=30;horizontalStack=0;resizeParent=1;resizeParentMax=0;resizeLast=0;collapsible=1;marginBottom=0;whiteSpace=wrap;html=1;" vertex="1" parent="1">
          <mxGeometry x="113" y="-637" width="160" height="318" as="geometry">
            <mxRectangle x="-120" y="-592" width="100" height="30" as="alternateBounds" />
          </mxGeometry>
        </mxCell>
        <mxCell id="Rb8oramXEoIXRpVr2t3h-287" value="- _backgroundMusic: Music" style="text;strokeColor=none;fillColor=none;align=left;verticalAlign=top;spacingLeft=4;spacingRight=4;overflow=hidden;rotatable=0;points=[[0,0.5],[1,0.5]];portConstraint=eastwest;whiteSpace=wrap;html=1;" vertex="1" parent="Rb8oramXEoIXRpVr2t3h-296">
          <mxGeometry y="30" width="160" height="26" as="geometry" />
        </mxCell>
        <mxCell id="Rb8oramXEoIXRpVr2t3h-297" value="- _muteSprite: Sprite" style="text;strokeColor=none;fillColor=none;align=left;verticalAlign=top;spacingLeft=4;spacingRight=4;overflow=hidden;rotatable=0;points=[[0,0.5],[1,0.5]];portConstraint=eastwest;whiteSpace=wrap;html=1;" vertex="1" parent="Rb8oramXEoIXRpVr2t3h-296">
          <mxGeometry y="56" width="160" height="26" as="geometry" />
        </mxCell>
        <mxCell id="Rb8oramXEoIXRpVr2t3h-302" value="- _keyToChange: string" style="text;strokeColor=none;fillColor=none;align=left;verticalAlign=top;spacingLeft=4;spacingRight=4;overflow=hidden;rotatable=0;points=[[0,0.5],[1,0.5]];portConstraint=eastwest;whiteSpace=wrap;html=1;" vertex="1" parent="Rb8oramXEoIXRpVr2t3h-296">
          <mxGeometry y="82" width="160" height="26" as="geometry" />
        </mxCell>
        <mxCell id="Rb8oramXEoIXRpVr2t3h-303" value="- _invalidKeyWarning: bool" style="text;strokeColor=none;fillColor=none;align=left;verticalAlign=top;spacingLeft=4;spacingRight=4;overflow=hidden;rotatable=0;points=[[0,0.5],[1,0.5]];portConstraint=eastwest;whiteSpace=wrap;html=1;" vertex="1" parent="Rb8oramXEoIXRpVr2t3h-296">
          <mxGeometry y="108" width="160" height="26" as="geometry" />
        </mxCell>
        <mxCell id="Rb8oramXEoIXRpVr2t3h-298" value="" style="line;strokeWidth=1;fillColor=none;align=left;verticalAlign=middle;spacingTop=-1;spacingLeft=3;spacingRight=3;rotatable=0;labelPosition=right;points=[];portConstraint=eastwest;strokeColor=inherit;" vertex="1" parent="Rb8oramXEoIXRpVr2t3h-296">
          <mxGeometry y="134" width="160" height="8" as="geometry" />
        </mxCell>
        <mxCell id="Rb8oramXEoIXRpVr2t3h-299" value="+ SettingScene()" style="text;strokeColor=none;fillColor=none;align=left;verticalAlign=top;spacingLeft=4;spacingRight=4;overflow=hidden;rotatable=0;points=[[0,0.5],[1,0.5]];portConstraint=eastwest;whiteSpace=wrap;html=1;" vertex="1" parent="Rb8oramXEoIXRpVr2t3h-296">
          <mxGeometry y="142" width="160" height="36" as="geometry" />
        </mxCell>
        <mxCell id="Rb8oramXEoIXRpVr2t3h-304" value="- InvalidKeyWarning: bool &amp;lt;&amp;lt;property&amp;gt;&amp;gt;" style="text;strokeColor=none;fillColor=none;align=left;verticalAlign=top;spacingLeft=4;spacingRight=4;overflow=hidden;rotatable=0;points=[[0,0.5],[1,0.5]];portConstraint=eastwest;whiteSpace=wrap;html=1;" vertex="1" parent="Rb8oramXEoIXRpVr2t3h-296">
          <mxGeometry y="178" width="160" height="39" as="geometry" />
        </mxCell>
        <mxCell id="Rb8oramXEoIXRpVr2t3h-305" value="- KeyToChange: string &amp;lt;&amp;lt;property&amp;gt;&amp;gt;" style="text;strokeColor=none;fillColor=none;align=left;verticalAlign=top;spacingLeft=4;spacingRight=4;overflow=hidden;rotatable=0;points=[[0,0.5],[1,0.5]];portConstraint=eastwest;whiteSpace=wrap;html=1;" vertex="1" parent="Rb8oramXEoIXRpVr2t3h-296">
          <mxGeometry y="217" width="160" height="49" as="geometry" />
        </mxCell>
        <mxCell id="Rb8oramXEoIXRpVr2t3h-300" value="+ Update() &amp;lt;&amp;lt; override &amp;gt;&amp;gt;" style="text;strokeColor=none;fillColor=none;align=left;verticalAlign=top;spacingLeft=4;spacingRight=4;overflow=hidden;rotatable=0;points=[[0,0.5],[1,0.5]];portConstraint=eastwest;whiteSpace=wrap;html=1;" vertex="1" parent="Rb8oramXEoIXRpVr2t3h-296">
          <mxGeometry y="266" width="160" height="26" as="geometry" />
        </mxCell>
        <mxCell id="Rb8oramXEoIXRpVr2t3h-301" value="+ Draw() &amp;lt;&amp;lt; override &amp;gt;&amp;gt;" style="text;strokeColor=none;fillColor=none;align=left;verticalAlign=top;spacingLeft=4;spacingRight=4;overflow=hidden;rotatable=0;points=[[0,0.5],[1,0.5]];portConstraint=eastwest;whiteSpace=wrap;html=1;" vertex="1" parent="Rb8oramXEoIXRpVr2t3h-296">
          <mxGeometry y="292" width="160" height="26" as="geometry" />
        </mxCell>
        <mxCell id="Rb8oramXEoIXRpVr2t3h-308" value="InstructionScene" style="swimlane;fontStyle=1;align=center;verticalAlign=top;childLayout=stackLayout;horizontal=1;startSize=30;horizontalStack=0;resizeParent=1;resizeParentMax=0;resizeLast=0;collapsible=1;marginBottom=0;whiteSpace=wrap;html=1;" vertex="1" parent="1">
          <mxGeometry x="360" y="-637" width="230" height="399" as="geometry">
            <mxRectangle x="-140" y="-461" width="130" height="30" as="alternateBounds" />
          </mxGeometry>
        </mxCell>
        <mxCell id="Rb8oramXEoIXRpVr2t3h-309" value="- _backgroundMusic: Music" style="text;strokeColor=none;fillColor=none;align=left;verticalAlign=top;spacingLeft=4;spacingRight=4;overflow=hidden;rotatable=0;points=[[0,0.5],[1,0.5]];portConstraint=eastwest;whiteSpace=wrap;html=1;" vertex="1" parent="Rb8oramXEoIXRpVr2t3h-308">
          <mxGeometry y="30" width="230" height="26" as="geometry" />
        </mxCell>
        <mxCell id="Rb8oramXEoIXRpVr2t3h-310" value="- _timer: Timer" style="text;strokeColor=none;fillColor=none;align=left;verticalAlign=top;spacingLeft=4;spacingRight=4;overflow=hidden;rotatable=0;points=[[0,0.5],[1,0.5]];portConstraint=eastwest;whiteSpace=wrap;html=1;" vertex="1" parent="Rb8oramXEoIXRpVr2t3h-308">
          <mxGeometry y="56" width="230" height="26" as="geometry" />
        </mxCell>
        <mxCell id="Rb8oramXEoIXRpVr2t3h-311" value="- _stage: uint" style="text;strokeColor=none;fillColor=none;align=left;verticalAlign=top;spacingLeft=4;spacingRight=4;overflow=hidden;rotatable=0;points=[[0,0.5],[1,0.5]];portConstraint=eastwest;whiteSpace=wrap;html=1;" vertex="1" parent="Rb8oramXEoIXRpVr2t3h-308">
          <mxGeometry y="82" width="230" height="26" as="geometry" />
        </mxCell>
        <mxCell id="Rb8oramXEoIXRpVr2t3h-312" value="- _mainBoard: GameBoard" style="text;strokeColor=none;fillColor=none;align=left;verticalAlign=top;spacingLeft=4;spacingRight=4;overflow=hidden;rotatable=0;points=[[0,0.5],[1,0.5]];portConstraint=eastwest;whiteSpace=wrap;html=1;" vertex="1" parent="Rb8oramXEoIXRpVr2t3h-308">
          <mxGeometry y="108" width="230" height="26" as="geometry" />
        </mxCell>
        <mxCell id="Rb8oramXEoIXRpVr2t3h-319" value="- _nextBoard: GameBoard" style="text;strokeColor=none;fillColor=none;align=left;verticalAlign=top;spacingLeft=4;spacingRight=4;overflow=hidden;rotatable=0;points=[[0,0.5],[1,0.5]];portConstraint=eastwest;whiteSpace=wrap;html=1;" vertex="1" parent="Rb8oramXEoIXRpVr2t3h-308">
          <mxGeometry y="134" width="230" height="26" as="geometry" />
        </mxCell>
        <mxCell id="Rb8oramXEoIXRpVr2t3h-320" value="- _blocksCtrl: BlocksController" style="text;strokeColor=none;fillColor=none;align=left;verticalAlign=top;spacingLeft=4;spacingRight=4;overflow=hidden;rotatable=0;points=[[0,0.5],[1,0.5]];portConstraint=eastwest;whiteSpace=wrap;html=1;" vertex="1" parent="Rb8oramXEoIXRpVr2t3h-308">
          <mxGeometry y="160" width="230" height="26" as="geometry" />
        </mxCell>
        <mxCell id="Rb8oramXEoIXRpVr2t3h-321" value="- _exampleTetrominos: List&amp;lt;Tetromino&amp;gt;" style="text;strokeColor=none;fillColor=none;align=left;verticalAlign=top;spacingLeft=4;spacingRight=4;overflow=hidden;rotatable=0;points=[[0,0.5],[1,0.5]];portConstraint=eastwest;whiteSpace=wrap;html=1;" vertex="1" parent="Rb8oramXEoIXRpVr2t3h-308">
          <mxGeometry y="186" width="230" height="26" as="geometry" />
        </mxCell>
        <mxCell id="Rb8oramXEoIXRpVr2t3h-322" value="- _saveSprite: Sprite" style="text;strokeColor=none;fillColor=none;align=left;verticalAlign=top;spacingLeft=4;spacingRight=4;overflow=hidden;rotatable=0;points=[[0,0.5],[1,0.5]];portConstraint=eastwest;whiteSpace=wrap;html=1;" vertex="1" parent="Rb8oramXEoIXRpVr2t3h-308">
          <mxGeometry y="212" width="230" height="26" as="geometry" />
        </mxCell>
        <mxCell id="Rb8oramXEoIXRpVr2t3h-323" value="- _loadSprite: Sprite" style="text;strokeColor=none;fillColor=none;align=left;verticalAlign=top;spacingLeft=4;spacingRight=4;overflow=hidden;rotatable=0;points=[[0,0.5],[1,0.5]];portConstraint=eastwest;whiteSpace=wrap;html=1;" vertex="1" parent="Rb8oramXEoIXRpVr2t3h-308">
          <mxGeometry y="238" width="230" height="26" as="geometry" />
        </mxCell>
        <mxCell id="Rb8oramXEoIXRpVr2t3h-313" value="" style="line;strokeWidth=1;fillColor=none;align=left;verticalAlign=middle;spacingTop=-1;spacingLeft=3;spacingRight=3;rotatable=0;labelPosition=right;points=[];portConstraint=eastwest;strokeColor=inherit;" vertex="1" parent="Rb8oramXEoIXRpVr2t3h-308">
          <mxGeometry y="264" width="230" height="8" as="geometry" />
        </mxCell>
        <mxCell id="Rb8oramXEoIXRpVr2t3h-314" value="+ InstructionScene()" style="text;strokeColor=none;fillColor=none;align=left;verticalAlign=top;spacingLeft=4;spacingRight=4;overflow=hidden;rotatable=0;points=[[0,0.5],[1,0.5]];portConstraint=eastwest;whiteSpace=wrap;html=1;" vertex="1" parent="Rb8oramXEoIXRpVr2t3h-308">
          <mxGeometry y="272" width="230" height="36" as="geometry" />
        </mxCell>
        <mxCell id="Rb8oramXEoIXRpVr2t3h-315" value="-&amp;nbsp;DrawKeysInstruction(string instruction, int currentStage)" style="text;strokeColor=none;fillColor=none;align=left;verticalAlign=top;spacingLeft=4;spacingRight=4;overflow=hidden;rotatable=0;points=[[0,0.5],[1,0.5]];portConstraint=eastwest;whiteSpace=wrap;html=1;" vertex="1" parent="Rb8oramXEoIXRpVr2t3h-308">
          <mxGeometry y="308" width="230" height="39" as="geometry" />
        </mxCell>
        <mxCell id="Rb8oramXEoIXRpVr2t3h-317" value="+ Update() &amp;lt;&amp;lt; override &amp;gt;&amp;gt;" style="text;strokeColor=none;fillColor=none;align=left;verticalAlign=top;spacingLeft=4;spacingRight=4;overflow=hidden;rotatable=0;points=[[0,0.5],[1,0.5]];portConstraint=eastwest;whiteSpace=wrap;html=1;" vertex="1" parent="Rb8oramXEoIXRpVr2t3h-308">
          <mxGeometry y="347" width="230" height="26" as="geometry" />
        </mxCell>
        <mxCell id="Rb8oramXEoIXRpVr2t3h-318" value="+ Draw() &amp;lt;&amp;lt; override &amp;gt;&amp;gt;" style="text;strokeColor=none;fillColor=none;align=left;verticalAlign=top;spacingLeft=4;spacingRight=4;overflow=hidden;rotatable=0;points=[[0,0.5],[1,0.5]];portConstraint=eastwest;whiteSpace=wrap;html=1;" vertex="1" parent="Rb8oramXEoIXRpVr2t3h-308">
          <mxGeometry y="373" width="230" height="26" as="geometry" />
        </mxCell>
        <mxCell id="Rb8oramXEoIXRpVr2t3h-324" value="GameScene" style="swimlane;fontStyle=1;align=center;verticalAlign=top;childLayout=stackLayout;horizontal=1;startSize=30;horizontalStack=0;resizeParent=1;resizeParentMax=0;resizeLast=0;collapsible=1;marginBottom=0;whiteSpace=wrap;html=1;" vertex="1" parent="1">
          <mxGeometry x="400" y="-85" width="188" height="526" as="geometry">
            <mxRectangle x="-140" y="-30" width="100" height="30" as="alternateBounds" />
          </mxGeometry>
        </mxCell>
        <mxCell id="Rb8oramXEoIXRpVr2t3h-325" value="- _backgroundMusic: Music" style="text;strokeColor=none;fillColor=none;align=left;verticalAlign=top;spacingLeft=4;spacingRight=4;overflow=hidden;rotatable=0;points=[[0,0.5],[1,0.5]];portConstraint=eastwest;whiteSpace=wrap;html=1;" vertex="1" parent="Rb8oramXEoIXRpVr2t3h-324">
          <mxGeometry y="30" width="188" height="26" as="geometry" />
        </mxCell>
        <mxCell id="Rb8oramXEoIXRpVr2t3h-339" value="- _gameOverSE: SoundEffect" style="text;strokeColor=none;fillColor=none;align=left;verticalAlign=top;spacingLeft=4;spacingRight=4;overflow=hidden;rotatable=0;points=[[0,0.5],[1,0.5]];portConstraint=eastwest;whiteSpace=wrap;html=1;" vertex="1" parent="Rb8oramXEoIXRpVr2t3h-324">
          <mxGeometry y="56" width="188" height="26" as="geometry" />
        </mxCell>
        <mxCell id="Rb8oramXEoIXRpVr2t3h-326" value="- _defaultTimer: Timer" style="text;strokeColor=none;fillColor=none;align=left;verticalAlign=top;spacingLeft=4;spacingRight=4;overflow=hidden;rotatable=0;points=[[0,0.5],[1,0.5]];portConstraint=eastwest;whiteSpace=wrap;html=1;" vertex="1" parent="Rb8oramXEoIXRpVr2t3h-324">
          <mxGeometry y="82" width="188" height="26" as="geometry" />
        </mxCell>
        <mxCell id="Rb8oramXEoIXRpVr2t3h-328" value="- _mainBoard: GameBoard" style="text;strokeColor=none;fillColor=none;align=left;verticalAlign=top;spacingLeft=4;spacingRight=4;overflow=hidden;rotatable=0;points=[[0,0.5],[1,0.5]];portConstraint=eastwest;whiteSpace=wrap;html=1;" vertex="1" parent="Rb8oramXEoIXRpVr2t3h-324">
          <mxGeometry y="108" width="188" height="26" as="geometry" />
        </mxCell>
        <mxCell id="Rb8oramXEoIXRpVr2t3h-329" value="- _nextBoard: GameBoard" style="text;strokeColor=none;fillColor=none;align=left;verticalAlign=top;spacingLeft=4;spacingRight=4;overflow=hidden;rotatable=0;points=[[0,0.5],[1,0.5]];portConstraint=eastwest;whiteSpace=wrap;html=1;" vertex="1" parent="Rb8oramXEoIXRpVr2t3h-324">
          <mxGeometry y="134" width="188" height="26" as="geometry" />
        </mxCell>
        <mxCell id="Rb8oramXEoIXRpVr2t3h-330" value="- _blocksCtrl: BlocksController" style="text;strokeColor=none;fillColor=none;align=left;verticalAlign=top;spacingLeft=4;spacingRight=4;overflow=hidden;rotatable=0;points=[[0,0.5],[1,0.5]];portConstraint=eastwest;whiteSpace=wrap;html=1;" vertex="1" parent="Rb8oramXEoIXRpVr2t3h-324">
          <mxGeometry y="160" width="188" height="26" as="geometry" />
        </mxCell>
        <mxCell id="Rb8oramXEoIXRpVr2t3h-331" value="- _currentTetromino: Tetromino" style="text;strokeColor=none;fillColor=none;align=left;verticalAlign=top;spacingLeft=4;spacingRight=4;overflow=hidden;rotatable=0;points=[[0,0.5],[1,0.5]];portConstraint=eastwest;whiteSpace=wrap;html=1;" vertex="1" parent="Rb8oramXEoIXRpVr2t3h-324">
          <mxGeometry y="186" width="188" height="26" as="geometry" />
        </mxCell>
        <mxCell id="Rb8oramXEoIXRpVr2t3h-340" value="- _nextTetromino: Tetromino" style="text;strokeColor=none;fillColor=none;align=left;verticalAlign=top;spacingLeft=4;spacingRight=4;overflow=hidden;rotatable=0;points=[[0,0.5],[1,0.5]];portConstraint=eastwest;whiteSpace=wrap;html=1;" vertex="1" parent="Rb8oramXEoIXRpVr2t3h-324">
          <mxGeometry y="212" width="188" height="26" as="geometry" />
        </mxCell>
        <mxCell id="Rb8oramXEoIXRpVr2t3h-332" value="- _gameOver: bool" style="text;strokeColor=none;fillColor=none;align=left;verticalAlign=top;spacingLeft=4;spacingRight=4;overflow=hidden;rotatable=0;points=[[0,0.5],[1,0.5]];portConstraint=eastwest;whiteSpace=wrap;html=1;" vertex="1" parent="Rb8oramXEoIXRpVr2t3h-324">
          <mxGeometry y="238" width="188" height="26" as="geometry" />
        </mxCell>
        <mxCell id="Rb8oramXEoIXRpVr2t3h-333" value="- _timeOfSteps: uint" style="text;strokeColor=none;fillColor=none;align=left;verticalAlign=top;spacingLeft=4;spacingRight=4;overflow=hidden;rotatable=0;points=[[0,0.5],[1,0.5]];portConstraint=eastwest;whiteSpace=wrap;html=1;" vertex="1" parent="Rb8oramXEoIXRpVr2t3h-324">
          <mxGeometry y="264" width="188" height="26" as="geometry" />
        </mxCell>
        <mxCell id="Rb8oramXEoIXRpVr2t3h-341" value="- _lastUpdateTimer: uint" style="text;strokeColor=none;fillColor=none;align=left;verticalAlign=top;spacingLeft=4;spacingRight=4;overflow=hidden;rotatable=0;points=[[0,0.5],[1,0.5]];portConstraint=eastwest;whiteSpace=wrap;html=1;" vertex="1" parent="Rb8oramXEoIXRpVr2t3h-324">
          <mxGeometry y="290" width="188" height="26" as="geometry" />
        </mxCell>
        <mxCell id="Rb8oramXEoIXRpVr2t3h-342" value="- _playedTimer: uint" style="text;strokeColor=none;fillColor=none;align=left;verticalAlign=top;spacingLeft=4;spacingRight=4;overflow=hidden;rotatable=0;points=[[0,0.5],[1,0.5]];portConstraint=eastwest;whiteSpace=wrap;html=1;" vertex="1" parent="Rb8oramXEoIXRpVr2t3h-324">
          <mxGeometry y="316" width="188" height="26" as="geometry" />
        </mxCell>
        <mxCell id="Rb8oramXEoIXRpVr2t3h-343" value="- _wasMovedDown: uint" style="text;strokeColor=none;fillColor=none;align=left;verticalAlign=top;spacingLeft=4;spacingRight=4;overflow=hidden;rotatable=0;points=[[0,0.5],[1,0.5]];portConstraint=eastwest;whiteSpace=wrap;html=1;" vertex="1" parent="Rb8oramXEoIXRpVr2t3h-324">
          <mxGeometry y="342" width="188" height="26" as="geometry" />
        </mxCell>
        <mxCell id="Rb8oramXEoIXRpVr2t3h-334" value="" style="line;strokeWidth=1;fillColor=none;align=left;verticalAlign=middle;spacingTop=-1;spacingLeft=3;spacingRight=3;rotatable=0;labelPosition=right;points=[];portConstraint=eastwest;strokeColor=inherit;" vertex="1" parent="Rb8oramXEoIXRpVr2t3h-324">
          <mxGeometry y="368" width="188" height="8" as="geometry" />
        </mxCell>
        <mxCell id="Rb8oramXEoIXRpVr2t3h-335" value="+ GameScene()" style="text;strokeColor=none;fillColor=none;align=left;verticalAlign=top;spacingLeft=4;spacingRight=4;overflow=hidden;rotatable=0;points=[[0,0.5],[1,0.5]];portConstraint=eastwest;whiteSpace=wrap;html=1;" vertex="1" parent="Rb8oramXEoIXRpVr2t3h-324">
          <mxGeometry y="376" width="188" height="36" as="geometry" />
        </mxCell>
        <mxCell id="Rb8oramXEoIXRpVr2t3h-337" value="+ Update() &amp;lt;&amp;lt; override &amp;gt;&amp;gt;" style="text;strokeColor=none;fillColor=none;align=left;verticalAlign=top;spacingLeft=4;spacingRight=4;overflow=hidden;rotatable=0;points=[[0,0.5],[1,0.5]];portConstraint=eastwest;whiteSpace=wrap;html=1;" vertex="1" parent="Rb8oramXEoIXRpVr2t3h-324">
          <mxGeometry y="412" width="188" height="26" as="geometry" />
        </mxCell>
        <mxCell id="Rb8oramXEoIXRpVr2t3h-338" value="+ Draw() &amp;lt;&amp;lt; override &amp;gt;&amp;gt;" style="text;strokeColor=none;fillColor=none;align=left;verticalAlign=top;spacingLeft=4;spacingRight=4;overflow=hidden;rotatable=0;points=[[0,0.5],[1,0.5]];portConstraint=eastwest;whiteSpace=wrap;html=1;" vertex="1" parent="Rb8oramXEoIXRpVr2t3h-324">
          <mxGeometry y="438" width="188" height="36" as="geometry" />
        </mxCell>
        <mxCell id="Rb8oramXEoIXRpVr2t3h-344" value="+ Save()" style="text;strokeColor=none;fillColor=none;align=left;verticalAlign=top;spacingLeft=4;spacingRight=4;overflow=hidden;rotatable=0;points=[[0,0.5],[1,0.5]];portConstraint=eastwest;whiteSpace=wrap;html=1;" vertex="1" parent="Rb8oramXEoIXRpVr2t3h-324">
          <mxGeometry y="474" width="188" height="26" as="geometry" />
        </mxCell>
        <mxCell id="Rb8oramXEoIXRpVr2t3h-345" value="+ Load()" style="text;strokeColor=none;fillColor=none;align=left;verticalAlign=top;spacingLeft=4;spacingRight=4;overflow=hidden;rotatable=0;points=[[0,0.5],[1,0.5]];portConstraint=eastwest;whiteSpace=wrap;html=1;" vertex="1" parent="Rb8oramXEoIXRpVr2t3h-324">
          <mxGeometry y="500" width="188" height="26" as="geometry" />
        </mxCell>
        <mxCell id="Rb8oramXEoIXRpVr2t3h-346" value="EndingScene" style="swimlane;fontStyle=1;align=center;verticalAlign=top;childLayout=stackLayout;horizontal=1;startSize=34;horizontalStack=0;resizeParent=1;resizeParentMax=0;resizeLast=0;collapsible=1;marginBottom=0;whiteSpace=wrap;html=1;" vertex="1" parent="1">
          <mxGeometry x="113" y="-267" width="180" height="273" as="geometry">
            <mxRectangle x="190" y="-514" width="100" height="30" as="alternateBounds" />
          </mxGeometry>
        </mxCell>
        <mxCell id="Rb8oramXEoIXRpVr2t3h-347" value="- _backgroundMusic: Music" style="text;strokeColor=none;fillColor=none;align=left;verticalAlign=top;spacingLeft=4;spacingRight=4;overflow=hidden;rotatable=0;points=[[0,0.5],[1,0.5]];portConstraint=eastwest;whiteSpace=wrap;html=1;" vertex="1" parent="Rb8oramXEoIXRpVr2t3h-346">
          <mxGeometry y="34" width="180" height="26" as="geometry" />
        </mxCell>
        <mxCell id="Rb8oramXEoIXRpVr2t3h-348" value="- _handPoint: Sprite" style="text;strokeColor=none;fillColor=none;align=left;verticalAlign=top;spacingLeft=4;spacingRight=4;overflow=hidden;rotatable=0;points=[[0,0.5],[1,0.5]];portConstraint=eastwest;whiteSpace=wrap;html=1;" vertex="1" parent="Rb8oramXEoIXRpVr2t3h-346">
          <mxGeometry y="60" width="180" height="26" as="geometry" />
        </mxCell>
        <mxCell id="Rb8oramXEoIXRpVr2t3h-349" value="- _previousPlayedTime: uint" style="text;strokeColor=none;fillColor=none;align=left;verticalAlign=top;spacingLeft=4;spacingRight=4;overflow=hidden;rotatable=0;points=[[0,0.5],[1,0.5]];portConstraint=eastwest;whiteSpace=wrap;html=1;" vertex="1" parent="Rb8oramXEoIXRpVr2t3h-346">
          <mxGeometry y="86" width="180" height="26" as="geometry" />
        </mxCell>
        <mxCell id="Rb8oramXEoIXRpVr2t3h-350" value="- _previousScore: uint" style="text;strokeColor=none;fillColor=none;align=left;verticalAlign=top;spacingLeft=4;spacingRight=4;overflow=hidden;rotatable=0;points=[[0,0.5],[1,0.5]];portConstraint=eastwest;whiteSpace=wrap;html=1;" vertex="1" parent="Rb8oramXEoIXRpVr2t3h-346">
          <mxGeometry y="112" width="180" height="26" as="geometry" />
        </mxCell>
        <mxCell id="Rb8oramXEoIXRpVr2t3h-351" value="" style="line;strokeWidth=1;fillColor=none;align=left;verticalAlign=middle;spacingTop=-1;spacingLeft=3;spacingRight=3;rotatable=0;labelPosition=right;points=[];portConstraint=eastwest;strokeColor=inherit;" vertex="1" parent="Rb8oramXEoIXRpVr2t3h-346">
          <mxGeometry y="138" width="180" height="8" as="geometry" />
        </mxCell>
        <mxCell id="Rb8oramXEoIXRpVr2t3h-357" value="+&amp;nbsp;EndingScene()" style="text;strokeColor=none;fillColor=none;align=left;verticalAlign=top;spacingLeft=4;spacingRight=4;overflow=hidden;rotatable=0;points=[[0,0.5],[1,0.5]];portConstraint=eastwest;whiteSpace=wrap;html=1;" vertex="1" parent="Rb8oramXEoIXRpVr2t3h-346">
          <mxGeometry y="146" width="180" height="26" as="geometry" />
        </mxCell>
        <mxCell id="Rb8oramXEoIXRpVr2t3h-352" value="+&amp;nbsp;EndingScene(&lt;br&gt;uint playedTime, uint score)" style="text;strokeColor=none;fillColor=none;align=left;verticalAlign=top;spacingLeft=4;spacingRight=4;overflow=hidden;rotatable=0;points=[[0,0.5],[1,0.5]];portConstraint=eastwest;whiteSpace=wrap;html=1;" vertex="1" parent="Rb8oramXEoIXRpVr2t3h-346">
          <mxGeometry y="172" width="180" height="49" as="geometry" />
        </mxCell>
        <mxCell id="Rb8oramXEoIXRpVr2t3h-355" value="+ Update() &amp;lt;&amp;lt; override &amp;gt;&amp;gt;" style="text;strokeColor=none;fillColor=none;align=left;verticalAlign=top;spacingLeft=4;spacingRight=4;overflow=hidden;rotatable=0;points=[[0,0.5],[1,0.5]];portConstraint=eastwest;whiteSpace=wrap;html=1;" vertex="1" parent="Rb8oramXEoIXRpVr2t3h-346">
          <mxGeometry y="221" width="180" height="26" as="geometry" />
        </mxCell>
        <mxCell id="Rb8oramXEoIXRpVr2t3h-356" value="+ Draw() &amp;lt;&amp;lt; override &amp;gt;&amp;gt;" style="text;strokeColor=none;fillColor=none;align=left;verticalAlign=top;spacingLeft=4;spacingRight=4;overflow=hidden;rotatable=0;points=[[0,0.5],[1,0.5]];portConstraint=eastwest;whiteSpace=wrap;html=1;" vertex="1" parent="Rb8oramXEoIXRpVr2t3h-346">
          <mxGeometry y="247" width="180" height="26" as="geometry" />
        </mxCell>
        <mxCell id="Rb8oramXEoIXRpVr2t3h-358" value="ResultScene" style="swimlane;fontStyle=1;align=center;verticalAlign=top;childLayout=stackLayout;horizontal=1;startSize=30;horizontalStack=0;resizeParent=1;resizeParentMax=0;resizeLast=0;collapsible=1;marginBottom=0;whiteSpace=wrap;html=1;" vertex="1" parent="1">
          <mxGeometry x="113" y="65" width="170" height="380" as="geometry">
            <mxRectangle x="170" y="-160" width="100" height="30" as="alternateBounds" />
          </mxGeometry>
        </mxCell>
        <mxCell id="Rb8oramXEoIXRpVr2t3h-359" value="- _backgroundMusic: Music" style="text;strokeColor=none;fillColor=none;align=left;verticalAlign=top;spacingLeft=4;spacingRight=4;overflow=hidden;rotatable=0;points=[[0,0.5],[1,0.5]];portConstraint=eastwest;whiteSpace=wrap;html=1;" vertex="1" parent="Rb8oramXEoIXRpVr2t3h-358">
          <mxGeometry y="30" width="170" height="26" as="geometry" />
        </mxCell>
        <mxCell id="Rb8oramXEoIXRpVr2t3h-360" value="- _filterBy: string" style="text;strokeColor=none;fillColor=none;align=left;verticalAlign=top;spacingLeft=4;spacingRight=4;overflow=hidden;rotatable=0;points=[[0,0.5],[1,0.5]];portConstraint=eastwest;whiteSpace=wrap;html=1;" vertex="1" parent="Rb8oramXEoIXRpVr2t3h-358">
          <mxGeometry y="56" width="170" height="26" as="geometry" />
        </mxCell>
        <mxCell id="Rb8oramXEoIXRpVr2t3h-361" value="- _sortBy: string" style="text;strokeColor=none;fillColor=none;align=left;verticalAlign=top;spacingLeft=4;spacingRight=4;overflow=hidden;rotatable=0;points=[[0,0.5],[1,0.5]];portConstraint=eastwest;whiteSpace=wrap;html=1;" vertex="1" parent="Rb8oramXEoIXRpVr2t3h-358">
          <mxGeometry y="82" width="170" height="26" as="geometry" />
        </mxCell>
        <mxCell id="Rb8oramXEoIXRpVr2t3h-362" value="- _sortUp: bool" style="text;strokeColor=none;fillColor=none;align=left;verticalAlign=top;spacingLeft=4;spacingRight=4;overflow=hidden;rotatable=0;points=[[0,0.5],[1,0.5]];portConstraint=eastwest;whiteSpace=wrap;html=1;" vertex="1" parent="Rb8oramXEoIXRpVr2t3h-358">
          <mxGeometry y="108" width="170" height="36" as="geometry" />
        </mxCell>
        <mxCell id="Rb8oramXEoIXRpVr2t3h-369" value="- _results: List&amp;lt;Result&amp;gt;" style="text;strokeColor=none;fillColor=none;align=left;verticalAlign=top;spacingLeft=4;spacingRight=4;overflow=hidden;rotatable=0;points=[[0,0.5],[1,0.5]];portConstraint=eastwest;whiteSpace=wrap;html=1;" vertex="1" parent="Rb8oramXEoIXRpVr2t3h-358">
          <mxGeometry y="144" width="170" height="26" as="geometry" />
        </mxCell>
        <mxCell id="Rb8oramXEoIXRpVr2t3h-363" value="" style="line;strokeWidth=1;fillColor=none;align=left;verticalAlign=middle;spacingTop=-1;spacingLeft=3;spacingRight=3;rotatable=0;labelPosition=right;points=[];portConstraint=eastwest;strokeColor=inherit;" vertex="1" parent="Rb8oramXEoIXRpVr2t3h-358">
          <mxGeometry y="170" width="170" height="8" as="geometry" />
        </mxCell>
        <mxCell id="Rb8oramXEoIXRpVr2t3h-364" value="+ ResultScene()" style="text;strokeColor=none;fillColor=none;align=left;verticalAlign=top;spacingLeft=4;spacingRight=4;overflow=hidden;rotatable=0;points=[[0,0.5],[1,0.5]];portConstraint=eastwest;whiteSpace=wrap;html=1;" vertex="1" parent="Rb8oramXEoIXRpVr2t3h-358">
          <mxGeometry y="178" width="170" height="36" as="geometry" />
        </mxCell>
        <mxCell id="Rb8oramXEoIXRpVr2t3h-367" value="+ Update() &amp;lt;&amp;lt; override &amp;gt;&amp;gt;" style="text;strokeColor=none;fillColor=none;align=left;verticalAlign=top;spacingLeft=4;spacingRight=4;overflow=hidden;rotatable=0;points=[[0,0.5],[1,0.5]];portConstraint=eastwest;whiteSpace=wrap;html=1;" vertex="1" parent="Rb8oramXEoIXRpVr2t3h-358">
          <mxGeometry y="214" width="170" height="26" as="geometry" />
        </mxCell>
        <mxCell id="Rb8oramXEoIXRpVr2t3h-368" value="+ Draw() &amp;lt;&amp;lt; override &amp;gt;&amp;gt;" style="text;strokeColor=none;fillColor=none;align=left;verticalAlign=top;spacingLeft=4;spacingRight=4;overflow=hidden;rotatable=0;points=[[0,0.5],[1,0.5]];portConstraint=eastwest;whiteSpace=wrap;html=1;" vertex="1" parent="Rb8oramXEoIXRpVr2t3h-358">
          <mxGeometry y="240" width="170" height="36" as="geometry" />
        </mxCell>
        <mxCell id="Rb8oramXEoIXRpVr2t3h-366" value="-&amp;nbsp;CheckFilter()" style="text;strokeColor=none;fillColor=none;align=left;verticalAlign=top;spacingLeft=4;spacingRight=4;overflow=hidden;rotatable=0;points=[[0,0.5],[1,0.5]];portConstraint=eastwest;whiteSpace=wrap;html=1;" vertex="1" parent="Rb8oramXEoIXRpVr2t3h-358">
          <mxGeometry y="276" width="170" height="26" as="geometry" />
        </mxCell>
        <mxCell id="Rb8oramXEoIXRpVr2t3h-370" value="-&amp;nbsp;Filter(LevelType levelType)" style="text;strokeColor=none;fillColor=none;align=left;verticalAlign=top;spacingLeft=4;spacingRight=4;overflow=hidden;rotatable=0;points=[[0,0.5],[1,0.5]];portConstraint=eastwest;whiteSpace=wrap;html=1;" vertex="1" parent="Rb8oramXEoIXRpVr2t3h-358">
          <mxGeometry y="302" width="170" height="26" as="geometry" />
        </mxCell>
        <mxCell id="Rb8oramXEoIXRpVr2t3h-371" value="-&amp;nbsp;CheckSort()" style="text;strokeColor=none;fillColor=none;align=left;verticalAlign=top;spacingLeft=4;spacingRight=4;overflow=hidden;rotatable=0;points=[[0,0.5],[1,0.5]];portConstraint=eastwest;whiteSpace=wrap;html=1;" vertex="1" parent="Rb8oramXEoIXRpVr2t3h-358">
          <mxGeometry y="328" width="170" height="26" as="geometry" />
        </mxCell>
        <mxCell id="Rb8oramXEoIXRpVr2t3h-372" value="- Sort()" style="text;strokeColor=none;fillColor=none;align=left;verticalAlign=top;spacingLeft=4;spacingRight=4;overflow=hidden;rotatable=0;points=[[0,0.5],[1,0.5]];portConstraint=eastwest;whiteSpace=wrap;html=1;" vertex="1" parent="Rb8oramXEoIXRpVr2t3h-358">
          <mxGeometry y="354" width="170" height="26" as="geometry" />
        </mxCell>
        <mxCell id="Rb8oramXEoIXRpVr2t3h-373" value="&amp;lt;&amp;lt;struct&amp;gt;&amp;gt;&lt;br&gt;&lt;b&gt;Result&lt;/b&gt;" style="swimlane;fontStyle=0;childLayout=stackLayout;horizontal=1;startSize=48;fillColor=none;horizontalStack=0;resizeParent=1;resizeParentMax=0;resizeLast=0;collapsible=1;marginBottom=0;whiteSpace=wrap;html=1;" vertex="1" parent="1">
          <mxGeometry x="128" y="520" width="140" height="178" as="geometry">
            <mxRectangle x="86" y="528" width="100" height="45" as="alternateBounds" />
          </mxGeometry>
        </mxCell>
        <mxCell id="Rb8oramXEoIXRpVr2t3h-374" value="+ ID: int" style="text;strokeColor=none;fillColor=none;align=left;verticalAlign=top;spacingLeft=4;spacingRight=4;overflow=hidden;rotatable=0;points=[[0,0.5],[1,0.5]];portConstraint=eastwest;whiteSpace=wrap;html=1;" vertex="1" parent="Rb8oramXEoIXRpVr2t3h-373">
          <mxGeometry y="48" width="140" height="26" as="geometry" />
        </mxCell>
        <mxCell id="Rb8oramXEoIXRpVr2t3h-375" value="+ Color: Color" style="text;strokeColor=none;fillColor=none;align=left;verticalAlign=top;spacingLeft=4;spacingRight=4;overflow=hidden;rotatable=0;points=[[0,0.5],[1,0.5]];portConstraint=eastwest;whiteSpace=wrap;html=1;" vertex="1" parent="Rb8oramXEoIXRpVr2t3h-373">
          <mxGeometry y="74" width="140" height="26" as="geometry" />
        </mxCell>
        <mxCell id="Rb8oramXEoIXRpVr2t3h-376" value="+ LevelType: LevelType" style="text;strokeColor=none;fillColor=none;align=left;verticalAlign=top;spacingLeft=4;spacingRight=4;overflow=hidden;rotatable=0;points=[[0,0.5],[1,0.5]];portConstraint=eastwest;whiteSpace=wrap;html=1;" vertex="1" parent="Rb8oramXEoIXRpVr2t3h-373">
          <mxGeometry y="100" width="140" height="26" as="geometry" />
        </mxCell>
        <mxCell id="Rb8oramXEoIXRpVr2t3h-381" value="+ PlayedTime: uint" style="text;strokeColor=none;fillColor=none;align=left;verticalAlign=top;spacingLeft=4;spacingRight=4;overflow=hidden;rotatable=0;points=[[0,0.5],[1,0.5]];portConstraint=eastwest;whiteSpace=wrap;html=1;" vertex="1" parent="Rb8oramXEoIXRpVr2t3h-373">
          <mxGeometry y="126" width="140" height="26" as="geometry" />
        </mxCell>
        <mxCell id="Rb8oramXEoIXRpVr2t3h-382" value="+ Score: uint" style="text;strokeColor=none;fillColor=none;align=left;verticalAlign=top;spacingLeft=4;spacingRight=4;overflow=hidden;rotatable=0;points=[[0,0.5],[1,0.5]];portConstraint=eastwest;whiteSpace=wrap;html=1;" vertex="1" parent="Rb8oramXEoIXRpVr2t3h-373">
          <mxGeometry y="152" width="140" height="26" as="geometry" />
        </mxCell>
        <mxCell id="Rb8oramXEoIXRpVr2t3h-383" value="&lt;span style=&quot;font-weight: normal;&quot;&gt;&amp;lt;&amp;lt;abstract&amp;gt;&amp;gt;&lt;/span&gt;&lt;br&gt;ObservableSubject" style="swimlane;fontStyle=1;align=center;verticalAlign=top;childLayout=stackLayout;horizontal=1;startSize=40;horizontalStack=0;resizeParent=1;resizeParentMax=0;resizeLast=0;collapsible=1;marginBottom=0;whiteSpace=wrap;html=1;" vertex="1" parent="1">
          <mxGeometry x="1140" y="-952.5" width="170" height="152" as="geometry">
            <mxRectangle x="1190" y="-837" width="150" height="40" as="alternateBounds" />
          </mxGeometry>
        </mxCell>
        <mxCell id="Rb8oramXEoIXRpVr2t3h-384" value="- _observers: List&amp;lt;IObserver&amp;gt;" style="text;strokeColor=none;fillColor=none;align=left;verticalAlign=top;spacingLeft=4;spacingRight=4;overflow=hidden;rotatable=0;points=[[0,0.5],[1,0.5]];portConstraint=eastwest;whiteSpace=wrap;html=1;" vertex="1" parent="Rb8oramXEoIXRpVr2t3h-383">
          <mxGeometry y="40" width="170" height="26" as="geometry" />
        </mxCell>
        <mxCell id="Rb8oramXEoIXRpVr2t3h-385" value="" style="line;strokeWidth=1;fillColor=none;align=left;verticalAlign=middle;spacingTop=-1;spacingLeft=3;spacingRight=3;rotatable=0;labelPosition=right;points=[];portConstraint=eastwest;strokeColor=inherit;" vertex="1" parent="Rb8oramXEoIXRpVr2t3h-383">
          <mxGeometry y="66" width="170" height="8" as="geometry" />
        </mxCell>
        <mxCell id="Rb8oramXEoIXRpVr2t3h-386" value="+ Notify()" style="text;strokeColor=none;fillColor=none;align=left;verticalAlign=top;spacingLeft=4;spacingRight=4;overflow=hidden;rotatable=0;points=[[0,0.5],[1,0.5]];portConstraint=eastwest;whiteSpace=wrap;html=1;" vertex="1" parent="Rb8oramXEoIXRpVr2t3h-383">
          <mxGeometry y="74" width="170" height="26" as="geometry" />
        </mxCell>
        <mxCell id="Rb8oramXEoIXRpVr2t3h-387" value="+ Attach(IObserver observer)" style="text;strokeColor=none;fillColor=none;align=left;verticalAlign=top;spacingLeft=4;spacingRight=4;overflow=hidden;rotatable=0;points=[[0,0.5],[1,0.5]];portConstraint=eastwest;whiteSpace=wrap;html=1;" vertex="1" parent="Rb8oramXEoIXRpVr2t3h-383">
          <mxGeometry y="100" width="170" height="26" as="geometry" />
        </mxCell>
        <mxCell id="Rb8oramXEoIXRpVr2t3h-388" value="+ Detach(IObserver observe)" style="text;strokeColor=none;fillColor=none;align=left;verticalAlign=top;spacingLeft=4;spacingRight=4;overflow=hidden;rotatable=0;points=[[0,0.5],[1,0.5]];portConstraint=eastwest;whiteSpace=wrap;html=1;" vertex="1" parent="Rb8oramXEoIXRpVr2t3h-383">
          <mxGeometry y="126" width="170" height="26" as="geometry" />
        </mxCell>
        <mxCell id="Rb8oramXEoIXRpVr2t3h-389" value="&lt;span style=&quot;font-weight: normal;&quot;&gt;&amp;lt;&amp;lt;interface&amp;gt;&amp;gt;&lt;/span&gt;&lt;br&gt;IObserver" style="swimlane;fontStyle=1;align=center;verticalAlign=top;childLayout=stackLayout;horizontal=1;startSize=40;horizontalStack=0;resizeParent=1;resizeParentMax=0;resizeLast=0;collapsible=1;marginBottom=0;whiteSpace=wrap;html=1;" vertex="1" parent="1">
          <mxGeometry x="1140" y="-720.5" width="170" height="74" as="geometry">
            <mxRectangle x="1210" y="-690" width="110" height="40" as="alternateBounds" />
          </mxGeometry>
        </mxCell>
        <mxCell id="Rb8oramXEoIXRpVr2t3h-391" value="" style="line;strokeWidth=1;fillColor=none;align=left;verticalAlign=middle;spacingTop=-1;spacingLeft=3;spacingRight=3;rotatable=0;labelPosition=right;points=[];portConstraint=eastwest;strokeColor=inherit;" vertex="1" parent="Rb8oramXEoIXRpVr2t3h-389">
          <mxGeometry y="40" width="170" height="8" as="geometry" />
        </mxCell>
        <mxCell id="Rb8oramXEoIXRpVr2t3h-392" value="+ OnNotify()" style="text;strokeColor=none;fillColor=none;align=left;verticalAlign=top;spacingLeft=4;spacingRight=4;overflow=hidden;rotatable=0;points=[[0,0.5],[1,0.5]];portConstraint=eastwest;whiteSpace=wrap;html=1;" vertex="1" parent="Rb8oramXEoIXRpVr2t3h-389">
          <mxGeometry y="48" width="170" height="26" as="geometry" />
        </mxCell>
        <mxCell id="Rb8oramXEoIXRpVr2t3h-393" value="&lt;span style=&quot;font-weight: normal;&quot;&gt;&amp;lt;&amp;lt; abstract &amp;gt;&amp;gt;&lt;/span&gt;&lt;br&gt;Button" style="swimlane;fontStyle=1;align=center;verticalAlign=top;childLayout=stackLayout;horizontal=1;startSize=40;horizontalStack=0;resizeParent=1;resizeParentMax=0;resizeLast=0;collapsible=1;marginBottom=0;whiteSpace=wrap;html=1;" vertex="1" parent="1">
          <mxGeometry x="-303" y="-1000" width="310" height="637" as="geometry">
            <mxRectangle x="-490" y="-1040" width="120" height="40" as="alternateBounds" />
          </mxGeometry>
        </mxCell>
        <mxCell id="Rb8oramXEoIXRpVr2t3h-411" value="-&amp;nbsp;_buttonClickSE: SoundEffect" style="text;strokeColor=none;fillColor=none;align=left;verticalAlign=top;spacingLeft=4;spacingRight=4;overflow=hidden;rotatable=0;points=[[0,0.5],[1,0.5]];portConstraint=eastwest;whiteSpace=wrap;html=1;" vertex="1" parent="Rb8oramXEoIXRpVr2t3h-393">
          <mxGeometry y="40" width="310" height="26" as="geometry" />
        </mxCell>
        <mxCell id="Rb8oramXEoIXRpVr2t3h-394" value="- _x: double" style="text;strokeColor=none;fillColor=none;align=left;verticalAlign=top;spacingLeft=4;spacingRight=4;overflow=hidden;rotatable=0;points=[[0,0.5],[1,0.5]];portConstraint=eastwest;whiteSpace=wrap;html=1;" vertex="1" parent="Rb8oramXEoIXRpVr2t3h-393">
          <mxGeometry y="66" width="310" height="26" as="geometry" />
        </mxCell>
        <mxCell id="Rb8oramXEoIXRpVr2t3h-395" value="- _y: double" style="text;strokeColor=none;fillColor=none;align=left;verticalAlign=top;spacingLeft=4;spacingRight=4;overflow=hidden;rotatable=0;points=[[0,0.5],[1,0.5]];portConstraint=eastwest;whiteSpace=wrap;html=1;" vertex="1" parent="Rb8oramXEoIXRpVr2t3h-393">
          <mxGeometry y="92" width="310" height="26" as="geometry" />
        </mxCell>
        <mxCell id="Rb8oramXEoIXRpVr2t3h-412" value="-&amp;nbsp;_isDisabled: bool" style="text;strokeColor=none;fillColor=none;align=left;verticalAlign=top;spacingLeft=4;spacingRight=4;overflow=hidden;rotatable=0;points=[[0,0.5],[1,0.5]];portConstraint=eastwest;whiteSpace=wrap;html=1;" vertex="1" parent="Rb8oramXEoIXRpVr2t3h-393">
          <mxGeometry y="118" width="310" height="26" as="geometry" />
        </mxCell>
        <mxCell id="Rb8oramXEoIXRpVr2t3h-396" value="- _btnColor: Color" style="text;strokeColor=none;fillColor=none;align=left;verticalAlign=top;spacingLeft=4;spacingRight=4;overflow=hidden;rotatable=0;points=[[0,0.5],[1,0.5]];portConstraint=eastwest;whiteSpace=wrap;html=1;" vertex="1" parent="Rb8oramXEoIXRpVr2t3h-393">
          <mxGeometry y="144" width="310" height="26" as="geometry" />
        </mxCell>
        <mxCell id="Rb8oramXEoIXRpVr2t3h-397" value="- _otlColor: Color" style="text;strokeColor=none;fillColor=none;align=left;verticalAlign=top;spacingLeft=4;spacingRight=4;overflow=hidden;rotatable=0;points=[[0,0.5],[1,0.5]];portConstraint=eastwest;whiteSpace=wrap;html=1;" vertex="1" parent="Rb8oramXEoIXRpVr2t3h-393">
          <mxGeometry y="170" width="310" height="26" as="geometry" />
        </mxCell>
        <mxCell id="Rb8oramXEoIXRpVr2t3h-398" value="- _btnBitmap: Bitmap" style="text;strokeColor=none;fillColor=none;align=left;verticalAlign=top;spacingLeft=4;spacingRight=4;overflow=hidden;rotatable=0;points=[[0,0.5],[1,0.5]];portConstraint=eastwest;whiteSpace=wrap;html=1;" vertex="1" parent="Rb8oramXEoIXRpVr2t3h-393">
          <mxGeometry y="196" width="310" height="26" as="geometry" />
        </mxCell>
        <mxCell id="Rb8oramXEoIXRpVr2t3h-399" value="- _btnSprite: Sprite" style="text;strokeColor=none;fillColor=none;align=left;verticalAlign=top;spacingLeft=4;spacingRight=4;overflow=hidden;rotatable=0;points=[[0,0.5],[1,0.5]];portConstraint=eastwest;whiteSpace=wrap;html=1;" vertex="1" parent="Rb8oramXEoIXRpVr2t3h-393">
          <mxGeometry y="222" width="310" height="26" as="geometry" />
        </mxCell>
        <mxCell id="Rb8oramXEoIXRpVr2t3h-400" value="" style="line;strokeWidth=1;fillColor=none;align=left;verticalAlign=middle;spacingTop=-1;spacingLeft=3;spacingRight=3;rotatable=0;labelPosition=right;points=[];portConstraint=eastwest;strokeColor=inherit;" vertex="1" parent="Rb8oramXEoIXRpVr2t3h-393">
          <mxGeometry y="248" width="310" height="8" as="geometry" />
        </mxCell>
        <mxCell id="Rb8oramXEoIXRpVr2t3h-401" value="+ Button(Color btnColor, Color otlColor, double x, double y, string bitmapName, string bitmapLocation)" style="text;strokeColor=none;fillColor=none;align=left;verticalAlign=top;spacingLeft=4;spacingRight=4;overflow=hidden;rotatable=0;points=[[0,0.5],[1,0.5]];portConstraint=eastwest;whiteSpace=wrap;html=1;" vertex="1" parent="Rb8oramXEoIXRpVr2t3h-393">
          <mxGeometry y="256" width="310" height="49" as="geometry" />
        </mxCell>
        <mxCell id="Rb8oramXEoIXRpVr2t3h-402" value="# X: double &amp;lt;&amp;lt; property &amp;gt;&amp;gt;" style="text;strokeColor=none;fillColor=none;align=left;verticalAlign=top;spacingLeft=4;spacingRight=4;overflow=hidden;rotatable=0;points=[[0,0.5],[1,0.5]];portConstraint=eastwest;whiteSpace=wrap;html=1;" vertex="1" parent="Rb8oramXEoIXRpVr2t3h-393">
          <mxGeometry y="305" width="310" height="26" as="geometry" />
        </mxCell>
        <mxCell id="Rb8oramXEoIXRpVr2t3h-403" value="# Y: double &amp;lt;&amp;lt; property &amp;gt;&amp;gt;" style="text;strokeColor=none;fillColor=none;align=left;verticalAlign=top;spacingLeft=4;spacingRight=4;overflow=hidden;rotatable=0;points=[[0,0.5],[1,0.5]];portConstraint=eastwest;whiteSpace=wrap;html=1;" vertex="1" parent="Rb8oramXEoIXRpVr2t3h-393">
          <mxGeometry y="331" width="310" height="26" as="geometry" />
        </mxCell>
        <mxCell id="Rb8oramXEoIXRpVr2t3h-404" value="# ButtonColor: Color &amp;lt;&amp;lt;read-only, property&amp;gt;&amp;gt;" style="text;strokeColor=none;fillColor=none;align=left;verticalAlign=top;spacingLeft=4;spacingRight=4;overflow=hidden;rotatable=0;points=[[0,0.5],[1,0.5]];portConstraint=eastwest;whiteSpace=wrap;html=1;" vertex="1" parent="Rb8oramXEoIXRpVr2t3h-393">
          <mxGeometry y="357" width="310" height="26" as="geometry" />
        </mxCell>
        <mxCell id="Rb8oramXEoIXRpVr2t3h-405" value="# OutlineColor: Color &amp;lt;&amp;lt;read-only, property&amp;gt;&amp;gt;" style="text;strokeColor=none;fillColor=none;align=left;verticalAlign=top;spacingLeft=4;spacingRight=4;overflow=hidden;rotatable=0;points=[[0,0.5],[1,0.5]];portConstraint=eastwest;whiteSpace=wrap;html=1;" vertex="1" parent="Rb8oramXEoIXRpVr2t3h-393">
          <mxGeometry y="383" width="310" height="26" as="geometry" />
        </mxCell>
        <mxCell id="Rb8oramXEoIXRpVr2t3h-406" value="+ ButtonSprite: Sprite &amp;lt;&amp;lt;read-only, property&amp;gt;&amp;gt;" style="text;strokeColor=none;fillColor=none;align=left;verticalAlign=top;spacingLeft=4;spacingRight=4;overflow=hidden;rotatable=0;points=[[0,0.5],[1,0.5]];portConstraint=eastwest;whiteSpace=wrap;html=1;" vertex="1" parent="Rb8oramXEoIXRpVr2t3h-393">
          <mxGeometry y="409" width="310" height="26" as="geometry" />
        </mxCell>
        <mxCell id="Rb8oramXEoIXRpVr2t3h-413" value="+ Name: string &amp;lt;&amp;lt;read-only, property&amp;gt;&amp;gt;" style="text;strokeColor=none;fillColor=none;align=left;verticalAlign=top;spacingLeft=4;spacingRight=4;overflow=hidden;rotatable=0;points=[[0,0.5],[1,0.5]];portConstraint=eastwest;whiteSpace=wrap;html=1;" vertex="1" parent="Rb8oramXEoIXRpVr2t3h-393">
          <mxGeometry y="435" width="310" height="36" as="geometry" />
        </mxCell>
        <mxCell id="Rb8oramXEoIXRpVr2t3h-415" value="+ IsDisabled: bool &amp;lt;&amp;lt; property &amp;gt;&amp;gt;" style="text;strokeColor=none;fillColor=none;align=left;verticalAlign=top;spacingLeft=4;spacingRight=4;overflow=hidden;rotatable=0;points=[[0,0.5],[1,0.5]];portConstraint=eastwest;whiteSpace=wrap;html=1;" vertex="1" parent="Rb8oramXEoIXRpVr2t3h-393">
          <mxGeometry y="471" width="310" height="26" as="geometry" />
        </mxCell>
        <mxCell id="Rb8oramXEoIXRpVr2t3h-408" value="+ IsClicked: bool &amp;lt;&amp;lt; read-only, property &amp;gt;&amp;gt;" style="text;strokeColor=none;fillColor=none;align=left;verticalAlign=top;spacingLeft=4;spacingRight=4;overflow=hidden;rotatable=0;points=[[0,0.5],[1,0.5]];portConstraint=eastwest;whiteSpace=wrap;html=1;" vertex="1" parent="Rb8oramXEoIXRpVr2t3h-393">
          <mxGeometry y="497" width="310" height="26" as="geometry" />
        </mxCell>
        <mxCell id="Rb8oramXEoIXRpVr2t3h-414" value="+ IsHoldDown: bool &amp;lt;&amp;lt; read-only, property &amp;gt;&amp;gt;" style="text;strokeColor=none;fillColor=none;align=left;verticalAlign=top;spacingLeft=4;spacingRight=4;overflow=hidden;rotatable=0;points=[[0,0.5],[1,0.5]];portConstraint=eastwest;whiteSpace=wrap;html=1;" vertex="1" parent="Rb8oramXEoIXRpVr2t3h-393">
          <mxGeometry y="523" width="310" height="26" as="geometry" />
        </mxCell>
        <mxCell id="Rb8oramXEoIXRpVr2t3h-407" value="# IsMouseHover: bool &amp;lt;&amp;lt;abstract, read-only, property&amp;gt;&amp;gt;" style="text;strokeColor=none;fillColor=none;align=left;verticalAlign=top;spacingLeft=4;spacingRight=4;overflow=hidden;rotatable=0;points=[[0,0.5],[1,0.5]];portConstraint=eastwest;whiteSpace=wrap;html=1;" vertex="1" parent="Rb8oramXEoIXRpVr2t3h-393">
          <mxGeometry y="549" width="310" height="36" as="geometry" />
        </mxCell>
        <mxCell id="Rb8oramXEoIXRpVr2t3h-409" value="+ Draw() &amp;lt;&amp;lt;abstract&amp;gt;&amp;gt;" style="text;strokeColor=none;fillColor=none;align=left;verticalAlign=top;spacingLeft=4;spacingRight=4;overflow=hidden;rotatable=0;points=[[0,0.5],[1,0.5]];portConstraint=eastwest;whiteSpace=wrap;html=1;" vertex="1" parent="Rb8oramXEoIXRpVr2t3h-393">
          <mxGeometry y="585" width="310" height="26" as="geometry" />
        </mxCell>
        <mxCell id="Rb8oramXEoIXRpVr2t3h-410" value="# DrawOutline() &amp;lt;&amp;lt;abstract&amp;gt;&amp;gt;" style="text;strokeColor=none;fillColor=none;align=left;verticalAlign=top;spacingLeft=4;spacingRight=4;overflow=hidden;rotatable=0;points=[[0,0.5],[1,0.5]];portConstraint=eastwest;whiteSpace=wrap;html=1;" vertex="1" parent="Rb8oramXEoIXRpVr2t3h-393">
          <mxGeometry y="611" width="310" height="26" as="geometry" />
        </mxCell>
        <mxCell id="Rb8oramXEoIXRpVr2t3h-416" value="ButtonRectangle" style="swimlane;fontStyle=1;align=center;verticalAlign=top;childLayout=stackLayout;horizontal=1;startSize=30;horizontalStack=0;resizeParent=1;resizeParentMax=0;resizeLast=0;collapsible=1;marginBottom=0;whiteSpace=wrap;html=1;" vertex="1" parent="1">
          <mxGeometry x="-741" y="-690" width="310" height="380" as="geometry">
            <mxRectangle x="-650" y="-760" width="140" height="30" as="alternateBounds" />
          </mxGeometry>
        </mxCell>
        <mxCell id="Rb8oramXEoIXRpVr2t3h-417" value="- _width: double" style="text;strokeColor=none;fillColor=none;align=left;verticalAlign=top;spacingLeft=4;spacingRight=4;overflow=hidden;rotatable=0;points=[[0,0.5],[1,0.5]];portConstraint=eastwest;whiteSpace=wrap;html=1;" vertex="1" parent="Rb8oramXEoIXRpVr2t3h-416">
          <mxGeometry y="30" width="310" height="26" as="geometry" />
        </mxCell>
        <mxCell id="Rb8oramXEoIXRpVr2t3h-418" value="- _height: double" style="text;strokeColor=none;fillColor=none;align=left;verticalAlign=top;spacingLeft=4;spacingRight=4;overflow=hidden;rotatable=0;points=[[0,0.5],[1,0.5]];portConstraint=eastwest;whiteSpace=wrap;html=1;" vertex="1" parent="Rb8oramXEoIXRpVr2t3h-416">
          <mxGeometry y="56" width="310" height="26" as="geometry" />
        </mxCell>
        <mxCell id="Rb8oramXEoIXRpVr2t3h-419" value="" style="line;strokeWidth=1;fillColor=none;align=left;verticalAlign=middle;spacingTop=-1;spacingLeft=3;spacingRight=3;rotatable=0;labelPosition=right;points=[];portConstraint=eastwest;strokeColor=inherit;" vertex="1" parent="Rb8oramXEoIXRpVr2t3h-416">
          <mxGeometry y="82" width="310" height="8" as="geometry" />
        </mxCell>
        <mxCell id="Rb8oramXEoIXRpVr2t3h-420" value="+ ButtonRectangle()" style="text;strokeColor=none;fillColor=none;align=left;verticalAlign=top;spacingLeft=4;spacingRight=4;overflow=hidden;rotatable=0;points=[[0,0.5],[1,0.5]];portConstraint=eastwest;whiteSpace=wrap;html=1;" vertex="1" parent="Rb8oramXEoIXRpVr2t3h-416">
          <mxGeometry y="90" width="310" height="26" as="geometry" />
        </mxCell>
        <mxCell id="Rb8oramXEoIXRpVr2t3h-421" value="+ ButtonRectangle(Color btnColor, Color otlColor, double x, double y, double width, double height, string bitmapName, string bitmapLocation" style="text;strokeColor=none;fillColor=none;align=left;verticalAlign=top;spacingLeft=4;spacingRight=4;overflow=hidden;rotatable=0;points=[[0,0.5],[1,0.5]];portConstraint=eastwest;whiteSpace=wrap;html=1;" vertex="1" parent="Rb8oramXEoIXRpVr2t3h-416">
          <mxGeometry y="116" width="310" height="62" as="geometry" />
        </mxCell>
        <mxCell id="Rb8oramXEoIXRpVr2t3h-422" value="- Width: double &amp;lt;&amp;lt; read-only, property &amp;gt;&amp;gt;" style="text;strokeColor=none;fillColor=none;align=left;verticalAlign=top;spacingLeft=4;spacingRight=4;overflow=hidden;rotatable=0;points=[[0,0.5],[1,0.5]];portConstraint=eastwest;whiteSpace=wrap;html=1;" vertex="1" parent="Rb8oramXEoIXRpVr2t3h-416">
          <mxGeometry y="178" width="310" height="26" as="geometry" />
        </mxCell>
        <mxCell id="Rb8oramXEoIXRpVr2t3h-423" value="- Height: double &amp;lt;&amp;lt; read-only, property &amp;gt;&amp;gt;" style="text;strokeColor=none;fillColor=none;align=left;verticalAlign=top;spacingLeft=4;spacingRight=4;overflow=hidden;rotatable=0;points=[[0,0.5],[1,0.5]];portConstraint=eastwest;whiteSpace=wrap;html=1;" vertex="1" parent="Rb8oramXEoIXRpVr2t3h-416">
          <mxGeometry y="204" width="310" height="26" as="geometry" />
        </mxCell>
        <mxCell id="Rb8oramXEoIXRpVr2t3h-426" value="# IsMouseHover: bool &amp;lt;&amp;lt;override, read-only, property&amp;gt;&amp;gt;" style="text;strokeColor=none;fillColor=none;align=left;verticalAlign=top;spacingLeft=4;spacingRight=4;overflow=hidden;rotatable=0;points=[[0,0.5],[1,0.5]];portConstraint=eastwest;whiteSpace=wrap;html=1;" vertex="1" parent="Rb8oramXEoIXRpVr2t3h-416">
          <mxGeometry y="230" width="310" height="36" as="geometry" />
        </mxCell>
        <mxCell id="Rb8oramXEoIXRpVr2t3h-424" value="- BtnRectangle: Rectangle &amp;lt;&amp;lt; read-only, property &amp;gt;&amp;gt;" style="text;strokeColor=none;fillColor=none;align=left;verticalAlign=top;spacingLeft=4;spacingRight=4;overflow=hidden;rotatable=0;points=[[0,0.5],[1,0.5]];portConstraint=eastwest;whiteSpace=wrap;html=1;" vertex="1" parent="Rb8oramXEoIXRpVr2t3h-416">
          <mxGeometry y="266" width="310" height="26" as="geometry" />
        </mxCell>
        <mxCell id="Rb8oramXEoIXRpVr2t3h-425" value="- OtlRectangle: Rectangle &amp;lt;&amp;lt; read-only, property &amp;gt;&amp;gt;" style="text;strokeColor=none;fillColor=none;align=left;verticalAlign=top;spacingLeft=4;spacingRight=4;overflow=hidden;rotatable=0;points=[[0,0.5],[1,0.5]];portConstraint=eastwest;whiteSpace=wrap;html=1;" vertex="1" parent="Rb8oramXEoIXRpVr2t3h-416">
          <mxGeometry y="292" width="310" height="36" as="geometry" />
        </mxCell>
        <mxCell id="Rb8oramXEoIXRpVr2t3h-427" value="+ Draw() &amp;lt;&amp;lt;override&amp;gt;&amp;gt;" style="text;strokeColor=none;fillColor=none;align=left;verticalAlign=top;spacingLeft=4;spacingRight=4;overflow=hidden;rotatable=0;points=[[0,0.5],[1,0.5]];portConstraint=eastwest;whiteSpace=wrap;html=1;" vertex="1" parent="Rb8oramXEoIXRpVr2t3h-416">
          <mxGeometry y="328" width="310" height="26" as="geometry" />
        </mxCell>
        <mxCell id="Rb8oramXEoIXRpVr2t3h-428" value="# DrawOutline() &amp;lt;&amp;lt;overried&amp;gt;&amp;gt;" style="text;strokeColor=none;fillColor=none;align=left;verticalAlign=top;spacingLeft=4;spacingRight=4;overflow=hidden;rotatable=0;points=[[0,0.5],[1,0.5]];portConstraint=eastwest;whiteSpace=wrap;html=1;" vertex="1" parent="Rb8oramXEoIXRpVr2t3h-416">
          <mxGeometry y="354" width="310" height="26" as="geometry" />
        </mxCell>
        <mxCell id="Rb8oramXEoIXRpVr2t3h-429" value="ButtonCircle" style="swimlane;fontStyle=1;align=center;verticalAlign=top;childLayout=stackLayout;horizontal=1;startSize=40;horizontalStack=0;resizeParent=1;resizeParentMax=0;resizeLast=0;collapsible=1;marginBottom=0;whiteSpace=wrap;html=1;" vertex="1" parent="1">
          <mxGeometry x="-741" y="-1064" width="310" height="338" as="geometry">
            <mxRectangle x="-780" y="-1090" width="110" height="30" as="alternateBounds" />
          </mxGeometry>
        </mxCell>
        <mxCell id="Rb8oramXEoIXRpVr2t3h-430" value="- _radius: double" style="text;strokeColor=none;fillColor=none;align=left;verticalAlign=top;spacingLeft=4;spacingRight=4;overflow=hidden;rotatable=0;points=[[0,0.5],[1,0.5]];portConstraint=eastwest;whiteSpace=wrap;html=1;" vertex="1" parent="Rb8oramXEoIXRpVr2t3h-429">
          <mxGeometry y="40" width="310" height="20" as="geometry" />
        </mxCell>
        <mxCell id="Rb8oramXEoIXRpVr2t3h-431" value="" style="line;strokeWidth=1;fillColor=none;align=left;verticalAlign=middle;spacingTop=-1;spacingLeft=3;spacingRight=3;rotatable=0;labelPosition=right;points=[];portConstraint=eastwest;strokeColor=inherit;" vertex="1" parent="Rb8oramXEoIXRpVr2t3h-429">
          <mxGeometry y="60" width="310" height="14" as="geometry" />
        </mxCell>
        <mxCell id="Rb8oramXEoIXRpVr2t3h-432" value="+ ButtonCircle()" style="text;strokeColor=none;fillColor=none;align=left;verticalAlign=top;spacingLeft=4;spacingRight=4;overflow=hidden;rotatable=0;points=[[0,0.5],[1,0.5]];portConstraint=eastwest;whiteSpace=wrap;html=1;" vertex="1" parent="Rb8oramXEoIXRpVr2t3h-429">
          <mxGeometry y="74" width="310" height="26" as="geometry" />
        </mxCell>
        <mxCell id="Rb8oramXEoIXRpVr2t3h-433" value="+ ButtonCircle(Color btnColor, Color otlColor, double x, double y, double radius, string bitmapName, string bitmapLocation" style="text;strokeColor=none;fillColor=none;align=left;verticalAlign=top;spacingLeft=4;spacingRight=4;overflow=hidden;rotatable=0;points=[[0,0.5],[1,0.5]];portConstraint=eastwest;whiteSpace=wrap;html=1;" vertex="1" parent="Rb8oramXEoIXRpVr2t3h-429">
          <mxGeometry y="100" width="310" height="62" as="geometry" />
        </mxCell>
        <mxCell id="Rb8oramXEoIXRpVr2t3h-434" value="- Radius: double &amp;lt;&amp;lt; read-only, property &amp;gt;&amp;gt;" style="text;strokeColor=none;fillColor=none;align=left;verticalAlign=top;spacingLeft=4;spacingRight=4;overflow=hidden;rotatable=0;points=[[0,0.5],[1,0.5]];portConstraint=eastwest;whiteSpace=wrap;html=1;" vertex="1" parent="Rb8oramXEoIXRpVr2t3h-429">
          <mxGeometry y="162" width="310" height="26" as="geometry" />
        </mxCell>
        <mxCell id="Rb8oramXEoIXRpVr2t3h-437" value="# IsMouseHover: bool &amp;lt;&amp;lt;override, read-only, property&amp;gt;&amp;gt;" style="text;strokeColor=none;fillColor=none;align=left;verticalAlign=top;spacingLeft=4;spacingRight=4;overflow=hidden;rotatable=0;points=[[0,0.5],[1,0.5]];portConstraint=eastwest;whiteSpace=wrap;html=1;" vertex="1" parent="Rb8oramXEoIXRpVr2t3h-429">
          <mxGeometry y="188" width="310" height="36" as="geometry" />
        </mxCell>
        <mxCell id="Rb8oramXEoIXRpVr2t3h-435" value="- BtnCircle: Circle&amp;lt;&amp;lt; read-only, property &amp;gt;&amp;gt;" style="text;strokeColor=none;fillColor=none;align=left;verticalAlign=top;spacingLeft=4;spacingRight=4;overflow=hidden;rotatable=0;points=[[0,0.5],[1,0.5]];portConstraint=eastwest;whiteSpace=wrap;html=1;" vertex="1" parent="Rb8oramXEoIXRpVr2t3h-429">
          <mxGeometry y="224" width="310" height="26" as="geometry" />
        </mxCell>
        <mxCell id="Rb8oramXEoIXRpVr2t3h-436" value="- OtlCircle: Circle&amp;lt;&amp;lt; read-only, property &amp;gt;&amp;gt;" style="text;strokeColor=none;fillColor=none;align=left;verticalAlign=top;spacingLeft=4;spacingRight=4;overflow=hidden;rotatable=0;points=[[0,0.5],[1,0.5]];portConstraint=eastwest;whiteSpace=wrap;html=1;" vertex="1" parent="Rb8oramXEoIXRpVr2t3h-429">
          <mxGeometry y="250" width="310" height="36" as="geometry" />
        </mxCell>
        <mxCell id="Rb8oramXEoIXRpVr2t3h-438" value="+ Draw() &amp;lt;&amp;lt;override&amp;gt;&amp;gt;" style="text;strokeColor=none;fillColor=none;align=left;verticalAlign=top;spacingLeft=4;spacingRight=4;overflow=hidden;rotatable=0;points=[[0,0.5],[1,0.5]];portConstraint=eastwest;whiteSpace=wrap;html=1;" vertex="1" parent="Rb8oramXEoIXRpVr2t3h-429">
          <mxGeometry y="286" width="310" height="26" as="geometry" />
        </mxCell>
        <mxCell id="Rb8oramXEoIXRpVr2t3h-439" value="# DrawOutline() &amp;lt;&amp;lt;overried&amp;gt;&amp;gt;" style="text;strokeColor=none;fillColor=none;align=left;verticalAlign=top;spacingLeft=4;spacingRight=4;overflow=hidden;rotatable=0;points=[[0,0.5],[1,0.5]];portConstraint=eastwest;whiteSpace=wrap;html=1;" vertex="1" parent="Rb8oramXEoIXRpVr2t3h-429">
          <mxGeometry y="312" width="310" height="26" as="geometry" />
        </mxCell>
        <mxCell id="Rb8oramXEoIXRpVr2t3h-440" value="ButtonFunctionObserver" style="swimlane;fontStyle=1;align=center;verticalAlign=top;childLayout=stackLayout;horizontal=1;startSize=30;horizontalStack=0;resizeParent=1;resizeParentMax=0;resizeLast=0;collapsible=1;marginBottom=0;whiteSpace=wrap;html=1;" vertex="1" parent="1">
          <mxGeometry x="1385" y="-759.5" width="240" height="152" as="geometry">
            <mxRectangle x="1430" y="-655" width="170" height="30" as="alternateBounds" />
          </mxGeometry>
        </mxCell>
        <mxCell id="Rb8oramXEoIXRpVr2t3h-441" value="- _scene: Scene" style="text;strokeColor=none;fillColor=none;align=left;verticalAlign=top;spacingLeft=4;spacingRight=4;overflow=hidden;rotatable=0;points=[[0,0.5],[1,0.5]];portConstraint=eastwest;whiteSpace=wrap;html=1;" vertex="1" parent="Rb8oramXEoIXRpVr2t3h-440">
          <mxGeometry y="30" width="240" height="26" as="geometry" />
        </mxCell>
        <mxCell id="Rb8oramXEoIXRpVr2t3h-442" value="" style="line;strokeWidth=1;fillColor=none;align=left;verticalAlign=middle;spacingTop=-1;spacingLeft=3;spacingRight=3;rotatable=0;labelPosition=right;points=[];portConstraint=eastwest;strokeColor=inherit;" vertex="1" parent="Rb8oramXEoIXRpVr2t3h-440">
          <mxGeometry y="56" width="240" height="8" as="geometry" />
        </mxCell>
        <mxCell id="Rb8oramXEoIXRpVr2t3h-443" value="+&amp;nbsp;ButtonFunctionObserver(Scene scene)" style="text;strokeColor=none;fillColor=none;align=left;verticalAlign=top;spacingLeft=4;spacingRight=4;overflow=hidden;rotatable=0;points=[[0,0.5],[1,0.5]];portConstraint=eastwest;whiteSpace=wrap;html=1;" vertex="1" parent="Rb8oramXEoIXRpVr2t3h-440">
          <mxGeometry y="64" width="240" height="36" as="geometry" />
        </mxCell>
        <mxCell id="Rb8oramXEoIXRpVr2t3h-444" value="+ OnNotify()" style="text;strokeColor=none;fillColor=none;align=left;verticalAlign=top;spacingLeft=4;spacingRight=4;overflow=hidden;rotatable=0;points=[[0,0.5],[1,0.5]];portConstraint=eastwest;whiteSpace=wrap;html=1;" vertex="1" parent="Rb8oramXEoIXRpVr2t3h-440">
          <mxGeometry y="100" width="240" height="26" as="geometry" />
        </mxCell>
        <mxCell id="Rb8oramXEoIXRpVr2t3h-445" value="+&amp;nbsp;CheckButtonClicked(string buttonName)" style="text;strokeColor=none;fillColor=none;align=left;verticalAlign=top;spacingLeft=4;spacingRight=4;overflow=hidden;rotatable=0;points=[[0,0.5],[1,0.5]];portConstraint=eastwest;whiteSpace=wrap;html=1;" vertex="1" parent="Rb8oramXEoIXRpVr2t3h-440">
          <mxGeometry y="126" width="240" height="26" as="geometry" />
        </mxCell>
        <mxCell id="Rb8oramXEoIXRpVr2t3h-446" value="&lt;span style=&quot;font-weight: normal;&quot;&gt;&amp;lt;&amp;lt;singleton&amp;gt;&amp;gt;&lt;/span&gt;&lt;br&gt;AudioManager" style="swimlane;fontStyle=1;align=center;verticalAlign=top;childLayout=stackLayout;horizontal=1;startSize=45;horizontalStack=0;resizeParent=1;resizeParentMax=0;resizeLast=0;collapsible=1;marginBottom=0;whiteSpace=wrap;html=1;" vertex="1" parent="1">
          <mxGeometry x="-380" y="-160" width="260" height="327" as="geometry">
            <mxRectangle x="-320" y="-63" width="120" height="45" as="alternateBounds" />
          </mxGeometry>
        </mxCell>
        <mxCell id="Rb8oramXEoIXRpVr2t3h-447" value="- _instance: AudioManager" style="text;strokeColor=none;fillColor=none;align=left;verticalAlign=top;spacingLeft=4;spacingRight=4;overflow=hidden;rotatable=0;points=[[0,0.5],[1,0.5]];portConstraint=eastwest;whiteSpace=wrap;html=1;" vertex="1" parent="Rb8oramXEoIXRpVr2t3h-446">
          <mxGeometry y="45" width="260" height="36" as="geometry" />
        </mxCell>
        <mxCell id="Rb8oramXEoIXRpVr2t3h-458" value="- _soundEffectsVolume: float" style="text;strokeColor=none;fillColor=none;align=left;verticalAlign=top;spacingLeft=4;spacingRight=4;overflow=hidden;rotatable=0;points=[[0,0.5],[1,0.5]];portConstraint=eastwest;whiteSpace=wrap;html=1;" vertex="1" parent="Rb8oramXEoIXRpVr2t3h-446">
          <mxGeometry y="81" width="260" height="26" as="geometry" />
        </mxCell>
        <mxCell id="Rb8oramXEoIXRpVr2t3h-482" value="- _backgroundMusicsVolume: float" style="text;strokeColor=none;fillColor=none;align=left;verticalAlign=top;spacingLeft=4;spacingRight=4;overflow=hidden;rotatable=0;points=[[0,0.5],[1,0.5]];portConstraint=eastwest;whiteSpace=wrap;html=1;" vertex="1" parent="Rb8oramXEoIXRpVr2t3h-446">
          <mxGeometry y="107" width="260" height="26" as="geometry" />
        </mxCell>
        <mxCell id="Rb8oramXEoIXRpVr2t3h-459" value="" style="line;strokeWidth=1;fillColor=none;align=left;verticalAlign=middle;spacingTop=-1;spacingLeft=3;spacingRight=3;rotatable=0;labelPosition=right;points=[];portConstraint=eastwest;strokeColor=inherit;" vertex="1" parent="Rb8oramXEoIXRpVr2t3h-446">
          <mxGeometry y="133" width="260" height="8" as="geometry" />
        </mxCell>
        <mxCell id="Rb8oramXEoIXRpVr2t3h-460" value="- AudioManager()" style="text;strokeColor=none;fillColor=none;align=left;verticalAlign=top;spacingLeft=4;spacingRight=4;overflow=hidden;rotatable=0;points=[[0,0.5],[1,0.5]];portConstraint=eastwest;whiteSpace=wrap;html=1;" vertex="1" parent="Rb8oramXEoIXRpVr2t3h-446">
          <mxGeometry y="141" width="260" height="36" as="geometry" />
        </mxCell>
        <mxCell id="Rb8oramXEoIXRpVr2t3h-461" value="+ Instance: AudioManager &amp;lt;&amp;lt; property &amp;gt;&amp;gt;" style="text;strokeColor=none;fillColor=none;align=left;verticalAlign=top;spacingLeft=4;spacingRight=4;overflow=hidden;rotatable=0;points=[[0,0.5],[1,0.5]];portConstraint=eastwest;whiteSpace=wrap;html=1;" vertex="1" parent="Rb8oramXEoIXRpVr2t3h-446">
          <mxGeometry y="177" width="260" height="36" as="geometry" />
        </mxCell>
        <mxCell id="Rb8oramXEoIXRpVr2t3h-467" value="+ SoundVolume: float &amp;lt;&amp;lt;readonly, property&amp;gt;&amp;gt;" style="text;strokeColor=none;fillColor=none;align=left;verticalAlign=top;spacingLeft=4;spacingRight=4;overflow=hidden;rotatable=0;points=[[0,0.5],[1,0.5]];portConstraint=eastwest;whiteSpace=wrap;html=1;" vertex="1" parent="Rb8oramXEoIXRpVr2t3h-446">
          <mxGeometry y="213" width="260" height="26" as="geometry" />
        </mxCell>
        <mxCell id="Rb8oramXEoIXRpVr2t3h-468" value="+ MusicVolume: float &amp;lt;&amp;lt;readonly, property&amp;gt;&amp;gt;" style="text;strokeColor=none;fillColor=none;align=left;verticalAlign=top;spacingLeft=4;spacingRight=4;overflow=hidden;rotatable=0;points=[[0,0.5],[1,0.5]];portConstraint=eastwest;whiteSpace=wrap;html=1;" vertex="1" parent="Rb8oramXEoIXRpVr2t3h-446">
          <mxGeometry y="239" width="260" height="36" as="geometry" />
        </mxCell>
        <mxCell id="Rb8oramXEoIXRpVr2t3h-479" value="+ SaveResults()" style="text;strokeColor=none;fillColor=none;align=left;verticalAlign=top;spacingLeft=4;spacingRight=4;overflow=hidden;rotatable=0;points=[[0,0.5],[1,0.5]];portConstraint=eastwest;whiteSpace=wrap;html=1;" vertex="1" parent="Rb8oramXEoIXRpVr2t3h-446">
          <mxGeometry y="275" width="260" height="26" as="geometry" />
        </mxCell>
        <mxCell id="Rb8oramXEoIXRpVr2t3h-480" value="+ LoadResults()" style="text;strokeColor=none;fillColor=none;align=left;verticalAlign=top;spacingLeft=4;spacingRight=4;overflow=hidden;rotatable=0;points=[[0,0.5],[1,0.5]];portConstraint=eastwest;whiteSpace=wrap;html=1;" vertex="1" parent="Rb8oramXEoIXRpVr2t3h-446">
          <mxGeometry y="301" width="260" height="26" as="geometry" />
        </mxCell>
        <mxCell id="Rb8oramXEoIXRpVr2t3h-484" value="&amp;lt;&amp;lt;enumeration&amp;gt;&amp;gt;&lt;br&gt;&lt;b&gt;LevelType&lt;/b&gt;" style="swimlane;fontStyle=0;childLayout=stackLayout;horizontal=1;startSize=48;fillColor=none;horizontalStack=0;resizeParent=1;resizeParentMax=0;resizeLast=0;collapsible=1;marginBottom=0;whiteSpace=wrap;html=1;" vertex="1" parent="1">
          <mxGeometry x="-602" y="820" width="100" height="126" as="geometry">
            <mxRectangle x="-840" y="-358" width="100" height="48" as="alternateBounds" />
          </mxGeometry>
        </mxCell>
        <mxCell id="Rb8oramXEoIXRpVr2t3h-485" value="Hard = 1" style="text;strokeColor=none;fillColor=none;align=left;verticalAlign=top;spacingLeft=4;spacingRight=4;overflow=hidden;rotatable=0;points=[[0,0.5],[1,0.5]];portConstraint=eastwest;whiteSpace=wrap;html=1;" vertex="1" parent="Rb8oramXEoIXRpVr2t3h-484">
          <mxGeometry y="48" width="100" height="26" as="geometry" />
        </mxCell>
        <mxCell id="Rb8oramXEoIXRpVr2t3h-486" value="Normal = 2" style="text;strokeColor=none;fillColor=none;align=left;verticalAlign=top;spacingLeft=4;spacingRight=4;overflow=hidden;rotatable=0;points=[[0,0.5],[1,0.5]];portConstraint=eastwest;whiteSpace=wrap;html=1;" vertex="1" parent="Rb8oramXEoIXRpVr2t3h-484">
          <mxGeometry y="74" width="100" height="26" as="geometry" />
        </mxCell>
        <mxCell id="Rb8oramXEoIXRpVr2t3h-487" value="Easy = 3" style="text;strokeColor=none;fillColor=none;align=left;verticalAlign=top;spacingLeft=4;spacingRight=4;overflow=hidden;rotatable=0;points=[[0,0.5],[1,0.5]];portConstraint=eastwest;whiteSpace=wrap;html=1;" vertex="1" parent="Rb8oramXEoIXRpVr2t3h-484">
          <mxGeometry y="100" width="100" height="26" as="geometry" />
        </mxCell>
        <mxCell id="Rb8oramXEoIXRpVr2t3h-489" value="Use" style="endArrow=open;endSize=12;dashed=1;html=1;rounded=0;" edge="1" parent="1" source="Rb8oramXEoIXRpVr2t3h-2" target="Rb8oramXEoIXRpVr2t3h-484">
          <mxGeometry width="160" relative="1" as="geometry">
            <mxPoint x="-404" y="-105" as="sourcePoint" />
            <mxPoint x="-244" y="-105" as="targetPoint" />
          </mxGeometry>
        </mxCell>
        <mxCell id="Rb8oramXEoIXRpVr2t3h-490" value="" style="endArrow=open;endFill=1;endSize=12;html=1;rounded=0;entryX=-0.007;entryY=0.079;entryDx=0;entryDy=0;entryPerimeter=0;" edge="1" parent="1" source="Rb8oramXEoIXRpVr2t3h-2" target="Rb8oramXEoIXRpVr2t3h-272">
          <mxGeometry width="160" relative="1" as="geometry">
            <mxPoint x="-267" y="-245.95" as="sourcePoint" />
            <mxPoint x="-202" y="-245.95" as="targetPoint" />
            <Array as="points">
              <mxPoint x="-370" y="-248" />
            </Array>
          </mxGeometry>
        </mxCell>
        <mxCell id="Rb8oramXEoIXRpVr2t3h-494" value="" style="endArrow=block;endFill=0;endSize=12;html=1;rounded=0;exitX=0.766;exitY=0.429;exitDx=0;exitDy=0;exitPerimeter=0;" edge="1" parent="1" source="Rb8oramXEoIXRpVr2t3h-500" target="Rb8oramXEoIXRpVr2t3h-272">
          <mxGeometry width="160" relative="1" as="geometry">
            <mxPoint x="72" y="-143" as="sourcePoint" />
            <mxPoint x="866" y="-70" as="targetPoint" />
          </mxGeometry>
        </mxCell>
        <mxCell id="Rb8oramXEoIXRpVr2t3h-500" value="" style="line;strokeWidth=1;fillColor=none;align=left;verticalAlign=middle;spacingTop=-1;spacingLeft=3;spacingRight=3;rotatable=0;labelPosition=right;points=[];portConstraint=eastwest;strokeColor=inherit;direction=south;" vertex="1" parent="1">
          <mxGeometry x="86" y="-875" width="8" height="954" as="geometry" />
        </mxCell>
        <mxCell id="Rb8oramXEoIXRpVr2t3h-501" value="" style="line;strokeWidth=1;fillColor=none;align=left;verticalAlign=middle;spacingTop=-1;spacingLeft=3;spacingRight=3;rotatable=0;labelPosition=right;points=[];portConstraint=eastwest;strokeColor=inherit;" vertex="1" parent="1">
          <mxGeometry x="90" y="74.5" width="23" height="8" as="geometry" />
        </mxCell>
        <mxCell id="Rb8oramXEoIXRpVr2t3h-502" value="" style="line;strokeWidth=1;fillColor=none;align=left;verticalAlign=middle;spacingTop=-1;spacingLeft=3;spacingRight=3;rotatable=0;labelPosition=right;points=[];portConstraint=eastwest;strokeColor=inherit;" vertex="1" parent="1">
          <mxGeometry x="90" y="-264" width="23" height="8" as="geometry" />
        </mxCell>
        <mxCell id="Rb8oramXEoIXRpVr2t3h-503" value="" style="line;strokeWidth=1;fillColor=none;align=left;verticalAlign=middle;spacingTop=-1;spacingLeft=3;spacingRight=3;rotatable=0;labelPosition=right;points=[];portConstraint=eastwest;strokeColor=inherit;" vertex="1" parent="1">
          <mxGeometry x="90" y="-625" width="23" height="8" as="geometry" />
        </mxCell>
        <mxCell id="Rb8oramXEoIXRpVr2t3h-504" value="" style="line;strokeWidth=1;fillColor=none;align=left;verticalAlign=middle;spacingTop=-1;spacingLeft=3;spacingRight=3;rotatable=0;labelPosition=right;points=[];portConstraint=eastwest;strokeColor=inherit;" vertex="1" parent="1">
          <mxGeometry x="90" y="-879" width="23" height="8" as="geometry" />
        </mxCell>
        <mxCell id="Rb8oramXEoIXRpVr2t3h-505" value="" style="line;strokeWidth=1;fillColor=none;align=left;verticalAlign=middle;spacingTop=-1;spacingLeft=3;spacingRight=3;rotatable=0;labelPosition=right;points=[];portConstraint=eastwest;strokeColor=inherit;" vertex="1" parent="1">
          <mxGeometry x="90" y="-297" width="270" height="8" as="geometry" />
        </mxCell>
        <mxCell id="Rb8oramXEoIXRpVr2t3h-506" value="" style="line;strokeWidth=1;fillColor=none;align=left;verticalAlign=middle;spacingTop=-1;spacingLeft=3;spacingRight=3;rotatable=0;labelPosition=right;points=[];portConstraint=eastwest;strokeColor=inherit;" vertex="1" parent="1">
          <mxGeometry x="90" y="29" width="312" height="8" as="geometry" />
        </mxCell>
        <mxCell id="Rb8oramXEoIXRpVr2t3h-508" value="Use" style="endArrow=open;endSize=12;dashed=1;html=1;rounded=0;" edge="1" parent="1" source="Rb8oramXEoIXRpVr2t3h-281" target="Rb8oramXEoIXRpVr2t3h-272">
          <mxGeometry width="160" relative="1" as="geometry">
            <mxPoint x="-536.5" y="135" as="sourcePoint" />
            <mxPoint x="-597.5" y="56" as="targetPoint" />
          </mxGeometry>
        </mxCell>
        <mxCell id="Rb8oramXEoIXRpVr2t3h-509" value="" style="endArrow=open;endFill=1;endSize=12;html=1;rounded=0;" edge="1" parent="1" source="Rb8oramXEoIXRpVr2t3h-2" target="Rb8oramXEoIXRpVr2t3h-281">
          <mxGeometry width="160" relative="1" as="geometry">
            <mxPoint x="-144" y="32" as="sourcePoint" />
            <mxPoint x="-108" y="85" as="targetPoint" />
          </mxGeometry>
        </mxCell>
        <mxCell id="Rb8oramXEoIXRpVr2t3h-510" value="Use" style="endArrow=open;endSize=12;dashed=1;html=1;rounded=0;" edge="1" parent="1" source="Rb8oramXEoIXRpVr2t3h-1" target="Rb8oramXEoIXRpVr2t3h-2">
          <mxGeometry x="-0.348" width="160" relative="1" as="geometry">
            <mxPoint x="-454" y="52" as="sourcePoint" />
            <mxPoint x="-515" y="-27" as="targetPoint" />
            <Array as="points" />
            <mxPoint as="offset" />
          </mxGeometry>
        </mxCell>
        <mxCell id="Rb8oramXEoIXRpVr2t3h-511" value="" style="endArrow=diamondThin;endFill=0;endSize=24;html=1;rounded=0;" edge="1" parent="1" source="Rb8oramXEoIXRpVr2t3h-393" target="Rb8oramXEoIXRpVr2t3h-272">
          <mxGeometry width="160" relative="1" as="geometry">
            <mxPoint x="-108" y="-365" as="sourcePoint" />
            <mxPoint x="-108" y="-515" as="targetPoint" />
          </mxGeometry>
        </mxCell>
        <mxCell id="Rb8oramXEoIXRpVr2t3h-513" value="" style="endArrow=block;endFill=0;endSize=12;html=1;rounded=0;" edge="1" parent="1" source="Rb8oramXEoIXRpVr2t3h-429" target="Rb8oramXEoIXRpVr2t3h-393">
          <mxGeometry width="160" relative="1" as="geometry">
            <mxPoint x="-400" y="-741" as="sourcePoint" />
            <mxPoint x="-410" y="-651" as="targetPoint" />
            <Array as="points">
              <mxPoint x="-370" y="-895" />
              <mxPoint x="-370" y="-680" />
            </Array>
          </mxGeometry>
        </mxCell>
        <mxCell id="Rb8oramXEoIXRpVr2t3h-514" value="" style="endArrow=block;endFill=0;endSize=12;html=1;rounded=0;" edge="1" parent="1" source="Rb8oramXEoIXRpVr2t3h-416" target="Rb8oramXEoIXRpVr2t3h-393">
          <mxGeometry width="160" relative="1" as="geometry">
            <mxPoint x="-390" y="-731" as="sourcePoint" />
            <mxPoint x="-460" y="-823" as="targetPoint" />
            <Array as="points">
              <mxPoint x="-370" y="-500" />
              <mxPoint x="-370" y="-680" />
            </Array>
          </mxGeometry>
        </mxCell>
        <mxCell id="Rb8oramXEoIXRpVr2t3h-517" value="" style="endArrow=open;endFill=1;endSize=12;html=1;rounded=0;" edge="1" parent="1" source="Rb8oramXEoIXRpVr2t3h-324" target="Rb8oramXEoIXRpVr2t3h-125">
          <mxGeometry width="160" relative="1" as="geometry">
            <mxPoint x="-157" y="42" as="sourcePoint" />
            <mxPoint x="-108" y="-24" as="targetPoint" />
          </mxGeometry>
        </mxCell>
        <mxCell id="Rb8oramXEoIXRpVr2t3h-519" value="" style="endArrow=diamondThin;endFill=0;endSize=24;html=1;rounded=0;" edge="1" parent="1" source="Rb8oramXEoIXRpVr2t3h-248" target="Rb8oramXEoIXRpVr2t3h-125">
          <mxGeometry width="160" relative="1" as="geometry">
            <mxPoint x="-73" y="-353" as="sourcePoint" />
            <mxPoint x="-54" y="-258" as="targetPoint" />
          </mxGeometry>
        </mxCell>
        <mxCell id="Rb8oramXEoIXRpVr2t3h-520" value="" style="endArrow=diamondThin;endFill=0;endSize=24;html=1;rounded=0;" edge="1" parent="1" source="Rb8oramXEoIXRpVr2t3h-248" target="Rb8oramXEoIXRpVr2t3h-228">
          <mxGeometry width="160" relative="1" as="geometry">
            <mxPoint x="642" y="596" as="sourcePoint" />
            <mxPoint x="440" y="437.13330078125" as="targetPoint" />
          </mxGeometry>
        </mxCell>
        <mxCell id="Rb8oramXEoIXRpVr2t3h-523" value="" style="endArrow=open;endFill=1;endSize=12;html=1;rounded=0;" edge="1" parent="1" source="Rb8oramXEoIXRpVr2t3h-308" target="Rb8oramXEoIXRpVr2t3h-125">
          <mxGeometry width="160" relative="1" as="geometry">
            <mxPoint x="642" y="314" as="sourcePoint" />
            <mxPoint x="714" y="391" as="targetPoint" />
            <Array as="points">
              <mxPoint x="680" y="-80" />
            </Array>
          </mxGeometry>
        </mxCell>
        <mxCell id="Rb8oramXEoIXRpVr2t3h-524" value="" style="endArrow=open;endFill=1;endSize=12;html=1;rounded=0;" edge="1" parent="1" source="Rb8oramXEoIXRpVr2t3h-324" target="Rb8oramXEoIXRpVr2t3h-228">
          <mxGeometry width="160" relative="1" as="geometry">
            <mxPoint x="599" y="-228" as="sourcePoint" />
            <mxPoint x="714" y="92" as="targetPoint" />
          </mxGeometry>
        </mxCell>
        <mxCell id="Rb8oramXEoIXRpVr2t3h-525" value="" style="endArrow=open;endFill=1;endSize=12;html=1;rounded=0;" edge="1" parent="1" source="Rb8oramXEoIXRpVr2t3h-308" target="Rb8oramXEoIXRpVr2t3h-228">
          <mxGeometry width="160" relative="1" as="geometry">
            <mxPoint x="600" y="95" as="sourcePoint" />
            <mxPoint x="790" y="-96" as="targetPoint" />
            <Array as="points">
              <mxPoint x="660" y="-440" />
              <mxPoint x="660" y="-217" />
            </Array>
          </mxGeometry>
        </mxCell>
        <mxCell id="Rb8oramXEoIXRpVr2t3h-526" value="" style="endArrow=open;endFill=1;endSize=12;html=1;rounded=0;" edge="1" parent="1" source="Rb8oramXEoIXRpVr2t3h-308" target="Rb8oramXEoIXRpVr2t3h-80">
          <mxGeometry width="160" relative="1" as="geometry">
            <mxPoint x="642" y="-367" as="sourcePoint" />
            <mxPoint x="790" y="-289" as="targetPoint" />
            <Array as="points">
              <mxPoint x="475" y="-817" />
            </Array>
          </mxGeometry>
        </mxCell>
        <mxCell id="Rb8oramXEoIXRpVr2t3h-527" value="" style="endArrow=open;endFill=1;endSize=12;html=1;rounded=0;" edge="1" parent="1" source="Rb8oramXEoIXRpVr2t3h-324" target="Rb8oramXEoIXRpVr2t3h-80">
          <mxGeometry width="160" relative="1" as="geometry">
            <mxPoint x="642" y="-542" as="sourcePoint" />
            <mxPoint x="727" y="-627" as="targetPoint" />
          </mxGeometry>
        </mxCell>
        <mxCell id="Rb8oramXEoIXRpVr2t3h-528" value="" style="endArrow=diamondThin;endFill=0;endSize=24;html=1;rounded=0;" edge="1" parent="1" source="Rb8oramXEoIXRpVr2t3h-373" target="Rb8oramXEoIXRpVr2t3h-358">
          <mxGeometry width="160" relative="1" as="geometry">
            <mxPoint x="1155" y="83" as="sourcePoint" />
            <mxPoint x="380" y="550" as="targetPoint" />
          </mxGeometry>
        </mxCell>
        <mxCell id="Rb8oramXEoIXRpVr2t3h-529" value="" style="endArrow=diamondThin;endFill=0;endSize=24;html=1;rounded=0;" edge="1" parent="1" source="Rb8oramXEoIXRpVr2t3h-373" target="Rb8oramXEoIXRpVr2t3h-2">
          <mxGeometry width="160" relative="1" as="geometry">
            <mxPoint x="208" y="550" as="sourcePoint" />
            <mxPoint x="208" y="455" as="targetPoint" />
            <Array as="points" />
          </mxGeometry>
        </mxCell>
        <mxCell id="Rb8oramXEoIXRpVr2t3h-531" value="Use" style="endArrow=open;endSize=12;dashed=1;html=1;rounded=0;" edge="1" parent="1" source="Rb8oramXEoIXRpVr2t3h-125" target="Rb8oramXEoIXRpVr2t3h-222">
          <mxGeometry width="160" relative="1" as="geometry">
            <mxPoint x="753" y="210" as="sourcePoint" />
            <mxPoint x="660" y="213" as="targetPoint" />
          </mxGeometry>
        </mxCell>
        <mxCell id="Rb8oramXEoIXRpVr2t3h-532" value="Use" style="endArrow=open;endSize=12;dashed=1;html=1;rounded=0;" edge="1" parent="1" source="Rb8oramXEoIXRpVr2t3h-248" target="Rb8oramXEoIXRpVr2t3h-222">
          <mxGeometry width="160" relative="1" as="geometry">
            <mxPoint x="1066" y="432" as="sourcePoint" />
            <mxPoint x="1256" y="305" as="targetPoint" />
          </mxGeometry>
        </mxCell>
        <mxCell id="Rb8oramXEoIXRpVr2t3h-534" value="Use" style="endArrow=open;endSize=12;dashed=1;html=1;rounded=0;" edge="1" parent="1" source="Rb8oramXEoIXRpVr2t3h-272" target="Rb8oramXEoIXRpVr2t3h-446">
          <mxGeometry width="160" relative="1" as="geometry">
            <mxPoint x="-10" y="193" as="sourcePoint" />
            <mxPoint x="-10" y="-8" as="targetPoint" />
            <Array as="points">
              <mxPoint x="-100" y="-210" />
              <mxPoint x="-250" y="-210" />
            </Array>
          </mxGeometry>
        </mxCell>
        <mxCell id="Rb8oramXEoIXRpVr2t3h-535" value="Use" style="endArrow=open;endSize=12;dashed=1;html=1;rounded=0;" edge="1" parent="1" source="Rb8oramXEoIXRpVr2t3h-324" target="Rb8oramXEoIXRpVr2t3h-91">
          <mxGeometry width="160" relative="1" as="geometry">
            <mxPoint x="-542" y="767" as="sourcePoint" />
            <mxPoint x="-542" y="830" as="targetPoint" />
          </mxGeometry>
        </mxCell>
        <mxCell id="Rb8oramXEoIXRpVr2t3h-536" value="Use" style="endArrow=open;endSize=12;dashed=1;html=1;rounded=0;" edge="1" parent="1" source="Rb8oramXEoIXRpVr2t3h-446" target="Rb8oramXEoIXRpVr2t3h-91">
          <mxGeometry width="160" relative="1" as="geometry">
            <mxPoint x="502" y="451" as="sourcePoint" />
            <mxPoint x="501" y="540" as="targetPoint" />
            <Array as="points">
              <mxPoint x="-250" y="790" />
              <mxPoint x="490" y="790" />
            </Array>
          </mxGeometry>
        </mxCell>
        <mxCell id="Rb8oramXEoIXRpVr2t3h-538" value="" style="endArrow=diamondThin;endFill=0;endSize=24;html=1;rounded=0;" edge="1" parent="1" source="Rb8oramXEoIXRpVr2t3h-389" target="Rb8oramXEoIXRpVr2t3h-383">
          <mxGeometry width="160" relative="1" as="geometry">
            <mxPoint x="1032" y="-847.5" as="sourcePoint" />
            <mxPoint x="1032" y="-905.5" as="targetPoint" />
          </mxGeometry>
        </mxCell>
        <mxCell id="Rb8oramXEoIXRpVr2t3h-539" value="&lt;span style=&quot;font-weight: normal;&quot;&gt;&amp;lt;&amp;lt;abstract&amp;gt;&amp;gt;&lt;/span&gt;&lt;br&gt;Scene" style="swimlane;fontStyle=1;align=center;verticalAlign=top;childLayout=stackLayout;horizontal=1;startSize=40;horizontalStack=0;resizeParent=1;resizeParentMax=0;resizeLast=0;collapsible=1;marginBottom=0;whiteSpace=wrap;html=1;" vertex="1" collapsed="1" parent="1">
          <mxGeometry x="1450" y="-896.5" width="110" height="40" as="geometry">
            <mxRectangle x="1430" y="-1090" width="160" height="250" as="alternateBounds" />
          </mxGeometry>
        </mxCell>
        <mxCell id="Rb8oramXEoIXRpVr2t3h-540" value="-&amp;nbsp;_buttons: List&amp;lt;Button&amp;gt;" style="text;strokeColor=none;fillColor=none;align=left;verticalAlign=top;spacingLeft=4;spacingRight=4;overflow=hidden;rotatable=0;points=[[0,0.5],[1,0.5]];portConstraint=eastwest;whiteSpace=wrap;html=1;" vertex="1" parent="Rb8oramXEoIXRpVr2t3h-539">
          <mxGeometry y="40" width="160" height="26" as="geometry" />
        </mxCell>
        <mxCell id="Rb8oramXEoIXRpVr2t3h-541" value="" style="line;strokeWidth=1;fillColor=none;align=left;verticalAlign=middle;spacingTop=-1;spacingLeft=3;spacingRight=3;rotatable=0;labelPosition=right;points=[];portConstraint=eastwest;strokeColor=inherit;" vertex="1" parent="Rb8oramXEoIXRpVr2t3h-539">
          <mxGeometry y="66" width="160" height="8" as="geometry" />
        </mxCell>
        <mxCell id="Rb8oramXEoIXRpVr2t3h-542" value="+ Scene()" style="text;strokeColor=none;fillColor=none;align=left;verticalAlign=top;spacingLeft=4;spacingRight=4;overflow=hidden;rotatable=0;points=[[0,0.5],[1,0.5]];portConstraint=eastwest;whiteSpace=wrap;html=1;" vertex="1" parent="Rb8oramXEoIXRpVr2t3h-539">
          <mxGeometry y="74" width="160" height="36" as="geometry" />
        </mxCell>
        <mxCell id="Rb8oramXEoIXRpVr2t3h-543" value="+ Button: List&amp;lt;Button&amp;gt; &amp;lt;&amp;lt;readonly, property&amp;gt;&amp;gt;" style="text;strokeColor=none;fillColor=none;align=left;verticalAlign=top;spacingLeft=4;spacingRight=4;overflow=hidden;rotatable=0;points=[[0,0.5],[1,0.5]];portConstraint=eastwest;whiteSpace=wrap;html=1;" vertex="1" parent="Rb8oramXEoIXRpVr2t3h-539">
          <mxGeometry y="110" width="160" height="49" as="geometry" />
        </mxCell>
        <mxCell id="Rb8oramXEoIXRpVr2t3h-544" value="+ Update() &amp;lt;&amp;lt;virtual&amp;gt;&amp;gt;" style="text;strokeColor=none;fillColor=none;align=left;verticalAlign=top;spacingLeft=4;spacingRight=4;overflow=hidden;rotatable=0;points=[[0,0.5],[1,0.5]];portConstraint=eastwest;whiteSpace=wrap;html=1;" vertex="1" parent="Rb8oramXEoIXRpVr2t3h-539">
          <mxGeometry y="159" width="160" height="26" as="geometry" />
        </mxCell>
        <mxCell id="Rb8oramXEoIXRpVr2t3h-545" value="+ Draw() &amp;lt;&amp;lt;virtual&amp;gt;&amp;gt;" style="text;strokeColor=none;fillColor=none;align=left;verticalAlign=top;spacingLeft=4;spacingRight=4;overflow=hidden;rotatable=0;points=[[0,0.5],[1,0.5]];portConstraint=eastwest;whiteSpace=wrap;html=1;" vertex="1" parent="Rb8oramXEoIXRpVr2t3h-539">
          <mxGeometry y="185" width="160" height="26" as="geometry" />
        </mxCell>
        <mxCell id="Rb8oramXEoIXRpVr2t3h-546" value="#&amp;nbsp;FetchButton(string name): Button" style="text;strokeColor=none;fillColor=none;align=left;verticalAlign=top;spacingLeft=4;spacingRight=4;overflow=hidden;rotatable=0;points=[[0,0.5],[1,0.5]];portConstraint=eastwest;whiteSpace=wrap;html=1;" vertex="1" parent="Rb8oramXEoIXRpVr2t3h-539">
          <mxGeometry y="211" width="160" height="39" as="geometry" />
        </mxCell>
        <mxCell id="Rb8oramXEoIXRpVr2t3h-547" value="" style="endArrow=block;endFill=0;endSize=12;html=1;rounded=0;" edge="1" parent="1" source="Rb8oramXEoIXRpVr2t3h-539" target="Rb8oramXEoIXRpVr2t3h-383">
          <mxGeometry width="160" relative="1" as="geometry">
            <mxPoint x="1355" y="-1020.5" as="sourcePoint" />
            <mxPoint x="1324" y="-1020.5" as="targetPoint" />
          </mxGeometry>
        </mxCell>
        <mxCell id="Rb8oramXEoIXRpVr2t3h-549" value="" style="endArrow=block;endFill=0;endSize=12;html=1;rounded=0;" edge="1" parent="1" source="Rb8oramXEoIXRpVr2t3h-440" target="Rb8oramXEoIXRpVr2t3h-389">
          <mxGeometry width="160" relative="1" as="geometry">
            <mxPoint x="1460" y="-866.5" as="sourcePoint" />
            <mxPoint x="1320" y="-866.5" as="targetPoint" />
          </mxGeometry>
        </mxCell>
        <mxCell id="Rb8oramXEoIXRpVr2t3h-550" value="" style="endArrow=open;endFill=1;endSize=12;html=1;rounded=0;" edge="1" parent="1" source="Rb8oramXEoIXRpVr2t3h-440" target="Rb8oramXEoIXRpVr2t3h-539">
          <mxGeometry width="160" relative="1" as="geometry">
            <mxPoint x="1348" y="-540.5" as="sourcePoint" />
            <mxPoint x="1625" y="-539.5" as="targetPoint" />
          </mxGeometry>
        </mxCell>
        <mxCell id="Rb8oramXEoIXRpVr2t3h-552" value="&lt;b&gt;OBSERVER PATTERN&lt;/b&gt;" style="shape=umlFrame;whiteSpace=wrap;html=1;pointerEvents=0;width=105;height=60;" vertex="1" parent="1">
          <mxGeometry x="1029" y="-1040" width="645" height="500" as="geometry" />
        </mxCell>
        <mxCell id="Rb8oramXEoIXRpVr2t3h-554" value="" style="shape=umlFrame;whiteSpace=wrap;html=1;pointerEvents=0;width=10;height=15;" vertex="1" parent="1">
          <mxGeometry x="-840" y="-1080" width="2540" height="2170" as="geometry" />
        </mxCell>
        <mxCell id="Rb8oramXEoIXRpVr2t3h-556" value="Use" style="endArrow=open;endSize=12;dashed=1;html=1;rounded=0;" edge="1" parent="1" source="Rb8oramXEoIXRpVr2t3h-2" target="Rb8oramXEoIXRpVr2t3h-39">
          <mxGeometry x="0.8963" width="160" relative="1" as="geometry">
            <mxPoint x="-542" y="780" as="sourcePoint" />
            <mxPoint x="-542" y="830" as="targetPoint" />
            <Array as="points">
              <mxPoint x="-410" y="1070" />
              <mxPoint x="1330" y="1070" />
            </Array>
            <mxPoint as="offset" />
          </mxGeometry>
        </mxCell>
        <mxCell id="Rb8oramXEoIXRpVr2t3h-557" value="&amp;lt;&amp;lt;enumeration&amp;gt;&amp;gt;&lt;br&gt;&lt;b&gt;Angle&lt;/b&gt;" style="swimlane;fontStyle=0;childLayout=stackLayout;horizontal=1;startSize=48;fillColor=none;horizontalStack=0;resizeParent=1;resizeParentMax=0;resizeLast=0;collapsible=1;marginBottom=0;whiteSpace=wrap;html=1;" vertex="1" parent="1">
          <mxGeometry x="510" y="870" width="140" height="152" as="geometry" />
        </mxCell>
        <mxCell id="Rb8oramXEoIXRpVr2t3h-558" value="Up = 0" style="text;strokeColor=none;fillColor=none;align=left;verticalAlign=top;spacingLeft=4;spacingRight=4;overflow=hidden;rotatable=0;points=[[0,0.5],[1,0.5]];portConstraint=eastwest;whiteSpace=wrap;html=1;" vertex="1" parent="Rb8oramXEoIXRpVr2t3h-557">
          <mxGeometry y="48" width="140" height="26" as="geometry" />
        </mxCell>
        <mxCell id="Rb8oramXEoIXRpVr2t3h-559" value="Right =1" style="text;strokeColor=none;fillColor=none;align=left;verticalAlign=top;spacingLeft=4;spacingRight=4;overflow=hidden;rotatable=0;points=[[0,0.5],[1,0.5]];portConstraint=eastwest;whiteSpace=wrap;html=1;" vertex="1" parent="Rb8oramXEoIXRpVr2t3h-557">
          <mxGeometry y="74" width="140" height="26" as="geometry" />
        </mxCell>
        <mxCell id="Rb8oramXEoIXRpVr2t3h-560" value="Down = 2" style="text;strokeColor=none;fillColor=none;align=left;verticalAlign=top;spacingLeft=4;spacingRight=4;overflow=hidden;rotatable=0;points=[[0,0.5],[1,0.5]];portConstraint=eastwest;whiteSpace=wrap;html=1;" vertex="1" parent="Rb8oramXEoIXRpVr2t3h-557">
          <mxGeometry y="100" width="140" height="26" as="geometry" />
        </mxCell>
        <mxCell id="Rb8oramXEoIXRpVr2t3h-561" value="Left = 3" style="text;strokeColor=none;fillColor=none;align=left;verticalAlign=top;spacingLeft=4;spacingRight=4;overflow=hidden;rotatable=0;points=[[0,0.5],[1,0.5]];portConstraint=eastwest;whiteSpace=wrap;html=1;" vertex="1" parent="Rb8oramXEoIXRpVr2t3h-557">
          <mxGeometry y="126" width="140" height="26" as="geometry" />
        </mxCell>
        <mxCell id="Rb8oramXEoIXRpVr2t3h-562" value="" style="endArrow=open;startArrow=circlePlus;endFill=0;startFill=0;endSize=8;html=1;rounded=0;" edge="1" parent="1" source="Rb8oramXEoIXRpVr2t3h-125" target="Rb8oramXEoIXRpVr2t3h-557">
          <mxGeometry width="160" relative="1" as="geometry">
            <mxPoint x="1041" y="21" as="sourcePoint" />
            <mxPoint x="1041" y="-70" as="targetPoint" />
          </mxGeometry>
        </mxCell>
      </root>
    </mxGraphModel>
  </diagram>
</mxfile>
